<svg width="336" height="294" viewBox="0 0 336 294" fill="none" xmlns="http://www.w3.org/2000/svg">
<path opacity="0.1" d="M1.89074 45.9139L1.5 46.3431V46.9236V60.7691V62.2691H3H47.3411V75.1875V76.6875H48.8411H71.2861H72.7861V75.1875V62.2691H86.8835H88.3835V60.7691V44.1545V42.6545H86.8835H72.7861V3.66841V2.16841H71.2861H42.3739H41.7109L41.2646 2.65868L1.89074 45.9139ZM212.163 48.327L212.164 48.3209C212.619 45.6455 212.851 43.1728 212.851 40.908V38.0434C212.851 35.7786 212.619 33.3059 212.164 30.6305C211.699 27.8961 210.871 25.2035 209.686 22.5544C208.545 19.7978 206.912 17.1632 204.805 14.6493C202.716 12.0812 200.045 9.8442 196.821 7.92632C193.619 5.92017 189.764 4.37487 185.285 3.26574C180.817 2.08002 175.582 1.5 169.6 1.5H165.415C159.492 1.5 154.257 2.08093 149.73 3.26574C145.312 4.37534 141.464 5.88759 138.209 7.82159C134.975 9.74373 132.296 11.9868 130.203 14.5628C128.162 17.0751 126.535 19.7024 125.335 22.4452C124.146 25.0987 123.316 27.7959 122.851 30.535C122.395 33.213 122.164 35.7172 122.164 38.0434V40.908C122.164 43.1728 122.396 45.6455 122.85 48.3209L122.852 48.327C123.318 51.0003 124.146 53.7213 125.327 56.4882L125.327 56.4882L125.333 56.5003C126.531 59.2406 128.154 61.8967 130.191 64.4693L130.197 64.4767L130.203 64.4841C132.292 67.0545 134.963 69.3256 138.19 71.3091C141.445 73.3101 145.295 74.889 149.718 76.0643L149.723 76.0656C154.252 77.2518 159.489 77.8333 165.415 77.8333H169.6C175.524 77.8333 180.73 77.2522 185.198 76.0652C189.683 74.8906 193.566 73.312 196.825 71.3091C200.052 69.3256 202.723 67.0545 204.812 64.4841L204.818 64.4767L204.824 64.4693C206.86 61.8967 208.484 59.2406 209.682 56.5003L209.687 56.4882C210.869 53.7213 211.697 51.0003 212.163 48.327ZM185.441 33.6747L185.447 33.7009L185.453 33.727C185.941 35.6863 186.17 37.3421 186.17 38.7118V39.9531C186.17 41.3447 185.967 43.0822 185.536 45.1848C185.143 47.0414 184.297 48.8439 182.959 50.5966L182.949 50.6093L182.94 50.6222C181.717 52.2958 179.895 53.7792 177.391 55.0362L177.385 55.0394L177.378 55.0428C175.07 56.2297 171.848 56.882 167.603 56.882C163.364 56.882 160.104 56.2318 157.725 55.0393C155.285 53.7835 153.447 52.2936 152.151 50.5966C150.811 48.8416 149.93 47.0317 149.475 45.1639C149.047 43.0707 148.845 41.3401 148.845 39.9531V38.7118C148.845 37.3222 149.048 35.6512 149.476 33.6839L149.478 33.6747C149.873 31.8059 150.693 30.0329 151.966 28.3487C153.181 26.7397 154.998 25.3163 157.503 24.1189L157.516 24.1127L157.528 24.1062C159.906 22.9129 163.198 22.2604 167.507 22.2604C171.752 22.2604 174.975 22.9127 177.283 24.0996L177.302 24.1095L177.322 24.1189C179.827 25.3163 181.643 26.7397 182.859 28.3487L182.869 28.3616L182.879 28.3743C184.208 30.0565 185.05 31.8212 185.441 33.6747ZM248.007 45.9139L247.617 46.3431V46.9236V60.7691V62.2691H249.117H293.458V75.1875V76.6875H294.958H317.403H318.903V75.1875V62.2691H333H334.5V60.7691V44.1545V42.6545H333H318.903V3.66841V2.16841H317.403H288.49H287.827L287.381 2.65868L248.007 45.9139ZM28.9177 42.6545L47.3411 22.27V42.6545H28.9177ZM293.458 42.6545H275.034L293.458 22.27V42.6545Z" stroke="#376BCC" stroke-width="3"/>
<path d="M288.095 40.3335H49.018C46.8844 40.3335 45.1406 42.0753 45.1406 44.2067V67.9217H291.973V44.2067C291.973 42.0753 290.229 40.3335 288.095 40.3335Z" fill="#2E3036"/>
<path d="M58.0377 223.184L41.3906 217.98C48.2791 196.007 45.3656 162.977 45.3439 162.641L62.7166 161.051C62.8574 162.544 65.9876 197.857 58.0485 223.195L58.0377 223.184Z" fill="url(#paint0_linear_69_39792)"/>
<path d="M78.9857 252.546L61.6562 250.567C63.8658 231.222 63.9307 218.456 64.104 180.568C64.1365 174.899 64.1582 168.678 64.2015 161.797L81.6501 161.895C81.6068 168.776 81.5851 174.986 81.5526 180.655C81.3685 219.257 81.3143 232.261 78.9857 252.557V252.546Z" fill="url(#paint1_linear_69_39792)"/>
<path d="M86.0127 266.189C80.5214 240.278 82.9909 164.751 83.0883 161.548L100.526 162.133C100.504 162.901 98.0241 238.73 103.082 262.586L86.0127 266.189Z" fill="url(#paint2_linear_69_39792)"/>
<path d="M119.393 244.8L102.009 243.307C103.959 220.62 102.009 162.717 101.977 162.133L119.414 161.538C119.501 163.962 121.429 221.075 119.382 244.8H119.393Z" fill="url(#paint3_linear_69_39792)"/>
<path d="M126.368 264.934C119.079 237.573 120.79 164.708 120.866 161.625L138.304 162.057C138.282 162.793 136.56 235.496 143.221 260.455L126.357 264.945L126.368 264.934Z" fill="url(#paint4_linear_69_39792)"/>
<path d="M141.639 252.774C138.184 228.377 139.701 164.34 139.766 161.625L157.203 162.046C157.192 162.696 155.665 227.36 158.915 250.329L141.639 252.763V252.774Z" fill="url(#paint5_linear_69_39792)"/>
<path d="M171.543 264.967L154.701 260.423C159.792 241.587 159.283 183.057 158.654 162.1L176.092 161.581C176.19 164.762 178.345 239.802 171.543 264.967Z" fill="url(#paint6_linear_69_39792)"/>
<path d="M179.222 255.121C175.02 228.918 177.446 164.253 177.554 161.505L194.992 162.176C194.97 162.836 192.522 227.847 196.454 252.363L179.222 255.121Z" fill="url(#paint7_linear_69_39792)"/>
<path d="M213.882 161.841H196.434V236.232H213.882V161.841Z" fill="url(#paint8_linear_69_39792)"/>
<path d="M229.758 255.77L212.797 251.703C218.256 228.972 215.364 162.89 215.342 162.23L232.769 161.451C232.899 164.264 235.802 230.66 229.769 255.77H229.758Z" fill="url(#paint9_linear_69_39792)"/>
<path d="M243.74 268.245C231.718 243.978 233.927 169.901 234.22 161.527L251.658 162.133C250.91 183.652 250.845 243.275 259.38 260.509L243.74 268.234V268.245Z" fill="url(#paint10_linear_69_39792)"/>
<path d="M258.266 253.239C253.165 227.295 253.1 164.502 253.1 161.841H270.548C270.548 162.479 270.602 225.586 275.379 249.874L258.255 253.239H258.266Z" fill="url(#paint11_linear_69_39792)"/>
<path d="M277.814 226.798C272.063 206.274 271.998 163.648 271.998 161.841H289.447C289.447 162.263 289.512 203.883 294.613 222.102L277.814 226.798Z" fill="url(#paint12_linear_69_39792)"/>
<path d="M140.343 59.8615C138.209 59.8615 135.826 58.2386 135.046 56.2588L131.743 47.8849C130.963 45.9051 128.58 44.2822 126.447 44.2822H65.4805C63.3469 44.2822 60.9641 45.9051 60.1843 47.8849L56.8809 56.2588C56.1011 58.2386 53.7184 59.8615 51.5847 59.8615H49.0395C46.9059 59.8615 45.1621 61.6033 45.1621 63.7346V172.822C45.1621 174.953 46.9059 176.695 49.0395 176.695H288.117C290.251 176.695 291.994 174.953 291.994 172.822V63.7346C291.994 61.6033 290.251 59.8615 288.117 59.8615H140.364H140.343Z" fill="url(#paint13_linear_69_39792)"/>
<path d="M74.296 48.8565H75.032V54.4565H74.296V51.9125H71.408V54.4565H70.672V48.8565H71.408V51.3045H74.296V48.8565ZM76.0151 52.3605C76.0151 51.6459 76.1938 51.1019 76.5511 50.7285C76.9138 50.3552 77.3938 50.1685 77.9911 50.1685C78.6045 50.1685 79.0711 50.3579 79.3911 50.7365C79.7165 51.1152 79.8791 51.6912 79.8791 52.4645V52.5605H76.7191C76.7458 53.0405 76.8765 53.4085 77.1111 53.6645C77.3511 53.9152 77.6631 54.0405 78.0471 54.0405C78.5911 54.0405 78.9618 53.8005 79.1591 53.3205L79.8231 53.3605C79.7111 53.7339 79.5031 54.0272 79.1991 54.2405C78.8951 54.4485 78.5111 54.5525 78.0471 54.5525C77.4231 54.5525 76.9271 54.3685 76.5591 54.0005C76.1965 53.6272 76.0151 53.0805 76.0151 52.3605ZM76.7271 52.0965H79.1831C79.1778 51.6592 79.0658 51.3152 78.8471 51.0645C78.6338 50.8085 78.3485 50.6805 77.9911 50.6805C77.6391 50.6805 77.3485 50.8032 77.1191 51.0485C76.8898 51.2885 76.7591 51.6379 76.7271 52.0965ZM82.6379 54.4565V50.2645H83.3419V52.0325H85.5099V50.2645H86.2059V54.4565H85.5099V52.6085H83.3419V54.4565H82.6379ZM87.0858 53.3605C87.0858 52.6085 87.6351 52.1792 88.7338 52.0725L89.9818 51.9525V51.5525C89.9818 51.2912 89.8965 51.0805 89.7258 50.9205C89.5605 50.7552 89.3151 50.6752 88.9898 50.6805C88.6911 50.6805 88.4458 50.7499 88.2538 50.8885C88.0618 51.0219 87.9578 51.2245 87.9418 51.4965H87.2938C87.3098 51.0432 87.4725 50.7099 87.7818 50.4965C88.0911 50.2779 88.4938 50.1685 88.9898 50.1685C89.5391 50.1685 89.9578 50.2992 90.2458 50.5605C90.5338 50.8219 90.6778 51.1979 90.6778 51.6885V54.4565H90.0378V53.5925C89.9045 53.8965 89.7018 54.1339 89.4298 54.3045C89.1578 54.4699 88.8271 54.5525 88.4378 54.5525C87.9898 54.5525 87.6511 54.4432 87.4218 54.2245C87.1978 54.0005 87.0858 53.7125 87.0858 53.3605ZM87.7818 53.3365C87.7818 53.5445 87.8538 53.7152 87.9978 53.8485C88.1418 53.9819 88.3578 54.0485 88.6458 54.0485C89.0565 54.0485 89.3818 53.9205 89.6218 53.6645C89.8618 53.4032 89.9818 53.0672 89.9818 52.6565V52.4005L88.8138 52.5205C88.1258 52.5845 87.7818 52.8565 87.7818 53.3365ZM94.4035 49.4165C94.2168 49.6085 93.9422 49.7045 93.5795 49.7045C93.2168 49.7045 92.9422 49.6085 92.7555 49.4165C92.5688 49.2192 92.4702 48.9579 92.4595 48.6325H92.9315C92.9475 48.8139 93.0062 48.9685 93.1075 49.0965C93.2088 49.2245 93.3662 49.2885 93.5795 49.2885C93.9688 49.2885 94.1875 49.0699 94.2355 48.6325H94.7075C94.6968 48.9579 94.5955 49.2192 94.4035 49.4165ZM94.3715 50.2645H95.4195V54.4565H94.7475V50.7685L92.7955 54.4565H91.7395V50.2645H92.4195V53.9525L94.3715 50.2645ZM99.7768 53.8805H100.265V55.5845H99.6008V54.4565H96.7288V55.5845H96.0648V53.8805H96.3768C96.4408 53.7419 96.4941 53.5765 96.5368 53.3845C96.5848 53.1872 96.6248 52.8832 96.6568 52.4725C96.6941 52.0619 96.7181 51.7605 96.7288 51.5685C96.7448 51.3712 96.7714 50.9365 96.8088 50.2645H99.7768V53.8805ZM99.0728 53.8805V50.8405H97.4168C97.3208 52.2112 97.2434 53.0619 97.1848 53.3925C97.1474 53.5845 97.1048 53.7472 97.0568 53.8805H99.0728ZM100.687 52.3605C100.687 51.6459 100.866 51.1019 101.223 50.7285C101.586 50.3552 102.066 50.1685 102.663 50.1685C103.276 50.1685 103.743 50.3579 104.063 50.7365C104.388 51.1152 104.551 51.6912 104.551 52.4645V52.5605H101.391C101.418 53.0405 101.548 53.4085 101.783 53.6645C102.023 53.9152 102.335 54.0405 102.719 54.0405C103.263 54.0405 103.634 53.8005 103.831 53.3205L104.495 53.3605C104.383 53.7339 104.175 54.0272 103.871 54.2405C103.567 54.4485 103.183 54.5525 102.719 54.5525C102.095 54.5525 101.599 54.3685 101.231 54.0005C100.868 53.6272 100.687 53.0805 100.687 52.3605ZM101.399 52.0965H103.855C103.85 51.6592 103.738 51.3152 103.519 51.0645C103.306 50.8085 103.02 50.6805 102.663 50.6805C102.311 50.6805 102.02 50.8032 101.791 51.0485C101.562 51.2885 101.431 51.6379 101.399 52.0965ZM105.396 54.4565V50.2645H106.1V52.0325H108.268V50.2645H108.964V54.4565H108.268V52.6085H106.1V54.4565H105.396ZM110.364 53.9685C110.006 53.5739 109.828 53.0379 109.828 52.3605C109.828 51.6832 110.006 51.1499 110.364 50.7605C110.726 50.3659 111.209 50.1685 111.812 50.1685C112.414 50.1685 112.894 50.3659 113.252 50.7605C113.609 51.1499 113.788 51.6832 113.788 52.3605C113.788 53.0379 113.609 53.5739 113.252 53.9685C112.894 54.3579 112.414 54.5525 111.812 54.5525C111.209 54.5525 110.726 54.3579 110.364 53.9685ZM110.868 51.1685C110.638 51.4672 110.524 51.8645 110.524 52.3605C110.524 52.8565 110.638 53.2539 110.868 53.5525C111.102 53.8512 111.417 54.0005 111.812 54.0005C112.201 54.0005 112.51 53.8512 112.74 53.5525C112.974 53.2539 113.092 52.8565 113.092 52.3605C113.092 51.8645 112.974 51.4672 112.74 51.1685C112.51 50.8699 112.201 50.7205 111.812 50.7205C111.417 50.7205 111.102 50.8699 110.868 51.1685Z" fill="#5E5E5E"/>
<path d="M123.511 54.0846C123.294 54.301 122.937 54.301 122.709 54.0846C122.493 53.8682 122.493 53.5112 122.709 53.284L127.28 48.7184C127.497 48.5021 127.854 48.5021 128.081 48.7184C128.298 48.9348 128.298 49.2918 128.081 49.519L123.511 54.0846Z" fill="#5E5E5E"/>
<path d="M122.719 49.519C122.502 49.3027 122.502 48.9456 122.719 48.7184C122.936 48.5021 123.293 48.5021 123.521 48.7184L128.091 53.284C128.308 53.5004 128.308 53.8574 128.091 54.0846C127.875 54.301 127.517 54.301 127.29 54.0846L122.719 49.519Z" fill="#5E5E5E"/>
<path d="M280.155 54.0846C279.939 54.301 279.581 54.301 279.354 54.0846C279.137 53.8682 279.137 53.5112 279.354 53.284L283.925 48.7184C284.141 48.5021 284.499 48.5021 284.726 48.7184C284.943 48.9348 284.943 49.2918 284.726 49.519L280.155 54.0846Z" fill="white"/>
<path d="M279.354 49.519C279.137 49.3027 279.137 48.9456 279.354 48.7184C279.57 48.5021 279.928 48.5021 280.155 48.7184L284.726 53.284C284.953 53.5004 284.943 53.8574 284.726 54.0846C284.509 54.301 284.152 54.301 283.925 54.0846L279.354 49.519Z" fill="white"/>
<path d="M69.044 69.5444H268.069C268.795 69.5444 269.391 70.1395 269.391 70.8643V84.031C269.391 84.7558 268.795 85.3509 268.069 85.3509H69.044C68.3183 85.3509 67.7227 84.7558 67.7227 84.031V70.8643C67.7227 70.1395 68.3183 69.5444 69.044 69.5444Z" fill="#E0F1FC"/>
<path d="M274.618 49.0317H269.863V53.7812H274.618V49.0317Z" stroke="white" stroke-linecap="round" stroke-linejoin="round"/>
<path d="M264.83 53.7812H260.064" stroke="white" stroke-linecap="round" stroke-linejoin="round"/>
<path d="M124.964 106.048C123.827 104.912 123.827 103.072 124.964 101.936C126.102 100.8 127.943 100.8 129.08 101.936L144.644 117.472C145.781 118.608 145.781 120.448 144.644 121.594C143.507 122.73 141.666 122.73 140.528 121.594L124.975 106.058L124.964 106.048Z" fill="#2E3036"/>
<path d="M144.644 106.048C145.781 104.912 145.781 103.072 144.644 101.936C143.496 100.8 141.665 100.8 140.517 101.936L124.964 117.472C123.827 118.608 123.838 120.448 124.964 121.594C126.101 122.73 127.943 122.73 129.08 121.594L144.644 106.058V106.048Z" fill="#2E3036"/>
<path d="M192.484 106.048C191.347 104.912 191.347 103.072 192.484 101.936C193.632 100.8 195.462 100.8 196.61 101.936L212.164 117.472C213.301 118.608 213.29 120.448 212.164 121.594C211.026 122.73 209.185 122.73 208.048 121.594L192.484 106.058V106.048Z" fill="#2E3036"/>
<path d="M212.164 106.048C213.301 104.912 213.301 103.072 212.164 101.936C211.026 100.8 209.185 100.8 208.048 101.936L192.484 117.472C191.347 118.608 191.347 120.448 192.484 121.594C193.621 122.73 195.462 122.73 196.6 121.594L212.153 106.058L212.164 106.048Z" fill="#2E3036"/>
<path d="M179.56 136.817C181.174 136.817 182.474 135.518 182.474 133.906C182.474 132.294 181.174 130.996 179.571 130.996H157.574C155.96 130.996 154.66 132.305 154.66 133.917C154.66 135.518 155.96 136.817 157.574 136.827H179.571L179.56 136.817Z" fill="#2E3036"/>
<path d="M285.605 73.2446C285.605 73.6882 285.248 74.0561 284.793 74.0561H275.5C275.056 74.0561 274.688 73.6991 274.688 73.2446C274.688 72.8009 275.045 72.4438 275.5 72.4438H284.793C285.237 72.4438 285.605 72.8009 285.605 73.2446Z" fill="#8F8F8F"/>
<path d="M285.605 77.4424C285.605 77.8861 285.248 78.254 284.793 78.254H275.5C275.056 78.254 274.688 77.8969 274.688 77.4424C274.688 76.9988 275.045 76.6309 275.5 76.6309H284.793C285.237 76.6309 285.605 76.9879 285.605 77.4424Z" fill="#8F8F8F"/>
<path d="M285.605 81.6401C285.605 82.0838 285.248 82.4517 284.793 82.4517H275.5C275.056 82.4517 274.688 82.0946 274.688 81.6401C274.688 81.1964 275.045 80.8394 275.5 80.8394H284.793C285.237 80.8394 285.605 81.1964 285.605 81.6401Z" fill="#8F8F8F"/>
<path d="M64.7433 75.8737C64.4834 75.6465 64.0827 75.6573 63.8552 75.917L63.2487 76.5769C63.0104 73.7857 60.6601 71.5786 57.8007 71.5786C54.7789 71.5786 52.3203 74.0345 52.3203 77.053C52.3203 80.0715 54.7789 82.5273 57.8007 82.5273C58.1473 82.5273 58.4289 82.2461 58.4289 81.8998C58.4289 81.5536 58.1473 81.2723 57.8007 81.2723C55.4721 81.2723 53.5875 79.379 53.5875 77.0638C53.5875 74.7485 55.4829 72.8552 57.8007 72.8552C59.9777 72.8552 61.7649 74.5214 61.9706 76.6527L61.31 76.0576C61.05 75.8196 60.6493 75.8413 60.4218 76.1009C60.1835 76.3606 60.2052 76.7501 60.4651 76.9881L62.2631 78.6217C62.3822 78.7299 62.5338 78.784 62.6855 78.784C62.6855 78.784 62.7071 78.784 62.718 78.784C62.8804 78.784 63.0429 78.6975 63.1512 78.5784L64.7867 76.7825C65.0249 76.5229 65.0033 76.1225 64.7433 75.8953V75.8737Z" fill="#8F8F8F"/>
<path opacity="0.5" d="M289.537 290.748C289.299 292.111 288.01 293.215 286.645 293.215H48.2392C46.8853 293.215 45.5856 292.111 45.3474 290.748L25.1805 174.315C24.8556 172.432 25.8954 170.896 27.4983 170.896H307.397C309 170.896 310.039 172.432 309.715 174.315L289.548 290.748H289.537Z" fill="white"/>
<g style="mix-blend-mode:multiply">
<path d="M307.397 170.896H27.4983C25.8954 170.896 24.8556 172.432 25.1805 174.315L28.7872 195.152H306.097L309.704 174.315C310.029 172.432 308.989 170.896 307.386 170.896H307.397Z" fill="#D9D9D9"/>
</g>
<path d="M312.097 146.694H23.9026C22.2996 146.694 21 147.992 21 149.593V179.616C21 181.217 22.2996 182.515 23.9026 182.515H312.097C313.7 182.515 315 181.217 315 179.616V149.593C315 147.992 313.7 146.694 312.097 146.694Z" fill="#ED9C62"/>
<path d="M33.2819 176.381C33.2819 177.723 32.1988 178.804 30.8558 178.804C29.5128 178.804 28.4297 177.723 28.4297 176.381V152.828C28.4297 151.487 29.5128 150.405 30.8558 150.405C32.1988 150.405 33.2819 151.487 33.2819 152.828V176.381Z" fill="white" fill-opacity="0.1"/>
<path d="M49.4206 176.381C49.4206 177.723 48.3375 178.804 46.9945 178.804C45.6515 178.804 44.5684 177.723 44.5684 176.381V152.828C44.5684 151.487 45.6515 150.405 46.9945 150.405C48.3375 150.405 49.4206 151.487 49.4206 152.828V176.381Z" fill="white" fill-opacity="0.1"/>
<path d="M65.5573 176.381C65.5573 177.723 64.4742 178.804 63.1312 178.804C61.7882 178.804 60.7051 177.723 60.7051 176.381V152.828C60.7051 151.487 61.7882 150.405 63.1312 150.405C64.4742 150.405 65.5573 151.487 65.5573 152.828V176.381Z" fill="white" fill-opacity="0.1"/>
<path d="M81.6823 176.381C81.6823 177.723 80.5992 178.804 79.2562 178.804C77.9132 178.804 76.8301 177.723 76.8301 176.381V152.828C76.8301 151.487 77.9132 150.405 79.2562 150.405C80.5992 150.405 81.6823 151.487 81.6823 152.828V176.381Z" fill="white" fill-opacity="0.1"/>
<path d="M97.8229 176.381C97.8229 177.723 96.7399 178.804 95.3968 178.804C94.0538 178.804 92.9707 177.723 92.9707 176.381V152.828C92.9707 151.487 94.0538 150.405 95.3968 150.405C96.7399 150.405 97.8229 151.487 97.8229 152.828V176.381Z" fill="white" fill-opacity="0.1"/>
<path d="M113.962 176.381C113.962 177.723 112.879 178.804 111.536 178.804C110.192 178.804 109.109 177.723 109.109 176.381V152.828C109.109 151.487 110.192 150.405 111.536 150.405C112.879 150.405 113.962 151.487 113.962 152.828V176.381Z" fill="white" fill-opacity="0.1"/>
<path d="M130.087 176.381C130.087 177.723 129.004 178.804 127.661 178.804C126.317 178.804 125.234 177.723 125.234 176.381V152.828C125.234 151.487 126.317 150.405 127.661 150.405C129.004 150.405 130.087 151.487 130.087 152.828V176.381Z" fill="white" fill-opacity="0.1"/>
<path d="M146.223 176.381C146.223 177.723 145.14 178.804 143.797 178.804C142.454 178.804 141.371 177.723 141.371 176.381V152.828C141.371 151.487 142.454 150.405 143.797 150.405C145.14 150.405 146.223 151.487 146.223 152.828V176.381Z" fill="white" fill-opacity="0.1"/>
<path d="M162.362 176.381C162.362 177.723 161.279 178.804 159.936 178.804C158.593 178.804 157.51 177.723 157.51 176.381V152.828C157.51 151.487 158.593 150.405 159.936 150.405C161.279 150.405 162.362 151.487 162.362 152.828V176.381Z" fill="white" fill-opacity="0.1"/>
<path d="M178.501 176.381C178.501 177.723 177.418 178.804 176.075 178.804C174.732 178.804 173.648 177.723 173.648 176.381V152.828C173.648 151.487 174.732 150.405 176.075 150.405C177.418 150.405 178.501 151.487 178.501 152.828V176.381Z" fill="white" fill-opacity="0.1"/>
<path d="M194.628 176.381C194.628 177.723 193.545 178.804 192.201 178.804C190.858 178.804 189.775 177.723 189.775 176.381V152.828C189.775 151.487 190.858 150.405 192.201 150.405C193.545 150.405 194.628 151.487 194.628 152.828V176.381Z" fill="white" fill-opacity="0.1"/>
<path d="M210.764 176.381C210.764 177.723 209.681 178.804 208.338 178.804C206.995 178.804 205.912 177.723 205.912 176.381V152.828C205.912 151.487 206.995 150.405 208.338 150.405C209.681 150.405 210.764 151.487 210.764 152.828V176.381Z" fill="white" fill-opacity="0.1"/>
<path d="M226.903 176.381C226.903 177.723 225.82 178.804 224.477 178.804C223.134 178.804 222.051 177.723 222.051 176.381V152.828C222.051 151.487 223.134 150.405 224.477 150.405C225.82 150.405 226.903 151.487 226.903 152.828V176.381Z" fill="white" fill-opacity="0.1"/>
<path d="M243.042 176.381C243.042 177.723 241.959 178.804 240.616 178.804C239.273 178.804 238.189 177.723 238.189 176.381V152.828C238.189 151.487 239.273 150.405 240.616 150.405C241.959 150.405 243.042 151.487 243.042 152.828V176.381Z" fill="white" fill-opacity="0.1"/>
<path d="M259.167 176.381C259.167 177.723 258.084 178.804 256.741 178.804C255.398 178.804 254.314 177.723 254.314 176.381V152.828C254.314 151.487 255.398 150.405 256.741 150.405C258.084 150.405 259.167 151.487 259.167 152.828V176.381Z" fill="white" fill-opacity="0.1"/>
<path d="M275.307 176.381C275.307 177.723 274.224 178.804 272.881 178.804C271.538 178.804 270.455 177.723 270.455 176.381V152.828C270.455 151.487 271.538 150.405 272.881 150.405C274.224 150.405 275.307 151.487 275.307 152.828V176.381Z" fill="white" fill-opacity="0.1"/>
<path d="M291.442 176.381C291.442 177.723 290.359 178.804 289.016 178.804C287.673 178.804 286.59 177.723 286.59 176.381V152.828C286.59 151.487 287.673 150.405 289.016 150.405C290.359 150.405 291.442 151.487 291.442 152.828V176.381Z" fill="white" fill-opacity="0.1"/>
<path d="M307.581 176.381C307.581 177.723 306.498 178.804 305.155 178.804C303.812 178.804 302.729 177.723 302.729 176.381V152.828C302.729 151.487 303.812 150.405 305.155 150.405C306.498 150.405 307.581 151.487 307.581 152.828V176.381Z" fill="white" fill-opacity="0.1"/>
<defs>
<linearGradient id="paint0_linear_69_39792" x1="52.4165" y1="265.118" x2="52.4165" y2="184.247" gradientUnits="userSpaceOnUse">
<stop stop-color="white"/>
<stop offset="1" stop-color="#BBDBF0"/>
</linearGradient>
<linearGradient id="paint1_linear_69_39792" x1="71.6423" y1="265.107" x2="71.6423" y2="184.247" gradientUnits="userSpaceOnUse">
<stop stop-color="white"/>
<stop offset="1" stop-color="#BBDBF0"/>
</linearGradient>
<linearGradient id="paint2_linear_69_39792" x1="92.7603" y1="265.118" x2="92.7603" y2="184.246" gradientUnits="userSpaceOnUse">
<stop stop-color="white"/>
<stop offset="1" stop-color="#BBDBF0"/>
</linearGradient>
<linearGradient id="paint3_linear_69_39792" x1="111.15" y1="265.108" x2="111.15" y2="184.247" gradientUnits="userSpaceOnUse">
<stop stop-color="white"/>
<stop offset="1" stop-color="#BBDBF0"/>
</linearGradient>
<linearGradient id="paint4_linear_69_39792" x1="131.935" y1="265.107" x2="131.935" y2="184.247" gradientUnits="userSpaceOnUse">
<stop stop-color="white"/>
<stop offset="1" stop-color="#BBDBF0"/>
</linearGradient>
<linearGradient id="paint5_linear_69_39792" x1="149.145" y1="265.118" x2="149.145" y2="184.247" gradientUnits="userSpaceOnUse">
<stop stop-color="white"/>
<stop offset="1" stop-color="#BBDBF0"/>
</linearGradient>
<linearGradient id="paint6_linear_69_39792" x1="165.597" y1="265.107" x2="165.597" y2="184.247" gradientUnits="userSpaceOnUse">
<stop stop-color="white"/>
<stop offset="1" stop-color="#BBDBF0"/>
</linearGradient>
<linearGradient id="paint7_linear_69_39792" x1="186.598" y1="265.118" x2="186.598" y2="184.247" gradientUnits="userSpaceOnUse">
<stop stop-color="white"/>
<stop offset="1" stop-color="#BBDBF0"/>
</linearGradient>
<linearGradient id="paint8_linear_69_39792" x1="205.152" y1="265.107" x2="205.152" y2="184.247" gradientUnits="userSpaceOnUse">
<stop stop-color="white"/>
<stop offset="1" stop-color="#BBDBF0"/>
</linearGradient>
<linearGradient id="paint9_linear_69_39792" x1="223.173" y1="265.118" x2="223.173" y2="184.247" gradientUnits="userSpaceOnUse">
<stop stop-color="white"/>
<stop offset="1" stop-color="#BBDBF0"/>
</linearGradient>
<linearGradient id="paint10_linear_69_39792" x1="246.632" y1="265.107" x2="246.632" y2="184.247" gradientUnits="userSpaceOnUse">
<stop stop-color="white"/>
<stop offset="1" stop-color="#BBDBF0"/>
</linearGradient>
<linearGradient id="paint11_linear_69_39792" x1="264.245" y1="265.107" x2="264.245" y2="184.247" gradientUnits="userSpaceOnUse">
<stop stop-color="white"/>
<stop offset="1" stop-color="#BBDBF0"/>
</linearGradient>
<linearGradient id="paint12_linear_69_39792" x1="283.305" y1="265.118" x2="283.305" y2="184.247" gradientUnits="userSpaceOnUse">
<stop stop-color="white"/>
<stop offset="1" stop-color="#BBDBF0"/>
</linearGradient>
<linearGradient id="paint13_linear_69_39792" x1="168.567" y1="151.833" x2="168.567" y2="174.25" gradientUnits="userSpaceOnUse">
<stop stop-color="#F9F9F9"/>
<stop offset="1" stop-color="#BBDBF0"/>
</linearGradient>
</defs>
</svg>
