<svg width="1131" height="575" viewBox="0 0 1131 575" fill="none" xmlns="http://www.w3.org/2000/svg">
<g opacity="0.1">
<mask id="path-1-outside-1_4207_28572" maskUnits="userSpaceOnUse" x="10.4785" y="10" width="1111" height="254" fill="black">
<rect fill="white" x="10.4785" y="10" width="1111" height="254"/>
<path d="M16.0153 161.145L147.286 17.5087H243.677V151.95H295.678V207.121H243.677V255H168.847V207.121H16.0153V161.145ZM168.847 66.3387L91.1628 151.95H168.847V66.3387ZM571.449 15.2892C591.108 15.2892 608.124 17.1916 622.499 20.9966C637.084 24.5901 649.45 29.5577 659.597 35.8992C669.955 42.0294 678.41 49.1108 684.963 57.1434C691.727 65.1761 696.906 73.5258 700.5 82.1926C704.305 90.648 706.947 99.2091 708.427 107.876C709.906 116.543 710.646 124.47 710.646 131.657V141.169C710.646 148.356 709.906 156.283 708.427 164.95C706.947 173.405 704.305 182.072 700.5 190.95C696.695 199.617 691.516 208.072 684.963 216.317C678.41 224.349 669.955 231.536 659.597 237.878C649.239 244.219 636.767 249.293 622.181 253.098C607.807 256.902 590.896 258.805 571.449 258.805H557.498C538.05 258.805 521.034 256.902 506.448 253.098C492.074 249.293 479.708 244.219 469.35 237.878C458.992 231.536 450.537 224.349 443.984 216.317C437.431 208.072 432.252 199.617 428.447 190.95C424.642 182.072 422 173.405 420.52 164.95C419.04 156.283 418.3 148.356 418.3 141.169V131.657C418.3 124.258 419.04 116.226 420.52 107.559C422 98.892 424.642 90.3309 428.447 81.8755C432.252 73.2087 437.431 64.859 443.984 56.8264C450.537 48.7937 458.992 41.7123 469.35 35.5821C479.708 29.452 492.074 24.5901 506.448 20.9966C521.034 17.1916 538.05 15.2892 557.498 15.2892H571.449ZM631.694 133.876C631.694 128.803 630.848 122.884 629.157 116.12C627.677 109.144 624.507 102.591 619.645 96.4611C614.994 90.3309 608.23 85.152 599.352 80.9243C590.685 76.4852 579.059 74.2656 564.473 74.2656C549.676 74.2656 537.839 76.4852 528.961 80.9243C520.082 85.152 513.318 90.3309 508.668 96.4611C504.017 102.591 500.952 109.144 499.472 116.12C497.993 122.884 497.253 128.803 497.253 133.876V137.998C497.253 143.072 497.993 149.202 499.472 156.389C501.163 163.365 504.44 170.023 509.302 176.365C514.164 182.706 520.928 188.097 529.595 192.536C538.473 196.975 550.205 199.194 564.79 199.194C579.376 199.194 591.002 196.975 599.669 192.536C608.547 188.097 615.311 182.706 619.962 176.365C624.824 170.023 627.995 163.365 629.474 156.389C630.954 149.202 631.694 143.072 631.694 137.998V133.876ZM836.553 161.145L967.824 17.5087H1064.22V151.95H1116.22V207.121H1064.22V255H989.385V207.121H836.553V161.145ZM989.385 66.3387L911.701 151.95H989.385V66.3387Z"/>
</mask>
<path d="M16.0153 161.145L12.3245 157.772L11.0153 159.204V161.145H16.0153ZM147.286 17.5087V12.5087H145.082L143.595 14.1356L147.286 17.5087ZM243.677 17.5087H248.677V12.5087H243.677V17.5087ZM243.677 151.95H238.677V156.95H243.677V151.95ZM295.678 151.95H300.678V146.95H295.678V151.95ZM295.678 207.121V212.121H300.678V207.121H295.678ZM243.677 207.121V202.121H238.677V207.121H243.677ZM243.677 255V260H248.677V255H243.677ZM168.847 255H163.847V260H168.847V255ZM168.847 207.121H173.847V202.121H168.847V207.121ZM16.0153 207.121H11.0153V212.121H16.0153V207.121ZM168.847 66.3387H173.847V53.3879L165.144 62.9787L168.847 66.3387ZM91.1628 151.95L87.46 148.59L79.8741 156.95H91.1628V151.95ZM168.847 151.95V156.95H173.847V151.95H168.847ZM19.7062 164.518L150.976 20.8818L143.595 14.1356L12.3245 157.772L19.7062 164.518ZM147.286 22.5087H243.677V12.5087H147.286V22.5087ZM238.677 17.5087V151.95H248.677V17.5087H238.677ZM243.677 156.95H295.678V146.95H243.677V156.95ZM290.678 151.95V207.121H300.678V151.95H290.678ZM295.678 202.121H243.677V212.121H295.678V202.121ZM238.677 207.121V255H248.677V207.121H238.677ZM243.677 250H168.847V260H243.677V250ZM173.847 255V207.121H163.847V255H173.847ZM168.847 202.121H16.0153V212.121H168.847V202.121ZM21.0153 207.121V161.145H11.0153V207.121H21.0153ZM165.144 62.9787L87.46 148.59L94.8656 155.31L172.55 69.6986L165.144 62.9787ZM91.1628 156.95H168.847V146.95H91.1628V156.95ZM173.847 151.95V66.3387H163.847V151.95H173.847ZM622.499 20.9966L621.219 25.8301L621.261 25.8411L621.302 25.8514L622.499 20.9966ZM659.597 35.8992L656.947 40.1392L656.998 40.1713L657.05 40.2021L659.597 35.8992ZM684.963 57.1434L681.089 60.3041L681.113 60.3343L681.138 60.3641L684.963 57.1434ZM700.5 82.1926L695.881 84.1077L695.909 84.1765L695.94 84.2444L700.5 82.1926ZM708.427 107.876L713.355 107.034V107.034L708.427 107.876ZM708.427 164.95L713.352 165.812L713.354 165.802L713.355 165.791L708.427 164.95ZM700.5 190.95L705.078 192.96L705.087 192.94L705.095 192.92L700.5 190.95ZM684.963 216.316L688.837 219.477L688.857 219.453L688.877 219.428L684.963 216.316ZM659.597 237.878L662.207 242.142L659.597 237.878ZM622.181 253.098L620.919 248.259L620.911 248.262L620.902 248.264L622.181 253.098ZM506.448 253.098L505.169 257.931L505.177 257.933L505.186 257.936L506.448 253.098ZM469.35 237.878L471.961 233.614L469.35 237.878ZM443.984 216.316L440.07 219.428L440.089 219.453L440.109 219.477L443.984 216.316ZM428.447 190.95L423.851 192.92L423.86 192.94L423.869 192.96L428.447 190.95ZM420.52 164.95L415.591 165.791L415.593 165.802L415.595 165.812L420.52 164.95ZM420.52 107.559L425.449 108.4H425.449L420.52 107.559ZM428.447 81.8755L433.007 83.9273L433.016 83.9064L433.025 83.8855L428.447 81.8755ZM443.984 56.8264L447.858 59.987V59.987L443.984 56.8264ZM469.35 35.5821L471.897 39.885L469.35 35.5821ZM506.448 20.9966L507.661 25.8473L507.685 25.8411L507.71 25.8346L506.448 20.9966ZM629.157 116.12L624.266 117.157L624.285 117.245L624.306 117.333L629.157 116.12ZM619.645 96.4611L615.661 99.483L615.694 99.5259L615.727 99.5681L619.645 96.4611ZM599.352 80.9243L597.072 85.3745L597.137 85.4075L597.202 85.4386L599.352 80.9243ZM528.961 80.9243L531.11 85.4386L531.154 85.4179L531.197 85.3964L528.961 80.9243ZM508.668 96.4611L512.651 99.483V99.483L508.668 96.4611ZM499.472 116.12L504.357 117.188L504.36 117.173L504.363 117.157L499.472 116.12ZM499.472 156.389L494.575 157.397L494.593 157.482L494.613 157.567L499.472 156.389ZM509.302 176.365L505.334 179.407L509.302 176.365ZM529.595 192.536L527.315 196.986L527.337 196.997L527.359 197.008L529.595 192.536ZM599.669 192.536L597.433 188.064L597.411 188.074L597.39 188.085L599.669 192.536ZM619.962 176.365L615.994 173.323L615.961 173.365L615.93 173.408L619.962 176.365ZM629.474 156.389L634.365 157.426L634.369 157.412L634.372 157.397L629.474 156.389ZM571.449 20.2892C590.806 20.2892 607.372 22.1646 621.219 25.8301L623.778 16.163C608.877 12.2187 591.41 10.2892 571.449 10.2892V20.2892ZM621.302 25.8514C635.499 29.3492 647.347 34.1394 656.947 40.1392L662.247 31.6592C651.553 24.9759 638.669 19.8311 623.695 16.1417L621.302 25.8514ZM657.05 40.2021C666.982 46.08 674.962 52.7943 681.089 60.3041L688.837 53.9828C681.858 45.4273 672.927 37.9787 662.143 31.5963L657.05 40.2021ZM681.138 60.3641C687.611 68.051 692.506 75.9669 695.881 84.1077L705.118 80.2775C701.307 71.0847 695.843 62.3012 688.787 53.9228L681.138 60.3641ZM695.94 84.2444C699.581 92.3347 702.093 100.49 703.498 108.717L713.355 107.034C711.801 97.928 709.029 88.9613 705.059 80.1408L695.94 84.2444ZM703.498 108.717C704.94 117.165 705.646 124.806 705.646 131.657H715.646C715.646 124.134 714.872 115.92 713.355 107.034L703.498 108.717ZM705.646 131.657V141.169H715.646V131.657H705.646ZM705.646 141.169C705.646 148.02 704.94 155.661 703.498 164.108L713.355 165.791C714.872 156.906 715.646 148.692 715.646 141.169H705.646ZM703.501 164.088C702.096 172.119 699.575 180.414 695.904 188.981L705.095 192.92C709.034 183.73 711.798 174.692 713.352 165.812L703.501 164.088ZM695.921 188.94C692.308 197.172 687.364 205.261 681.049 213.205L688.877 219.428C695.668 210.884 701.082 202.063 705.078 192.96L695.921 188.94ZM681.089 213.156C674.947 220.684 666.944 227.517 656.986 233.614L662.207 242.142C672.965 235.556 681.873 228.014 688.837 219.477L681.089 213.156ZM656.986 233.614C647.134 239.646 635.139 244.55 620.919 248.259L623.444 257.936C638.395 254.035 651.344 248.793 662.207 242.142L656.986 233.614ZM620.902 248.264C607.051 251.931 590.589 253.805 571.449 253.805V263.805C591.204 263.805 608.564 261.874 623.461 257.931L620.902 248.264ZM571.449 253.805H557.498V263.805H571.449V253.805ZM557.498 253.805C538.36 253.805 521.785 251.931 507.71 248.259L505.186 257.936C520.283 261.874 537.74 263.805 557.498 263.805V253.805ZM507.728 248.264C493.721 244.557 481.824 239.652 471.961 233.614L466.739 242.142C477.591 248.786 490.426 254.029 505.169 257.931L507.728 248.264ZM471.961 233.614C462.003 227.517 454 220.684 447.858 213.156L440.109 219.477C447.074 228.014 455.982 235.556 466.739 242.142L471.961 233.614ZM447.898 213.205C441.583 205.261 436.639 197.172 433.025 188.94L423.869 192.96C427.865 202.063 433.278 210.884 440.07 219.428L447.898 213.205ZM433.043 188.981C429.371 180.414 426.85 172.119 425.445 164.088L415.595 165.812C417.149 174.692 419.913 183.73 423.851 192.92L433.043 188.981ZM425.449 164.108C424.006 155.661 423.3 148.02 423.3 141.169H413.3C413.3 148.692 414.074 156.906 415.591 165.791L425.449 164.108ZM423.3 141.169V131.657H413.3V141.169H423.3ZM423.3 131.657C423.3 124.587 424.008 116.839 425.449 108.4L415.591 106.717C414.073 115.612 413.3 123.93 413.3 131.657H423.3ZM425.449 108.4C426.853 100.173 429.366 92.0176 433.007 83.9273L423.887 79.8237C419.918 88.6442 417.146 97.6109 415.591 106.717L425.449 108.4ZM433.025 83.8855C436.632 75.6695 441.564 67.7026 447.858 59.987L440.109 53.6657C433.298 62.0154 427.872 70.7479 423.869 79.8656L433.025 83.8855ZM447.858 59.987C453.984 52.4772 461.965 45.7629 471.897 39.885L466.803 31.2793C456.019 37.6617 447.089 45.1102 440.109 53.6657L447.858 59.987ZM471.897 39.885C481.756 34.0501 493.652 29.3496 507.661 25.8473L505.235 16.1458C490.496 19.8307 477.66 24.8539 466.803 31.2793L471.897 39.885ZM507.71 25.8346C521.785 22.163 538.36 20.2892 557.498 20.2892V10.2892C537.74 10.2892 520.283 12.2202 505.186 16.1585L507.71 25.8346ZM557.498 20.2892H571.449V10.2892H557.498V20.2892ZM636.694 133.876C636.694 128.274 635.764 121.932 634.008 114.907L624.306 117.333C625.932 123.837 626.694 129.332 626.694 133.876H636.694ZM634.048 115.082C632.393 107.28 628.857 100.03 623.562 93.3541L615.727 99.5681C620.156 105.153 622.962 111.009 624.266 117.157L634.048 115.082ZM623.628 93.4392C618.379 86.5197 610.906 80.8885 601.502 76.41L597.202 85.4386C605.554 89.4155 611.61 94.1421 615.661 99.483L623.628 93.4392ZM601.631 76.4741C591.995 71.5384 579.489 69.2656 564.473 69.2656V79.2656C578.628 79.2656 589.375 81.4319 597.072 85.3745L601.631 76.4741ZM564.473 69.2656C549.25 69.2656 536.554 71.5376 526.724 76.4521L531.197 85.3964C539.124 81.4328 550.103 79.2656 564.473 79.2656V69.2656ZM526.811 76.41C517.406 80.8885 509.933 86.5197 504.684 93.4392L512.651 99.483C516.703 94.1421 522.759 89.4155 531.11 85.4386L526.811 76.41ZM504.684 93.4392C499.624 100.109 496.225 107.331 494.581 115.082L504.363 117.157C505.679 110.958 508.41 105.074 512.651 99.483L504.684 93.4392ZM494.588 115.051C493.057 122.049 492.253 128.341 492.253 133.876H502.253C502.253 129.265 502.928 123.719 504.357 117.188L494.588 115.051ZM492.253 133.876V137.998H502.253V133.876H492.253ZM492.253 137.998C492.253 143.523 493.054 150.011 494.575 157.397L504.37 155.381C502.931 148.392 502.253 142.62 502.253 137.998H492.253ZM494.613 157.567C496.486 165.292 500.096 172.576 505.334 179.407L513.27 173.323C508.783 167.471 505.841 161.437 504.332 155.211L494.613 157.567ZM505.334 179.407C510.735 186.452 518.13 192.281 527.315 196.986L531.874 188.085C523.726 183.912 517.592 178.961 513.27 173.323L505.334 179.407ZM527.359 197.008C537.18 201.918 549.765 204.194 564.79 204.194V194.194C550.645 194.194 539.766 192.031 531.831 188.064L527.359 197.008ZM564.79 204.194C579.806 204.194 592.312 201.921 601.948 196.986L597.39 188.085C589.692 192.028 578.945 194.194 564.79 194.194V204.194ZM601.905 197.008C611.312 192.304 618.767 186.45 623.994 179.322L615.93 173.408C611.856 178.963 605.782 183.889 597.433 188.064L601.905 197.008ZM623.93 179.407C629.19 172.546 632.713 165.214 634.365 157.426L624.583 155.351C623.276 161.515 620.458 167.5 615.994 173.323L623.93 179.407ZM634.372 157.397C635.892 150.011 636.694 143.523 636.694 137.998H626.694C626.694 142.62 626.016 148.392 624.577 155.381L634.372 157.397ZM636.694 137.998V133.876H626.694V137.998H636.694ZM836.553 161.145L832.862 157.772L831.553 159.204V161.145H836.553ZM967.824 17.5087V12.5087H965.62L964.133 14.1356L967.824 17.5087ZM1064.22 17.5087H1069.22V12.5087H1064.22V17.5087ZM1064.22 151.95H1059.22V156.95H1064.22V151.95ZM1116.22 151.95H1121.22V146.95H1116.22V151.95ZM1116.22 207.121V212.121H1121.22V207.121H1116.22ZM1064.22 207.121V202.121H1059.22V207.121H1064.22ZM1064.22 255V260H1069.22V255H1064.22ZM989.385 255H984.385V260H989.385V255ZM989.385 207.121H994.385V202.121H989.385V207.121ZM836.553 207.121H831.553V212.121H836.553V207.121ZM989.385 66.3387H994.385V53.3879L985.682 62.9787L989.385 66.3387ZM911.701 151.95L907.998 148.59L900.412 156.95H911.701V151.95ZM989.385 151.95V156.95H994.385V151.95H989.385ZM840.244 164.518L971.514 20.8818L964.133 14.1356L832.862 157.772L840.244 164.518ZM967.824 22.5087H1064.22V12.5087H967.824V22.5087ZM1059.22 17.5087V151.95H1069.22V17.5087H1059.22ZM1064.22 156.95H1116.22V146.95H1064.22V156.95ZM1111.22 151.95V207.121H1121.22V151.95H1111.22ZM1116.22 202.121H1064.22V212.121H1116.22V202.121ZM1059.22 207.121V255H1069.22V207.121H1059.22ZM1064.22 250H989.385V260H1064.22V250ZM994.385 255V207.121H984.385V255H994.385ZM989.385 202.121H836.553V212.121H989.385V202.121ZM841.553 207.121V161.145H831.553V207.121H841.553ZM985.682 62.9787L907.998 148.59L915.404 155.31L993.088 69.6986L985.682 62.9787ZM911.701 156.95H989.385V146.95H911.701V156.95ZM994.385 151.95V66.3387H984.385V151.95H994.385Z" fill="#376BCC" mask="url(#path-1-outside-1_4207_28572)"/>
</g>
<path d="M763.525 156.972H368.316C364.789 156.972 361.906 159.851 361.906 163.374V202.577H769.935V163.374C769.935 159.851 767.052 156.972 763.525 156.972Z" fill="#2E3036"/>
<path d="M383.228 459.235L355.709 450.632C367.096 414.309 362.28 359.708 362.244 359.154L390.962 356.525C391.195 358.993 396.369 417.367 383.246 459.252L383.228 459.235Z" fill="url(#paint0_linear_4207_28572)"/>
<path d="M417.856 507.773L389.209 504.5C392.861 472.523 392.969 451.419 393.255 388.789C393.309 379.417 393.345 369.134 393.416 357.759L422.26 357.92C422.188 369.295 422.153 379.56 422.099 388.932C421.794 452.743 421.705 474.24 417.856 507.791V507.773Z" fill="url(#paint1_linear_4207_28572)"/>
<path d="M429.471 530.325C420.394 487.492 424.476 362.641 424.637 357.348L453.463 358.313C453.427 359.583 449.327 484.934 457.688 524.369L429.471 530.325Z" fill="url(#paint2_linear_4207_28572)"/>
<path d="M484.651 494.968L455.915 492.5C459.138 454.996 455.915 359.279 455.861 358.314L484.687 357.33C484.83 361.336 488.017 455.748 484.633 494.968H484.651Z" fill="url(#paint3_linear_4207_28572)"/>
<path d="M496.182 528.251C484.132 483.021 486.961 362.57 487.086 357.473L515.912 358.189C515.876 359.405 513.029 479.587 524.041 520.846L496.164 528.268L496.182 528.251Z" fill="url(#paint4_linear_4207_28572)"/>
<path d="M521.426 508.149C515.715 467.819 518.221 361.962 518.329 357.473L547.154 358.171C547.136 359.244 544.612 466.138 549.983 504.107L521.426 508.131V508.149Z" fill="url(#paint5_linear_4207_28572)"/>
<path d="M570.859 528.304L543.018 520.793C551.433 489.656 550.591 392.902 549.553 358.26L578.378 357.401C578.539 362.659 582.102 486.705 570.859 528.304Z" fill="url(#paint6_linear_4207_28572)"/>
<path d="M583.553 512.029C576.606 468.714 580.617 361.819 580.796 357.276L609.621 358.385C609.585 359.476 605.539 466.943 612.038 507.469L583.553 512.029Z" fill="url(#paint7_linear_4207_28572)"/>
<path d="M640.847 357.831H612.004V480.803H640.847V357.831Z" fill="url(#paint8_linear_4207_28572)"/>
<path d="M667.093 513.102L639.055 506.378C648.078 468.803 643.298 359.565 643.262 358.474L672.07 357.187C672.285 361.836 677.083 471.593 667.11 513.102H667.093Z" fill="url(#paint9_linear_4207_28572)"/>
<path d="M690.204 533.723C670.331 493.608 673.983 371.154 674.466 357.312L703.292 358.314C702.057 393.885 701.949 492.446 716.058 520.936L690.204 533.705V533.723Z" fill="url(#paint10_linear_4207_28572)"/>
<path d="M714.216 508.917C705.783 466.031 705.676 362.23 705.676 357.831H734.519C734.519 358.886 734.609 463.205 742.505 503.355L714.198 508.917H714.216Z" fill="url(#paint11_linear_4207_28572)"/>
<path d="M746.533 465.208C737.025 431.281 736.918 360.817 736.918 357.831H765.762C765.762 358.528 765.869 427.329 774.302 457.446L746.533 465.208Z" fill="url(#paint12_linear_4207_28572)"/>
<path d="M519.28 189.253C515.753 189.253 511.815 186.57 510.525 183.297L505.065 169.455C503.776 166.182 499.837 163.5 496.31 163.5H395.529C392.002 163.5 388.063 166.182 386.774 169.455L381.313 183.297C380.024 186.57 376.085 189.253 372.558 189.253H368.351C364.824 189.253 361.941 192.132 361.941 195.656V375.983C361.941 379.506 364.824 382.386 368.351 382.386H763.561C767.088 382.386 769.97 379.506 769.97 375.983V195.656C769.97 192.132 767.088 189.253 763.561 189.253H519.316H519.28Z" fill="url(#paint13_linear_4207_28572)"/>
<path d="M409.444 172.387H410.548V180.787H409.444V176.971H405.112V180.787H404.008V172.387H405.112V176.059H409.444V172.387ZM412.023 177.643C412.023 176.571 412.291 175.755 412.827 175.195C413.371 174.635 414.091 174.355 414.987 174.355C415.907 174.355 416.607 174.639 417.087 175.207C417.575 175.775 417.819 176.639 417.819 177.799V177.943H413.079C413.119 178.663 413.315 179.215 413.667 179.599C414.027 179.975 414.495 180.163 415.071 180.163C415.887 180.163 416.443 179.803 416.739 179.083L417.735 179.143C417.567 179.703 417.255 180.143 416.799 180.463C416.343 180.775 415.767 180.931 415.071 180.931C414.135 180.931 413.391 180.655 412.839 180.103C412.295 179.543 412.023 178.723 412.023 177.643ZM413.091 177.247H416.775C416.767 176.591 416.599 176.075 416.271 175.699C415.951 175.315 415.523 175.123 414.987 175.123C414.459 175.123 414.023 175.307 413.679 175.675C413.335 176.035 413.139 176.559 413.091 177.247ZM421.957 180.787V174.499H423.013V177.151H426.265V174.499H427.309V180.787H426.265V178.015H423.013V180.787H421.957ZM428.629 179.143C428.629 178.015 429.453 177.371 431.101 177.211L432.973 177.031V176.431C432.973 176.039 432.845 175.723 432.589 175.483C432.341 175.235 431.973 175.115 431.485 175.123C431.037 175.123 430.669 175.227 430.381 175.435C430.093 175.635 429.937 175.939 429.913 176.347H428.941C428.965 175.667 429.209 175.167 429.673 174.847C430.137 174.519 430.741 174.355 431.485 174.355C432.309 174.355 432.937 174.551 433.369 174.943C433.801 175.335 434.017 175.899 434.017 176.635V180.787H433.057V179.491C432.857 179.947 432.553 180.303 432.145 180.559C431.737 180.807 431.241 180.931 430.657 180.931C429.985 180.931 429.477 180.767 429.133 180.439C428.797 180.103 428.629 179.671 428.629 179.143ZM429.673 179.107C429.673 179.419 429.781 179.675 429.997 179.875C430.213 180.075 430.537 180.175 430.969 180.175C431.585 180.175 432.073 179.983 432.433 179.599C432.793 179.207 432.973 178.703 432.973 178.087V177.703L431.221 177.883C430.189 177.979 429.673 178.387 429.673 179.107ZM439.605 173.227C439.325 173.515 438.913 173.659 438.369 173.659C437.825 173.659 437.413 173.515 437.133 173.227C436.853 172.931 436.705 172.539 436.689 172.051H437.397C437.421 172.323 437.509 172.555 437.661 172.747C437.813 172.939 438.049 173.035 438.369 173.035C438.953 173.035 439.281 172.707 439.353 172.051H440.061C440.045 172.539 439.893 172.931 439.605 173.227ZM439.557 174.499H441.129V180.787H440.121V175.255L437.193 180.787H435.609V174.499H436.629V180.031L439.557 174.499ZM447.665 179.923H448.397V182.479H447.401V180.787H443.093V182.479H442.097V179.923H442.565C442.661 179.715 442.741 179.467 442.805 179.179C442.877 178.883 442.937 178.427 442.985 177.811C443.041 177.195 443.077 176.743 443.093 176.455C443.117 176.159 443.157 175.507 443.213 174.499H447.665V179.923ZM446.609 179.923V175.363H444.125C443.981 177.419 443.865 178.695 443.777 179.191C443.721 179.479 443.657 179.723 443.585 179.923H446.609ZM449.031 177.643C449.031 176.571 449.299 175.755 449.835 175.195C450.379 174.635 451.099 174.355 451.995 174.355C452.915 174.355 453.615 174.639 454.095 175.207C454.583 175.775 454.827 176.639 454.827 177.799V177.943H450.087C450.127 178.663 450.323 179.215 450.675 179.599C451.035 179.975 451.503 180.163 452.079 180.163C452.895 180.163 453.451 179.803 453.747 179.083L454.743 179.143C454.575 179.703 454.263 180.143 453.807 180.463C453.351 180.775 452.775 180.931 452.079 180.931C451.143 180.931 450.399 180.655 449.847 180.103C449.303 179.543 449.031 178.723 449.031 177.643ZM450.099 177.247H453.783C453.775 176.591 453.607 176.075 453.279 175.699C452.959 175.315 452.531 175.123 451.995 175.123C451.467 175.123 451.031 175.307 450.687 175.675C450.343 176.035 450.147 176.559 450.099 177.247ZM456.094 180.787V174.499H457.15V177.151H460.402V174.499H461.446V180.787H460.402V178.015H457.15V180.787H456.094ZM463.545 180.055C463.009 179.463 462.741 178.659 462.741 177.643C462.741 176.627 463.009 175.827 463.545 175.243C464.089 174.651 464.813 174.355 465.717 174.355C466.621 174.355 467.341 174.651 467.877 175.243C468.413 175.827 468.681 176.627 468.681 177.643C468.681 178.659 468.413 179.463 467.877 180.055C467.341 180.639 466.621 180.931 465.717 180.931C464.813 180.931 464.089 180.639 463.545 180.055ZM464.301 175.855C463.957 176.303 463.785 176.899 463.785 177.643C463.785 178.387 463.957 178.983 464.301 179.431C464.653 179.879 465.125 180.103 465.717 180.103C466.301 180.103 466.765 179.879 467.109 179.431C467.461 178.983 467.637 178.387 467.637 177.643C467.637 176.899 467.461 176.303 467.109 175.855C466.765 175.407 466.301 175.183 465.717 175.183C465.125 175.183 464.653 175.407 464.301 175.855Z" fill="#5E5E5E"/>
<path d="M491.457 179.703C491.099 180.061 490.508 180.061 490.132 179.703C489.774 179.345 489.774 178.755 490.132 178.379L497.687 170.832C498.045 170.475 498.636 170.475 499.012 170.832C499.37 171.19 499.37 171.78 499.012 172.156L491.457 179.703Z" fill="#5E5E5E"/>
<path d="M490.149 172.156C489.791 171.798 489.791 171.208 490.149 170.832C490.508 170.475 491.098 170.475 491.474 170.832L499.03 178.379C499.388 178.737 499.388 179.327 499.03 179.703C498.672 180.061 498.081 180.061 497.705 179.703L490.149 172.156Z" fill="#5E5E5E"/>
<path d="M750.402 179.703C750.044 180.061 749.453 180.061 749.077 179.703C748.719 179.345 748.719 178.755 749.077 178.379L756.633 170.832C756.991 170.475 757.582 170.475 757.958 170.832C758.316 171.19 758.316 171.78 757.958 172.156L750.402 179.703Z" fill="white"/>
<path d="M749.077 172.156C748.719 171.798 748.719 171.208 749.077 170.832C749.435 170.475 750.026 170.475 750.402 170.832L757.958 178.379C758.334 178.737 758.316 179.327 757.958 179.703C757.6 180.061 757.009 180.061 756.633 179.703L749.077 172.156Z" fill="white"/>
<path d="M401.421 205.259H730.422C731.621 205.259 732.606 206.243 732.606 207.441V229.206C732.606 230.405 731.621 231.388 730.422 231.388H401.421C400.221 231.388 399.236 230.405 399.236 229.206V207.441C399.236 206.243 400.221 205.259 401.421 205.259Z" fill="#E0F1FC"/>
<path d="M741.249 171.351H733.389V179.202H741.249V171.351Z" stroke="white" stroke-linecap="round" stroke-linejoin="round"/>
<path d="M725.067 179.202H717.189" stroke="white" stroke-linecap="round" stroke-linejoin="round"/>
<path d="M493.857 265.601C491.977 263.723 491.977 260.683 493.857 258.805C495.737 256.927 498.781 256.927 500.661 258.805L526.389 284.487C528.269 286.365 528.269 289.405 526.389 291.301C524.509 293.179 521.465 293.179 519.585 291.301L493.875 265.619L493.857 265.601Z" fill="#2E3036"/>
<path d="M526.39 265.601C528.27 263.723 528.27 260.683 526.39 258.805C524.492 256.927 521.466 256.927 519.569 258.805L493.858 284.487C491.978 286.365 491.996 289.405 493.858 291.301C495.738 293.179 498.782 293.179 500.662 291.301L526.39 265.619V265.601Z" fill="#2E3036"/>
<path d="M605.47 265.601C603.591 263.723 603.591 260.683 605.47 258.805C607.368 256.927 610.394 256.927 612.292 258.805L638.002 284.487C639.882 286.365 639.864 289.405 638.002 291.301C636.122 293.179 633.079 293.179 631.199 291.301L605.47 265.619V265.601Z" fill="#2E3036"/>
<path d="M638.002 265.601C639.882 263.723 639.882 260.683 638.002 258.805C636.122 256.927 633.079 256.927 631.199 258.805L605.47 284.487C603.591 286.365 603.591 289.405 605.47 291.301C607.35 293.179 610.394 293.179 612.274 291.301L637.984 265.619L638.002 265.601Z" fill="#2E3036"/>
<path d="M584.111 316.464C586.779 316.464 588.927 314.318 588.927 311.653C588.927 308.988 586.779 306.842 584.129 306.842H547.765C545.098 306.842 542.949 309.006 542.949 311.671C542.949 314.318 545.098 316.464 547.765 316.482H584.129L584.111 316.464Z" fill="#2E3036"/>
<path d="M759.409 211.376C759.409 212.109 758.818 212.717 758.066 212.717H742.704C741.97 212.717 741.361 212.127 741.361 211.376C741.361 210.643 741.952 210.052 742.704 210.052H758.066C758.8 210.052 759.409 210.643 759.409 211.376Z" fill="#8F8F8F"/>
<path d="M759.409 218.315C759.409 219.049 758.818 219.657 758.066 219.657H742.704C741.97 219.657 741.361 219.066 741.361 218.315C741.361 217.582 741.952 216.974 742.704 216.974H758.066C758.8 216.974 759.409 217.564 759.409 218.315Z" fill="#8F8F8F"/>
<path d="M759.409 225.254C759.409 225.988 758.818 226.596 758.066 226.596H742.704C741.97 226.596 741.361 226.006 741.361 225.254C741.361 224.521 741.952 223.931 742.704 223.931H758.066C758.8 223.931 759.409 224.521 759.409 225.254Z" fill="#8F8F8F"/>
<path d="M394.311 215.722C393.882 215.346 393.219 215.364 392.843 215.793L391.841 216.884C391.447 212.27 387.562 208.622 382.835 208.622C377.84 208.622 373.775 212.681 373.775 217.671C373.775 222.661 377.84 226.721 382.835 226.721C383.408 226.721 383.873 226.256 383.873 225.683C383.873 225.111 383.408 224.646 382.835 224.646C378.985 224.646 375.87 221.516 375.87 217.689C375.87 213.862 379.003 210.732 382.835 210.732C386.434 210.732 389.388 213.486 389.728 217.009L388.636 216.026C388.206 215.632 387.544 215.668 387.168 216.097C386.774 216.526 386.81 217.17 387.239 217.564L390.211 220.264C390.408 220.443 390.659 220.533 390.91 220.533C390.91 220.533 390.945 220.533 390.963 220.533C391.232 220.533 391.5 220.389 391.68 220.193L394.383 217.224C394.777 216.795 394.741 216.133 394.311 215.757V215.722Z" fill="#8F8F8F"/>
<path opacity="0.5" d="M765.908 570.922C765.514 573.176 763.384 575 761.128 575H367.028C364.79 575 362.642 573.176 362.248 570.922L328.911 378.451C328.374 375.339 330.092 372.8 332.742 372.8H795.431C798.081 372.8 799.8 375.339 799.263 378.451L765.926 570.922H765.908Z" fill="white"/>
<g style="mix-blend-mode:multiply">
<path d="M795.431 372.8H332.742C330.092 372.8 328.374 375.339 328.911 378.451L334.873 412.896H793.283L799.245 378.451C799.782 375.339 798.063 372.8 795.413 372.8H795.431Z" fill="#D9D9D9"/>
</g>
<path d="M803.202 332.792H326.798C324.148 332.792 322 334.938 322 337.585V387.214C322 389.862 324.148 392.007 326.798 392.007H803.202C805.852 392.007 808 389.862 808 387.214V337.585C808 334.938 805.852 332.792 803.202 332.792Z" fill="#ED9C62"/>
<path d="M342.302 381.867C342.302 384.085 340.512 385.873 338.292 385.873C336.072 385.873 334.281 384.085 334.281 381.867V342.933C334.281 340.715 336.072 338.927 338.292 338.927C340.512 338.927 342.302 340.715 342.302 342.933V381.867Z" fill="white" fill-opacity="0.1"/>
<path d="M368.98 381.867C368.98 384.085 367.19 385.873 364.97 385.873C362.749 385.873 360.959 384.085 360.959 381.867V342.933C360.959 340.715 362.749 338.927 364.97 338.927C367.19 338.927 368.98 340.715 368.98 342.933V381.867Z" fill="white" fill-opacity="0.1"/>
<path d="M395.656 381.867C395.656 384.085 393.865 385.873 391.645 385.873C389.425 385.873 387.635 384.085 387.635 381.867V342.933C387.635 340.715 389.425 338.927 391.645 338.927C393.865 338.927 395.656 340.715 395.656 342.933V381.867Z" fill="white" fill-opacity="0.1"/>
<path d="M422.312 381.867C422.312 384.085 420.522 385.873 418.302 385.873C416.081 385.873 414.291 384.085 414.291 381.867V342.933C414.291 340.715 416.081 338.927 418.302 338.927C420.522 338.927 422.312 340.715 422.312 342.933V381.867Z" fill="white" fill-opacity="0.1"/>
<path d="M448.992 381.867C448.992 384.085 447.201 385.873 444.981 385.873C442.761 385.873 440.971 384.085 440.971 381.867V342.933C440.971 340.715 442.761 338.927 444.981 338.927C447.201 338.927 448.992 340.715 448.992 342.933V381.867Z" fill="white" fill-opacity="0.1"/>
<path d="M475.67 381.867C475.67 384.085 473.879 385.873 471.659 385.873C469.439 385.873 467.648 384.085 467.648 381.867V342.933C467.648 340.715 469.439 338.927 471.659 338.927C473.879 338.927 475.67 340.715 475.67 342.933V381.867Z" fill="white" fill-opacity="0.1"/>
<path d="M502.328 381.867C502.328 384.085 500.537 385.873 498.317 385.873C496.097 385.873 494.307 384.085 494.307 381.867V342.933C494.307 340.715 496.097 338.927 498.317 338.927C500.537 338.927 502.328 340.715 502.328 342.933V381.867Z" fill="white" fill-opacity="0.1"/>
<path d="M529.002 381.867C529.002 384.085 527.211 385.873 524.991 385.873C522.771 385.873 520.98 384.085 520.98 381.867V342.933C520.98 340.715 522.771 338.927 524.991 338.927C527.211 338.927 529.002 340.715 529.002 342.933V381.867Z" fill="white" fill-opacity="0.1"/>
<path d="M555.679 381.867C555.679 384.085 553.889 385.873 551.669 385.873C549.449 385.873 547.658 384.085 547.658 381.867V342.933C547.658 340.715 549.449 338.927 551.669 338.927C553.889 338.927 555.679 340.715 555.679 342.933V381.867Z" fill="white" fill-opacity="0.1"/>
<path d="M582.359 381.867C582.359 384.085 580.569 385.873 578.348 385.873C576.128 385.873 574.338 384.085 574.338 381.867V342.933C574.338 340.715 576.128 338.927 578.348 338.927C580.569 338.927 582.359 340.715 582.359 342.933V381.867Z" fill="white" fill-opacity="0.1"/>
<path d="M609.017 381.867C609.017 384.085 607.227 385.873 605.007 385.873C602.786 385.873 600.996 384.085 600.996 381.867V342.933C600.996 340.715 602.786 338.927 605.007 338.927C607.227 338.927 609.017 340.715 609.017 342.933V381.867Z" fill="white" fill-opacity="0.1"/>
<path d="M635.691 381.867C635.691 384.085 633.901 385.873 631.68 385.873C629.46 385.873 627.67 384.085 627.67 381.867V342.933C627.67 340.715 629.46 338.927 631.68 338.927C633.901 338.927 635.691 340.715 635.691 342.933V381.867Z" fill="white" fill-opacity="0.1"/>
<path d="M662.369 381.867C662.369 384.085 660.578 385.873 658.358 385.873C656.138 385.873 654.348 384.085 654.348 381.867V342.933C654.348 340.715 656.138 338.927 658.358 338.927C660.578 338.927 662.369 340.715 662.369 342.933V381.867Z" fill="white" fill-opacity="0.1"/>
<path d="M689.046 381.867C689.046 384.085 687.256 385.873 685.036 385.873C682.816 385.873 681.025 384.085 681.025 381.867V342.933C681.025 340.715 682.816 338.927 685.036 338.927C687.256 338.927 689.046 340.715 689.046 342.933V381.867Z" fill="white" fill-opacity="0.1"/>
<path d="M715.705 381.867C715.705 384.085 713.914 385.873 711.694 385.873C709.474 385.873 707.684 384.085 707.684 381.867V342.933C707.684 340.715 709.474 338.927 711.694 338.927C713.914 338.927 715.705 340.715 715.705 342.933V381.867Z" fill="white" fill-opacity="0.1"/>
<path d="M742.384 381.867C742.384 384.085 740.594 385.873 738.374 385.873C736.154 385.873 734.363 384.085 734.363 381.867V342.933C734.363 340.715 736.154 338.927 738.374 338.927C740.594 338.927 742.384 340.715 742.384 342.933V381.867Z" fill="white" fill-opacity="0.1"/>
<path d="M769.058 381.867C769.058 384.085 767.268 385.873 765.048 385.873C762.828 385.873 761.037 384.085 761.037 381.867V342.933C761.037 340.715 762.828 338.927 765.048 338.927C767.268 338.927 769.058 340.715 769.058 342.933V381.867Z" fill="white" fill-opacity="0.1"/>
<path d="M795.734 381.867C795.734 384.085 793.944 385.873 791.723 385.873C789.503 385.873 787.713 384.085 787.713 381.867V342.933C787.713 340.715 789.503 338.927 791.723 338.927C793.944 338.927 795.734 340.715 795.734 342.933V381.867Z" fill="white" fill-opacity="0.1"/>
<defs>
<linearGradient id="paint0_linear_4207_28572" x1="373.935" y1="528.554" x2="373.935" y2="394.869" gradientUnits="userSpaceOnUse">
<stop stop-color="white"/>
<stop offset="1" stop-color="#BBDBF0"/>
</linearGradient>
<linearGradient id="paint1_linear_4207_28572" x1="405.717" y1="528.537" x2="405.717" y2="394.869" gradientUnits="userSpaceOnUse">
<stop stop-color="white"/>
<stop offset="1" stop-color="#BBDBF0"/>
</linearGradient>
<linearGradient id="paint2_linear_4207_28572" x1="440.626" y1="528.554" x2="440.626" y2="394.869" gradientUnits="userSpaceOnUse">
<stop stop-color="white"/>
<stop offset="1" stop-color="#BBDBF0"/>
</linearGradient>
<linearGradient id="paint3_linear_4207_28572" x1="471.026" y1="528.537" x2="471.026" y2="394.869" gradientUnits="userSpaceOnUse">
<stop stop-color="white"/>
<stop offset="1" stop-color="#BBDBF0"/>
</linearGradient>
<linearGradient id="paint4_linear_4207_28572" x1="505.384" y1="528.537" x2="505.384" y2="394.869" gradientUnits="userSpaceOnUse">
<stop stop-color="white"/>
<stop offset="1" stop-color="#BBDBF0"/>
</linearGradient>
<linearGradient id="paint5_linear_4207_28572" x1="533.834" y1="528.555" x2="533.834" y2="394.869" gradientUnits="userSpaceOnUse">
<stop stop-color="white"/>
<stop offset="1" stop-color="#BBDBF0"/>
</linearGradient>
<linearGradient id="paint6_linear_4207_28572" x1="561.029" y1="528.536" x2="561.029" y2="394.869" gradientUnits="userSpaceOnUse">
<stop stop-color="white"/>
<stop offset="1" stop-color="#BBDBF0"/>
</linearGradient>
<linearGradient id="paint7_linear_4207_28572" x1="595.745" y1="528.555" x2="595.745" y2="394.869" gradientUnits="userSpaceOnUse">
<stop stop-color="white"/>
<stop offset="1" stop-color="#BBDBF0"/>
</linearGradient>
<linearGradient id="paint8_linear_4207_28572" x1="626.417" y1="528.536" x2="626.417" y2="394.869" gradientUnits="userSpaceOnUse">
<stop stop-color="white"/>
<stop offset="1" stop-color="#BBDBF0"/>
</linearGradient>
<linearGradient id="paint9_linear_4207_28572" x1="656.207" y1="528.554" x2="656.207" y2="394.869" gradientUnits="userSpaceOnUse">
<stop stop-color="white"/>
<stop offset="1" stop-color="#BBDBF0"/>
</linearGradient>
<linearGradient id="paint10_linear_4207_28572" x1="694.985" y1="528.536" x2="694.985" y2="394.869" gradientUnits="userSpaceOnUse">
<stop stop-color="white"/>
<stop offset="1" stop-color="#BBDBF0"/>
</linearGradient>
<linearGradient id="paint11_linear_4207_28572" x1="724.099" y1="528.536" x2="724.099" y2="394.869" gradientUnits="userSpaceOnUse">
<stop stop-color="white"/>
<stop offset="1" stop-color="#BBDBF0"/>
</linearGradient>
<linearGradient id="paint12_linear_4207_28572" x1="755.61" y1="528.554" x2="755.61" y2="394.869" gradientUnits="userSpaceOnUse">
<stop stop-color="white"/>
<stop offset="1" stop-color="#BBDBF0"/>
</linearGradient>
<linearGradient id="paint13_linear_4207_28572" x1="565.938" y1="341.288" x2="565.938" y2="378.344" gradientUnits="userSpaceOnUse">
<stop stop-color="#F9F9F9"/>
<stop offset="1" stop-color="#BBDBF0"/>
</linearGradient>
</defs>
</svg>
