<svg width="30" height="31" viewBox="0 0 30 31" fill="none" xmlns="http://www.w3.org/2000/svg">
<path d="M23.75 18C25.6125 16.175 27.5 13.9875 27.5 11.125C27.5 9.30164 26.7757 7.55295 25.4864 6.26364C24.197 4.97433 22.4484 4.25 20.625 4.25C18.425 4.25 16.875 4.875 15 6.75C13.125 4.875 11.575 4.25 9.375 4.25C7.55164 4.25 5.80295 4.97433 4.51364 6.26364C3.22433 7.55295 2.5 9.30164 2.5 11.125C2.5 14 4.375 16.1875 6.25 18L15 26.75L23.75 18Z" stroke="#376BCC" stroke-width="2" stroke-linecap="round" stroke-linejoin="round"/>
<path d="M15 6.75L11.3 10.45C11.046 10.7021 10.8445 11.002 10.7069 11.3324C10.5694 11.6628 10.4985 12.0171 10.4985 12.375C10.4985 12.7329 10.5694 13.0872 10.7069 13.4176C10.8445 13.748 11.046 14.0479 11.3 14.3C12.325 15.325 13.9625 15.3625 15.05 14.3875L17.6375 12.0125C18.2861 11.424 19.1305 11.098 20.0063 11.098C20.882 11.098 21.7264 11.424 22.375 12.0125L26.075 15.3375" stroke="#376BCC" stroke-width="2" stroke-linecap="round" stroke-linejoin="round"/>
<path d="M22.5 19.25L20 16.75" stroke="#376BCC" stroke-width="2" stroke-linecap="round" stroke-linejoin="round"/>
<path d="M18.75 23L16.25 20.5" stroke="#376BCC" stroke-width="2" stroke-linecap="round" stroke-linejoin="round"/>
</svg>
