<svg width="42" height="42" viewBox="0 0 42 42" fill="none" xmlns="http://www.w3.org/2000/svg">
<g clip-path="url(#clip0_1_74464)">
<path d="M8.74995 12.6001C8.74995 11.579 9.15558 10.5997 9.87759 9.87771C10.5996 9.1557 11.5789 8.75007 12.6 8.75007H14.35C15.3665 8.74949 16.3416 8.34688 17.0625 7.63007L18.2875 6.40507C18.6452 6.04527 19.0706 5.75975 19.5391 5.56491C20.0076 5.37008 20.51 5.26978 21.0175 5.26978C21.5249 5.26978 22.0273 5.37008 22.4958 5.56491C22.9643 5.75975 23.3897 6.04527 23.7475 6.40507L24.9725 7.63007C25.6935 8.34757 26.67 8.75007 27.685 8.75007H29.435C30.456 8.75007 31.4353 9.1557 32.1573 9.87771C32.8793 10.5997 33.285 11.579 33.285 12.6001V14.3501C33.285 15.3651 33.6875 16.3416 34.405 17.0626L35.63 18.2876C35.9898 18.6454 36.2753 19.0707 36.4701 19.5392C36.6649 20.0078 36.7653 20.5102 36.7653 21.0176C36.7653 21.525 36.6649 22.0274 36.4701 22.4959C36.2753 22.9644 35.9898 23.3898 35.63 23.7476L34.405 24.9726C33.6881 25.6934 33.2855 26.6685 33.285 27.6851V29.4351C33.285 30.4562 32.8793 31.4354 32.1573 32.1574C31.4353 32.8795 30.456 33.2851 29.435 33.2851H27.685C26.6684 33.2857 25.6933 33.6883 24.9725 34.4051L23.7475 35.6301C23.3897 35.9899 22.9643 36.2754 22.4958 36.4702C22.0273 36.6651 21.5249 36.7654 21.0175 36.7654C20.51 36.7654 20.0076 36.6651 19.5391 36.4702C19.0706 36.2754 18.6452 35.9899 18.2875 35.6301L17.0625 34.4051C16.3416 33.6883 15.3665 33.2857 14.35 33.2851H12.6C11.5789 33.2851 10.5996 32.8795 9.87759 32.1574C9.15558 31.4354 8.74995 30.4562 8.74995 29.4351V27.6851C8.74937 26.6685 8.34676 25.6934 7.62995 24.9726L6.40495 23.7476C6.04515 23.3898 5.75963 22.9644 5.56479 22.4959C5.36995 22.0274 5.26965 21.525 5.26965 21.0176C5.26965 20.5102 5.36995 20.0078 5.56479 19.5392C5.75963 19.0707 6.04515 18.6454 6.40495 18.2876L7.62995 17.0626C8.34676 16.3417 8.74937 15.3666 8.74995 14.3501V12.6001Z" stroke="#376BCC" stroke-width="1.5" stroke-linecap="round" stroke-linejoin="round"/>
<path d="M15.75 21L19.25 24.5L26.25 17.5" stroke="#376BCC" stroke-width="1.5" stroke-linecap="round" stroke-linejoin="round"/>
</g>
<defs>
<clipPath id="clip0_1_74464">
<rect width="42" height="42" fill="white"/>
</clipPath>
</defs>
</svg>
