<svg width="43" height="42" viewBox="0 0 43 42" fill="none" xmlns="http://www.w3.org/2000/svg">
<g clip-path="url(#clip0_1_74472)">
<path d="M37.4166 24.5L32.1666 19.25H19.9166C19.4525 19.25 19.0074 19.0656 18.6792 18.7374C18.351 18.4092 18.1666 17.9641 18.1666 17.5V7C18.1666 6.53587 18.351 6.09075 18.6792 5.76256C19.0074 5.43437 19.4525 5.25 19.9166 5.25H35.6666C36.1308 5.25 36.5759 5.43437 36.9041 5.76256C37.2323 6.09075 37.4166 6.53587 37.4166 7V24.5Z" stroke="#376BCC" stroke-width="1.5" stroke-linecap="round" stroke-linejoin="round"/>
<path d="M25.1666 26.25V29.75C25.1666 30.2141 24.9823 30.6592 24.6541 30.9874C24.3259 31.3156 23.8808 31.5 23.4166 31.5H11.1666L5.91663 36.75V19.25C5.91663 18.7859 6.101 18.3408 6.42919 18.0126C6.75738 17.6844 7.2025 17.5 7.66663 17.5H11.1666" stroke="#376BCC" stroke-width="1.5" stroke-linecap="round" stroke-linejoin="round"/>
</g>
<defs>
<clipPath id="clip0_1_74472">
<rect width="42" height="42" fill="white" transform="translate(0.666626)"/>
</clipPath>
</defs>
</svg>
