<svg width="43" height="42" viewBox="0 0 43 42" fill="none" xmlns="http://www.w3.org/2000/svg">
<g clip-path="url(#clip0_1_74480)">
<path d="M9.08337 29.75C9.08337 30.6783 9.45212 31.5685 10.1085 32.2249C10.7649 32.8813 11.6551 33.25 12.5834 33.25C13.5116 33.25 14.4019 32.8813 15.0582 32.2249C15.7146 31.5685 16.0834 30.6783 16.0834 29.75C16.0834 28.8217 15.7146 27.9315 15.0582 27.2751C14.4019 26.6187 13.5116 26.25 12.5834 26.25C11.6551 26.25 10.7649 26.6187 10.1085 27.2751C9.45212 27.9315 9.08337 28.8217 9.08337 29.75Z" stroke="#376BCC" stroke-width="1.5" stroke-linecap="round" stroke-linejoin="round"/>
<path d="M26.5834 29.75C26.5834 30.6783 26.9521 31.5685 27.6085 32.2249C28.2649 32.8813 29.1551 33.25 30.0834 33.25C31.0116 33.25 31.9019 32.8813 32.5582 32.2249C33.2146 31.5685 33.5834 30.6783 33.5834 29.75C33.5834 28.8217 33.2146 27.9315 32.5582 27.2751C31.9019 26.6187 31.0116 26.25 30.0834 26.25C29.1551 26.25 28.2649 26.6187 27.6085 27.2751C26.9521 27.9315 26.5834 28.8217 26.5834 29.75Z" stroke="#376BCC" stroke-width="1.5" stroke-linecap="round" stroke-linejoin="round"/>
<path d="M9.08337 29.75H5.58337V22.75M3.83337 8.75H23.0834V29.75M16.0834 29.75H26.5834M33.5834 29.75H37.0834V19.25M37.0834 19.25H23.0834M37.0834 19.25L31.8334 10.5H23.0834" stroke="#376BCC" stroke-width="1.5" stroke-linecap="round" stroke-linejoin="round"/>
<path d="M5.58337 15.75H12.5834" stroke="#376BCC" stroke-width="1.5" stroke-linecap="round" stroke-linejoin="round"/>
</g>
<defs>
<clipPath id="clip0_1_74480">
<rect width="42" height="42" fill="white" transform="translate(0.333374)"/>
</clipPath>
</defs>
</svg>
