<svg width="31" height="31" viewBox="0 0 31 31" fill="none" xmlns="http://www.w3.org/2000/svg">
<path d="M10.5417 25.5001C12.9275 26.7239 15.6719 27.0554 18.2804 26.4348C20.8889 25.8142 23.1899 24.2823 24.7689 22.1153C26.3479 19.9482 27.101 17.2884 26.8925 14.6153C26.6839 11.9421 25.5275 9.43127 23.6315 7.5353C21.7355 5.63933 19.2247 4.48287 16.5515 4.27433C13.8784 4.06579 11.2186 4.81887 9.05152 6.39787C6.88446 7.97687 5.35261 10.2779 4.73203 12.8864C4.11144 15.495 4.44293 18.2393 5.66675 20.6251L3.16675 28.0001L10.5417 25.5001Z" stroke="#376BCC" stroke-width="2" stroke-linecap="round" stroke-linejoin="round"/>
<path d="M20.4168 12C19.8326 11.4274 19.0473 11.1067 18.2293 11.1067C17.4113 11.1067 16.6259 11.4274 16.0418 12L15.6668 12.5L15.2293 12.125C14.9427 11.8148 14.5944 11.5681 14.2067 11.4007C13.8191 11.2332 13.4006 11.1489 12.9784 11.1529C12.5561 11.157 12.1394 11.2494 11.755 11.4242C11.3706 11.5991 11.0271 11.8525 10.7465 12.1681C10.466 12.4837 10.2546 12.8545 10.126 13.2568C9.99746 13.659 9.95454 14.0837 10 14.5035C10.0455 14.9234 10.1784 15.329 10.3901 15.6944C10.6018 16.0598 10.8877 16.3768 11.2293 16.625L15.7293 21L20.2293 16.625C21.7293 15.125 21.6043 13.25 20.4793 12" stroke="#376BCC" stroke-width="2" stroke-linecap="round" stroke-linejoin="round"/>
</svg>
