<svg width="134" height="56" viewBox="0 0 134 56" fill="none" xmlns="http://www.w3.org/2000/svg">
<g clip-path="url(#clip0_1_74340)">
<mask id="mask0_1_74340" style="mask-type:luminance" maskUnits="userSpaceOnUse" x="0" y="0" width="134" height="56">
<path d="M133.333 0H0.333313V56H133.333V0Z" fill="white"/>
</mask>
<g mask="url(#mask0_1_74340)">
<path fill-rule="evenodd" clip-rule="evenodd" d="M12.7145 26.3354C12.8311 26.6191 13.1107 27.3047 13.1873 27.4928C13.2493 27.6601 13.2307 27.8481 13.1372 27.9988C12.9459 28.3222 9.78313 33.7501 9.78313 33.7501C9.78313 33.7501 16.0248 29.9751 17.0141 29.3737C17.3948 29.1455 17.6662 28.7622 17.7624 28.3169C17.8586 27.8715 17.7709 27.4047 17.5205 27.0295C17.1789 26.5037 11.7644 18.1462 11.5239 17.7736C11.4316 17.6146 11.4299 17.416 11.5196 17.2553C11.6092 17.0946 11.7759 16.9972 11.9548 17.0011H13.2037C13.6501 16.9857 14.0871 17.137 14.4352 17.4275C17.7783 20.1878 25.0266 26.1756 27.0671 27.8664C27.6968 28.3876 27.8333 29.3244 27.3804 30.0158C26.7331 30.9867 25.7804 31.6934 24.6859 32.0149C23.0608 32.6333 7.41289 38.5662 4.82768 39.5657C4.06537 39.8596 3.25783 40.0067 2.44469 39.9998H0.781333C0.606554 40.0027 0.446611 39.8982 0.373609 39.7333C0.300607 39.5684 0.328334 39.3743 0.44429 39.2385C1.12111 38.4745 11.6578 26.7184 12.0951 26.2314C12.18 26.1336 12.3069 26.0873 12.4321 26.1083C12.5572 26.1293 12.6636 26.2148 12.7145 26.3354ZM75.2443 28.9709C74.9616 28.6935 74.5801 28.5516 74.1921 28.5794H65.3935L66.3518 26.6739H77.0015C77.7846 26.6931 78.5266 26.3108 78.9855 25.6517L79.3999 24.829C79.57 24.5556 79.5352 24.1965 79.3161 23.9637C79.0267 23.6886 78.6421 23.547 78.2503 23.5713H63.7666C62.9869 23.5491 62.2471 23.9282 61.7899 24.5841L56.317 35.4409C56.1429 35.7175 56.175 36.082 56.3944 36.3213C56.6808 36.5949 57.0615 36.7368 57.4502 36.7146H71.8474C72.632 36.7367 73.3757 36.352 73.8314 35.6886L74.2678 34.847C74.421 34.5734 74.384 34.228 74.1767 33.996C73.8933 33.728 73.517 33.5914 73.1346 33.6177H62.8502L63.8358 31.6669H72.9451C73.7257 31.6837 74.4651 31.3043 74.9264 30.6503L75.349 29.8371C75.5076 29.5566 75.465 29.2006 75.2452 28.969L75.2443 28.9709ZM133.294 23.9827C133.431 24.2758 133.203 24.6333 132.673 24.9614L124.144 30.1444L127.556 35.4399C127.734 35.6904 127.712 36.0381 127.503 36.2617C127.191 36.5784 126.765 36.7439 126.33 36.7175L123.728 36.8641C122.897 36.9525 122.083 36.5749 121.592 35.873L119.693 32.8763L114.858 35.8172C114 36.3819 113.011 36.6931 111.996 36.7175H109C108.739 36.8094 108.45 36.7384 108.256 36.5348C108.063 36.3312 107.998 36.0306 108.089 35.7606C108.181 35.4906 108.413 35.2985 108.687 35.2659L117.696 29.7917L114.494 24.8507C114.319 24.6045 114.337 24.2639 114.538 24.0394C114.849 23.7135 115.28 23.5414 115.722 23.5666H118.418C119.252 23.489 120.061 23.8827 120.536 24.5973L122.138 27.0843L126.783 24.2597C127.705 23.7761 128.729 23.5379 129.761 23.5666H132.397C132.751 23.4924 133.111 23.6581 133.295 23.9798L133.294 23.9827ZM111.923 23.9656C112.141 24.1973 112.178 24.553 112.015 24.8281L106.511 35.6839C106.044 36.3531 105.288 36.7387 104.492 36.7137H102.155C101.761 36.7377 101.375 36.5943 101.086 36.3165C100.87 36.0943 100.832 35.7462 100.995 35.4796L106.479 24.5973C106.938 23.9374 107.679 23.5524 108.464 23.5666H110.843C111.241 23.5409 111.632 23.6851 111.925 23.9656H111.923ZM103.985 23.9524C104.21 24.193 104.248 24.5627 104.076 24.847L98.6169 35.6697C98.1643 36.3431 97.4152 36.7342 96.6247 36.7099H94.3628C93.9731 36.7382 93.5892 36.5995 93.3007 36.326C93.0836 36.0824 93.0497 35.7184 93.2178 35.4361L96.5937 28.6768L89.4356 35.8021C88.7969 36.3546 88.0008 36.6736 87.1701 36.7099H86.2683C85.5543 36.8199 84.8792 36.3401 84.7197 35.6092L84.6469 28.6768L81.1416 35.6291C80.6909 36.3071 79.9379 36.6994 79.1449 36.6693H76.883C76.4967 36.7002 76.1153 36.5632 75.83 36.291C75.6104 36.05 75.5752 35.6855 75.7444 35.404L81.2099 24.6115C81.6621 23.9451 82.4015 23.5528 83.1867 23.5628H87.3104C87.7095 23.5506 88.1013 23.676 88.4245 23.9193C88.6759 24.1012 88.8235 24.4012 88.818 24.7193L88.8353 31.2215L95.5762 24.5198C96.2028 23.932 97.0094 23.593 97.8535 23.5628H102.956C103.335 23.5402 103.706 23.6797 103.983 23.9486L103.985 23.9524ZM57.35 25.4739C58.3347 26.5718 58.2882 28.1425 57.2079 30.2513C54.9442 34.7156 50.6401 36.7099 43.2315 36.7099H35.2991C34.9024 36.7341 34.5132 36.5909 34.2197 36.3127C34.0117 36.0861 33.9769 35.7424 34.135 35.4759L38.0255 27.7737H43.6514L40.8021 33.3577H44.4567C49.1407 33.3577 50.5025 32.4045 51.7113 30.0215C52.3818 28.708 52.4856 27.9136 52.0648 27.4427C51.5993 26.916 50.3668 26.6654 48.1979 26.6654H46.7522C46.7522 26.6654 39.4202 26.6654 39.1824 26.6654C38.6803 26.6772 38.1779 26.6554 37.6785 26.6002C37.3278 26.5264 37.1902 26.3761 37.2595 26.1614C37.5446 25.2791 38.0811 24.5074 38.798 23.9486C39.3161 23.6372 39.9161 23.5047 40.5115 23.5704C40.8904 23.5609 41.2603 23.5609 41.6401 23.5609H49.5861C53.6625 23.5609 56.2141 24.1888 57.3509 25.472" fill="#2C2D31"/>
</g>
</g>
<defs>
<clipPath id="clip0_1_74340">
<rect width="133" height="56" fill="white" transform="translate(0.333313)"/>
</clipPath>
</defs>
</svg>
