<svg width="63" height="56" viewBox="0 0 63 56" fill="none" xmlns="http://www.w3.org/2000/svg">
<path fill-rule="evenodd" clip-rule="evenodd" d="M23.9561 17.3921C25.4271 17.3921 26.6197 18.5846 26.6197 20.0556V34.1913C26.6197 35.6623 25.4271 36.8544 23.9561 36.8544C22.4852 36.8544 21.2926 35.6623 21.2926 34.1913V20.0556C21.2926 18.5846 22.4852 17.3921 23.9561 17.3921ZM15.9823 24.4601C17.4533 24.4601 18.6454 25.6523 18.6454 27.1237C18.6454 28.5939 17.4533 29.7868 15.9823 29.7868L7.32776 29.7888C7.08776 29.7888 6.89325 29.9829 6.89325 30.2229L6.89364 34.1899C6.89364 35.6605 5.7011 36.8527 4.23012 36.8527C2.75913 36.8527 1.56659 35.6605 1.56659 34.1899V27.1237C1.56659 25.6523 2.75913 24.4601 4.23012 24.4601H15.9823ZM31.193 17.3922C32.664 17.3922 33.8566 18.5843 33.8566 20.0557L33.8585 30.4255C33.8585 30.9051 34.2472 31.2941 34.7268 31.2941H41.0589C41.3993 31.2941 41.6942 31.0984 41.837 30.8137L48.7268 18.9459C49.2554 18.0224 50.2515 17.3977 51.3923 17.3977C52.5346 17.3977 53.5319 18.0228 54.0597 18.949L60.893 30.6282C61.2342 31.2161 61.4303 31.8996 61.4303 32.6286C61.4303 34.8345 59.6421 36.6228 57.4358 36.6228L50.0581 36.622C48.5879 36.622 47.3946 35.4298 47.3946 33.9588C47.3946 32.4875 48.5879 31.2953 50.0581 31.2953H55.1134L51.3985 24.9537L45.3919 35.302C44.9299 36.0918 44.0727 36.622 43.0923 36.622L31.193 36.6228C29.7221 36.6228 28.5295 35.4302 28.5295 33.9596V20.0557C28.5295 18.5843 29.7221 17.3922 31.193 17.3922ZM17.3142 17.6332C18.7856 17.6332 19.9777 18.8258 19.9777 20.2971C19.9777 21.7681 18.7856 22.9603 17.3142 22.9603H3.9969C2.52592 22.9603 1.33337 21.7681 1.33337 20.2971C1.33337 18.8258 2.52592 17.6332 3.9969 17.6332H17.3142Z" fill="#2C2D31"/>
</svg>
