<svg width="51" height="56" viewBox="0 0 51 56" fill="none" xmlns="http://www.w3.org/2000/svg">
<g clip-path="url(#clip0_1_74332)">
<mask id="mask0_1_74332" style="mask-type:luminance" maskUnits="userSpaceOnUse" x="0" y="0" width="51" height="56">
<path d="M50.6667 0H0.666748V56H50.6667V0Z" fill="white"/>
</mask>
<g mask="url(#mask0_1_74332)">
<path fill-rule="evenodd" clip-rule="evenodd" d="M46.7591 34.2316C48.8905 34.2316 50.2227 35.3053 50.4003 37.0053H48.2688C48.18 36.5579 48.0912 35.8421 46.8479 35.8421C45.9598 35.8421 45.4269 35.9316 45.3381 36.5579C45.3381 37.3632 47.1143 37.3632 48.5353 37.7211C49.7786 37.9895 50.6667 38.8842 50.6667 40.0474C50.6667 40.8526 50.4003 41.5684 49.9562 42.0158C49.3346 42.6421 48.0912 43 46.8479 43C45.6045 43 44.5388 42.6421 43.9171 42.0158C43.3843 41.4789 43.118 40.8526 43.029 40.2263H45.2493C45.2493 40.7632 45.6045 41.4789 47.0255 41.5684C48.0024 41.5684 48.4465 41.0316 48.4465 40.5842C48.3576 39.8684 47.5584 39.8684 46.6703 39.6895C45.7822 39.5105 44.9829 39.3316 44.45 39.0632C43.7395 38.7053 43.2955 37.9 43.2955 37.0053C43.2955 35.4842 44.5388 34.2316 46.7591 34.2316ZM37.7004 34.1421C38.5885 34.1421 39.4767 34.4105 40.1871 34.8579V34.2316H42.3186V42.8211H40.1871V42.1947C39.4767 42.6421 38.6774 43 37.7004 43C36.6347 43 35.6578 42.6421 34.8585 42.0158C33.8816 41.1211 33.26 39.8684 33.26 38.5263C33.26 36.1105 35.2138 34.1421 37.7004 34.1421ZM32.4607 31.2789V42.8211H30.418V42.1947C29.7076 42.6421 28.9083 43 27.9314 43C26.8656 43 25.7999 42.6421 25.0894 42.0158C24.2013 41.1211 23.4909 39.8684 23.4909 38.5263C23.4909 36.1105 25.4447 34.1421 27.9314 34.1421C28.9083 34.1421 29.7076 34.4105 30.418 34.8579V31.2789H32.4607ZM19.4944 31.2789V42.8211H17.4518V42.1947C16.7413 42.6421 15.8532 43 14.9651 43C13.8994 43 12.8337 42.6421 12.1232 42.0158C11.0575 41.1211 10.4358 39.8684 10.5246 38.5263C10.5246 36.1105 12.4784 34.1421 14.9651 34.1421C15.8532 34.1421 16.7413 34.4105 17.4518 34.8579V31.2789H19.4944ZM5.10725 34.1421C6.08416 34.1421 6.97226 34.4105 7.68274 34.8579V34.2316H9.72536V42.8211H7.68274V42.1947C6.97226 42.6421 6.08416 43 5.10725 43C4.13034 43 3.06462 42.6421 2.35414 42.0158C1.28842 41.1211 0.666748 39.9579 0.666748 38.5263C0.666748 36.1105 2.70938 34.1421 5.10725 34.1421ZM22.6916 34.2316V42.8211H20.5601V34.2316H22.6916ZM5.19606 36.0211C3.86391 36.0211 2.70938 37.1842 2.70938 38.5263C2.70938 39.8684 3.86391 41.0316 5.19606 41.0316C6.52821 41.0316 7.68274 39.8684 7.68274 38.5263C7.68274 37.1842 6.52821 36.0211 5.19606 36.0211ZM14.9651 36.0211C13.5441 36.0211 12.4784 37.1842 12.4784 38.5263C12.4784 39.8684 13.5441 41.0316 14.9651 41.0316C16.2973 41.0316 17.4518 39.8684 17.4518 38.5263C17.4518 37.1842 16.2973 36.0211 14.9651 36.0211ZM28.0202 36.0211C26.688 36.0211 25.5335 37.1842 25.5335 38.5263C25.5335 39.8684 26.688 41.0316 28.0202 41.0316C29.3523 41.0316 30.5068 39.8684 30.5068 38.5263C30.5068 37.1842 29.3523 36.0211 28.0202 36.0211ZM37.7004 36.0211C36.3683 36.0211 35.3026 37.1842 35.2138 38.5263C35.2138 39.8684 36.3683 41.0316 37.7004 41.0316C39.0326 41.0316 40.1871 39.8684 40.1871 38.5263C40.1871 37.1842 39.0326 36.0211 37.7004 36.0211ZM14.6987 21.0789L22.1587 16.8737L30.418 31.2789H22.6916V33.4263H20.5601V31.2789L14.6987 21.0789ZM30.5957 9L43.3843 31.2789H33.5264L23.2244 13.2947L30.5957 9ZM13.4553 24.4789L17.4518 31.2789H7.50512L6.08416 28.7737L13.4553 24.4789Z" fill="#2C2D31"/>
</g>
</g>
<defs>
<clipPath id="clip0_1_74332">
<rect width="50" height="56" fill="white" transform="translate(0.666748)"/>
</clipPath>
</defs>
</svg>
