<svg width="146" height="56" viewBox="0 0 146 56" fill="none" xmlns="http://www.w3.org/2000/svg">
<mask id="mask0_1_74346" style="mask-type:luminance" maskUnits="userSpaceOnUse" x="0" y="18" width="146" height="20">
<path d="M145.667 18H0.666626V38H145.667V18Z" fill="white"/>
</mask>
<g mask="url(#mask0_1_74346)">
<path d="M24.8676 22.491C24.0512 21.816 20.216 19.041 14.2132 18.981C10.7437 18.947 6.63754 19.544 2.1667 22.379C1.89036 22.555 1.85884 23.281 1.95236 23.559C2.05953 23.88 2.23395 23.759 2.49663 23.608C3.59254 22.972 5.7938 21.988 7.03891 21.665C14.332 19.774 20.2875 22.076 22.2944 23.747C22.8355 24.201 22.9847 24.603 22.6442 25.499C22.3196 26.355 21.3928 28.183 19.5415 30.629C17.4505 33.391 14.1964 36.632 13.4178 36.641C12.9419 36.647 10.7343 34.874 9.10674 33.173C7.39196 31.38 6.17312 29.745 6.28659 29.275C6.3738 28.915 7.91101 27.623 8.45844 27.418C8.5425 27.384 8.64337 27.381 8.69485 27.451C9.73507 28.851 12.2673 31.923 13.4283 31.811C14.6409 31.693 18.2711 27.657 19.159 25.768C19.263 25.544 18.5948 24.534 18.3846 24.858C17.026 26.951 14.9939 29.067 13.7551 29.796C13.662 29.8504 13.5521 29.8729 13.4437 29.8596C13.3353 29.8463 13.2349 29.7981 13.1594 29.723C11.0327 27.603 9.94417 24.755 9.01953 24.743C7.86163 24.73 5.04779 26.976 4.10529 28.116C3.41812 28.946 3.56942 29.33 4.20196 30.223C5.73181 32.389 8.20837 34.895 10.5557 36.559C11.9332 37.537 12.9324 38.015 13.4893 38.015C14.5558 38.015 18.2154 35.225 20.4629 32.765C23.1465 29.823 24.5114 27.439 25.1439 26.235C26.1095 24.385 26.2419 23.629 24.8676 22.491ZM43.1754 33.778H40.7966L35.2718 26.845V33.775H32.8048V23.15H35.3401L40.7072 29.826V23.15H43.1754V33.778ZM51.5139 33.992C49.7655 33.992 48.3208 33.474 47.1797 32.439C46.0397 31.405 45.4712 30.089 45.4712 28.497C45.4712 26.905 46.0386 25.59 47.1797 24.555C48.3208 23.52 49.7655 23.003 51.5139 23.003C53.2739 23.003 54.725 23.517 55.8661 24.548C57.0071 25.58 57.5756 26.895 57.5756 28.501C57.5756 30.106 57.0029 31.421 55.8661 32.453C54.725 33.478 53.2739 33.992 51.5139 33.992ZM48.968 30.997C49.6121 31.655 50.4601 31.986 51.5139 31.986C52.5689 31.986 53.42 31.655 54.0672 30.997C54.7145 30.34 55.0402 29.505 55.0402 28.497C55.0402 27.489 54.7145 26.655 54.0672 25.997C53.42 25.339 52.5689 25.009 51.5139 25.009C50.459 25.009 49.6121 25.339 48.968 25.997C48.324 26.655 48.0024 27.489 48.0024 28.497C48.0066 29.505 48.3282 30.34 48.9691 30.997H48.968ZM69.2512 33.778H66.4185L64.1447 30.003H62.3385V33.778H59.8714V23.15H65.2932C66.4826 23.15 67.4303 23.47 68.1312 24.104C68.832 24.742 69.1819 25.566 69.1819 26.574C69.1819 27.446 68.936 28.154 68.4464 28.694C67.9525 29.234 67.3557 29.582 66.6475 29.729L69.2512 33.778ZM64.9243 28.01C65.4318 28.01 65.85 27.88 66.1747 27.62C66.5004 27.359 66.6622 27.012 66.6622 26.574C66.6622 26.141 66.5015 25.79 66.1758 25.53C65.85 25.27 65.435 25.14 64.9243 25.14H62.3343V28.007H64.9233L64.9243 28.01ZM76.6735 33.778H74.1886V25.142H70.6413V23.15H80.2071V25.142H76.6735V33.778ZM93.089 33.778H90.603V29.315H85.1319V33.775H82.6658V23.15H85.1329V27.326H90.6041V23.15H93.0901V33.778H93.089ZM103.395 33.778H96.6751V23.15H99.1422V31.785H103.395V33.778ZM117.159 33.778H114.345L113.633 31.978H108.666L107.937 33.778H105.122L109.603 23.15H112.696L117.159 33.778ZM112.958 29.986L111.151 25.413L109.345 29.986H112.958ZM129.584 33.778H127.203L121.679 26.848V33.778H119.21V23.15H121.746L127.114 29.826V23.15H129.581V33.778H129.584ZM137.416 33.778H132.85V23.15H137.416C139.233 23.15 140.714 23.637 141.854 24.615C142.995 25.593 143.563 26.878 143.563 28.47C143.563 30.063 142.995 31.348 141.861 32.32C140.727 33.29 139.247 33.778 137.416 33.778ZM137.416 31.785C138.528 31.785 139.308 31.358 140.066 30.831C140.981 30.196 141.163 29.409 141.046 28.474C140.924 27.502 140.727 26.698 140.09 26.077C139.455 25.457 138.564 25.146 137.416 25.146H135.314V31.789H137.416V31.785Z" fill="#2C2D31"/>
</g>
</svg>
