<svg width="24" height="25" viewBox="0 0 24 25" fill="none" xmlns="http://www.w3.org/2000/svg">
<g clip-path="url(#clip0_76_42)">
<path d="M11 15.5C11 16.5609 11.4214 17.5783 12.1716 18.3284C12.9217 19.0786 13.9391 19.5 15 19.5C16.0609 19.5 17.0783 19.0786 17.8284 18.3284C18.5786 17.5783 19 16.5609 19 15.5C19 14.4391 18.5786 13.4217 17.8284 12.6716C17.0783 11.9214 16.0609 11.5 15 11.5C13.9391 11.5 12.9217 11.9214 12.1716 12.6716C11.4214 13.4217 11 14.4391 11 15.5Z" stroke="white" stroke-width="1.5" stroke-linecap="round" stroke-linejoin="round"/>
<path d="M18.5 19L21 21.5" stroke="white" stroke-width="1.5" stroke-linecap="round" stroke-linejoin="round"/>
<path d="M4 6.5H20" stroke="white" stroke-width="1.5" stroke-linecap="round" stroke-linejoin="round"/>
<path d="M4 12.5H8" stroke="white" stroke-width="1.5" stroke-linecap="round" stroke-linejoin="round"/>
<path d="M4 18.5H8" stroke="white" stroke-width="1.5" stroke-linecap="round" stroke-linejoin="round"/>
</g>
<defs>
<clipPath id="clip0_76_42">
<rect width="24" height="24" fill="white" transform="translate(0 0.5)"/>
</clipPath>
</defs>
</svg>
