<svg width="42" height="42" viewBox="0 0 42 42" fill="none" xmlns="http://www.w3.org/2000/svg">
<rect width="42" height="42" rx="21" fill="#F7FBFF"/>
<path d="M31.313 19.0575C31.2873 18.9203 31.2184 18.7948 31.1164 18.6994C31.0144 18.604 30.8847 18.5437 30.746 18.5273C30.6073 18.5105 30.4669 18.5385 30.3453 18.6072C30.2237 18.6759 30.1272 18.7818 30.0701 18.9092C29.862 19.3686 29.4053 19.6882 28.8757 19.6875C28.2883 19.6888 27.7922 19.2925 27.6268 18.7484C27.5271 18.4164 27.1858 18.2195 26.8485 18.2982C26.6411 18.3468 26.4449 18.375 26.25 18.375C24.8043 18.3724 23.6276 17.1957 23.625 15.75C23.625 15.5551 23.6532 15.3589 23.7018 15.1522C23.7812 14.8149 23.5837 14.4729 23.2516 14.3732C22.7076 14.2085 22.3112 13.7123 22.3125 13.125C22.3119 12.5948 22.6315 12.1387 23.0908 11.9306C23.2182 11.8734 23.324 11.7769 23.3927 11.6553C23.4614 11.5337 23.4895 11.3934 23.4728 11.2547C23.4564 11.1159 23.3962 10.986 23.3008 10.8839C23.2054 10.7817 23.0799 10.7128 22.9425 10.687C22.3165 10.5696 21.6681 10.5 21 10.5C15.2079 10.5013 10.5013 15.2079 10.5 21C10.5013 26.7921 15.2079 31.4987 21 31.5C26.7921 31.4987 31.4987 26.7921 31.5 21C31.5 20.332 31.4305 19.6836 31.313 19.0575ZM27.4936 27.4936C25.8274 29.1585 23.5345 30.1875 21 30.1875C18.4656 30.1875 16.1726 29.1585 14.5064 27.4936C12.8415 25.8274 11.8125 23.5345 11.8125 21C11.8125 18.4656 12.8415 16.1726 14.5064 14.5064C16.1726 12.8415 18.4656 11.8125 21 11.8125C21.1181 11.8125 21.2336 11.825 21.3511 11.8302C21.1319 12.2122 21.0007 12.6518 21 13.125C21.0013 14.1048 21.5447 14.9448 22.3368 15.393C22.3243 15.5098 22.3125 15.6266 22.3125 15.75C22.3138 17.9229 24.0772 19.6862 26.25 19.6875C26.3734 19.6875 26.4902 19.6757 26.607 19.6632C27.0552 20.4547 27.8946 20.9987 28.875 21C29.3482 20.9994 29.7879 20.8681 30.1698 20.6489C30.1751 20.7657 30.1875 20.8819 30.1875 21C30.1875 23.5345 29.1585 25.8274 27.4936 27.4936Z" fill="#376BCC"/>
<path d="M18.375 17.0625C19.0999 17.0625 19.6875 16.4749 19.6875 15.75C19.6875 15.0251 19.0999 14.4375 18.375 14.4375C17.6501 14.4375 17.0625 15.0251 17.0625 15.75C17.0625 16.4749 17.6501 17.0625 18.375 17.0625Z" fill="#376BCC"/>
<path d="M15.75 22.3127C16.4749 22.3127 17.0625 21.7251 17.0625 21.0002C17.0625 20.2754 16.4749 19.6877 15.75 19.6877C15.0251 19.6877 14.4375 20.2754 14.4375 21.0002C14.4375 21.7251 15.0251 22.3127 15.75 22.3127Z" fill="#376BCC"/>
<path d="M22.3125 27.5625C23.0374 27.5625 23.625 26.9749 23.625 26.25C23.625 25.5251 23.0374 24.9375 22.3125 24.9375C21.5876 24.9375 21 25.5251 21 26.25C21 26.9749 21.5876 27.5625 22.3125 27.5625Z" fill="#376BCC"/>
<path d="M21.6563 22.3125C22.0187 22.3125 22.3125 22.0187 22.3125 21.6563C22.3125 21.2938 22.0187 21 21.6563 21C21.2938 21 21 21.2938 21 21.6563C21 22.0187 21.2938 22.3125 21.6563 22.3125Z" fill="#376BCC"/>
<path d="M26.9063 24.9375C27.2687 24.9375 27.5625 24.6437 27.5625 24.2813C27.5625 23.9188 27.2687 23.625 26.9063 23.625C26.5438 23.625 26.25 23.9188 26.25 24.2813C26.25 24.6437 26.5438 24.9375 26.9063 24.9375Z" fill="#376BCC"/>
<path d="M17.7188 26.25C18.0812 26.25 18.375 25.9562 18.375 25.5938C18.375 25.2313 18.0812 24.9375 17.7188 24.9375C17.3563 24.9375 17.0625 25.2313 17.0625 25.5938C17.0625 25.9562 17.3563 26.25 17.7188 26.25Z" fill="#376BCC"/>
</svg>
