<svg width="159" height="135" viewBox="0 0 159 135" fill="none" xmlns="http://www.w3.org/2000/svg">
<path d="M20.875 10.875L140.125 130.125" stroke="#2E3036" stroke-width="3" stroke-linecap="round" stroke-linejoin="round"/>
<path d="M120.25 83.75L130.187 74.2895C133.439 71.0951 135.997 67.2637 137.701 63.0353C139.404 58.8068 140.217 54.2723 140.087 49.7154C139.957 45.1586 138.889 40.6776 136.948 36.5528C135.006 32.428 132.235 28.7483 128.806 25.7439C125.378 22.7395 121.366 20.4752 117.022 19.0926C112.678 17.71 108.095 17.2389 103.561 17.7088C99.0265 18.1787 94.6379 19.5795 90.6698 21.8235C86.7016 24.0675 83.2394 27.1064 80.4997 30.75C74.206 22.3164 64.3347 17.5 53.9997 17.5M107 97L80.4997 123.5L30.8122 74.2895C26.4297 70.0257 23.3128 64.6322 21.8067 58.7061C20.3006 52.7801 20.4642 46.5528 22.2792 40.714C24.376 34.0718 28.5228 28.2644 34.1247 24.125" stroke="#2E3036" stroke-width="3" stroke-linecap="round" stroke-linejoin="round"/>
</svg>
