<svg width="25" height="24" viewBox="0 0 25 24" fill="none" xmlns="http://www.w3.org/2000/svg">
<g opacity="0.4" clip-path="url(#clip0_49_60022)">
<path d="M15.5 9H15.51" stroke="#2E3036" stroke-width="1.5" stroke-linecap="round" stroke-linejoin="round"/>
<path d="M3.5 7C3.5 6.20435 3.81607 5.44129 4.37868 4.87868C4.94129 4.31607 5.70435 4 6.5 4H18.5C19.2956 4 20.0587 4.31607 20.6213 4.87868C21.1839 5.44129 21.5 6.20435 21.5 7V19C21.5 19.7956 21.1839 20.5587 20.6213 21.1213C20.0587 21.6839 19.2956 22 18.5 22H6.5C5.70435 22 4.94129 21.6839 4.37868 21.1213C3.81607 20.5587 3.5 19.7956 3.5 19V7Z" stroke="#2E3036" stroke-width="1.5" stroke-linecap="round" stroke-linejoin="round"/>
<path d="M3.5 16.9998L8.5 11.9998C9.428 11.1068 10.572 11.1068 11.5 11.9998L16.5 16.9998" stroke="#2E3036" stroke-width="1.5" stroke-linecap="round" stroke-linejoin="round"/>
<path d="M14.5 14.9998L15.5 13.9998C16.428 13.1068 17.572 13.1068 18.5 13.9998L21.5 16.9998" stroke="#2E3036" stroke-width="1.5" stroke-linecap="round" stroke-linejoin="round"/>
</g>
<defs>
<clipPath id="clip0_49_60022">
<rect width="24" height="24" fill="white" transform="translate(0.5)"/>
</clipPath>
</defs>
</svg>
