<svg width="24" height="24" viewBox="0 0 24 24" fill="none" xmlns="http://www.w3.org/2000/svg">
<g clip-path="url(#clip0_49_60380)">
<path d="M2.5 12.5C2.5 13.6819 2.73279 14.8522 3.18508 15.9442C3.63738 17.0361 4.30031 18.0282 5.13604 18.864C5.97177 19.6997 6.96392 20.3626 8.05585 20.8149C9.14778 21.2672 10.3181 21.5 11.5 21.5C12.6819 21.5 13.8522 21.2672 14.9442 20.8149C16.0361 20.3626 17.0282 19.6997 17.864 18.864C18.6997 18.0282 19.3626 17.0361 19.8149 15.9442C20.2672 14.8522 20.5 13.6819 20.5 12.5C20.5 11.3181 20.2672 10.1478 19.8149 9.05585C19.3626 7.96392 18.6997 6.97177 17.864 6.13604C17.0282 5.30031 16.0361 4.63738 14.9442 4.18508C13.8522 3.73279 12.6819 3.5 11.5 3.5C10.3181 3.5 9.14778 3.73279 8.05585 4.18508C6.96392 4.63738 5.97177 5.30031 5.13604 6.13604C4.30031 6.97177 3.63738 7.96392 3.18508 9.05585C2.73279 10.1478 2.5 11.3181 2.5 12.5Z" stroke="#45464A" stroke-width="2" stroke-linecap="round" stroke-linejoin="round"/>
<path d="M11.5 9.5V13.5" stroke="#45464A" stroke-width="2" stroke-linecap="round" stroke-linejoin="round"/>
<path d="M11.5 16.5V16.51" stroke="#45464A" stroke-width="2" stroke-linecap="round" stroke-linejoin="round"/>
</g>
<defs>
<clipPath id="clip0_49_60380">
<rect width="24" height="24" fill="white"/>
</clipPath>
</defs>
</svg>
