<svg width="129" height="22" viewBox="0 0 129 22" fill="none" xmlns="http://www.w3.org/2000/svg">
<path d="M35.5367 13.5556C35.5367 14.1863 35.3552 14.6987 34.9923 15.0928C34.6292 15.487 34.1037 15.7392 33.4155 15.8496L35.4913 18.3091V18.6284H33.2227L31.0107 15.9087H29.8423V18.6284H27.8345V10.8715H32.6101C33.5176 10.8715 34.2322 11.1001 34.754 11.5573C35.2758 12.0145 35.5367 12.6412 35.5367 13.4374V13.5556ZM33.4949 13.4256C33.4949 12.9368 33.1849 12.6925 32.5647 12.6925H29.8423V14.2888H32.5647C32.8672 14.2888 33.0979 14.2257 33.2567 14.0996C33.4155 13.9734 33.4949 13.7882 33.4949 13.5438V13.4256ZM43.7342 10.8715V12.6807H38.9813V13.8513H43.5074V15.6368H38.9813V16.8192H43.7342V18.6284H36.9735V10.8715H43.7342ZM53.0319 18.3091V18.6284H51.0469L50.4683 17.1976H46.9973L46.4187 18.6284H44.4336V18.3091L47.6211 10.8715H49.8445L53.0319 18.3091ZM49.7651 15.4357L48.7328 12.8699L47.7005 15.4357H49.7651ZM57.7115 10.8715C59.1332 10.8715 60.2033 11.1947 60.9217 11.8411C61.6477 12.4796 62.0107 13.4335 62.0107 14.7026V14.809C62.0107 17.3552 60.5776 18.6284 57.7115 18.6284H53.9001V10.8715H57.7115ZM57.7115 16.7601C58.498 16.7601 59.0689 16.6063 59.4244 16.2989C59.7873 15.9915 59.9688 15.5067 59.9688 14.8445V14.6789C59.9688 14.0246 59.7836 13.5399 59.4131 13.2245C59.0425 12.9013 58.4715 12.7398 57.7002 12.7398H55.9079V16.7601H57.7115ZM70.3709 10.8715V11.1908L67.2058 15.6131V18.6284H65.1981V15.6131L62.0219 11.1908V10.8715H64.1545L66.2079 13.804L68.2498 10.8715H70.3709ZM74.9467 18.7821C74.0319 18.7821 73.2267 18.6204 72.5308 18.2973C71.8423 17.9662 71.3094 17.5011 70.9315 16.902C70.5608 16.3029 70.3755 15.6013 70.3755 14.7972V14.7144C70.3755 13.9104 70.5608 13.2088 70.9315 12.6097C71.3094 12.0027 71.8423 11.5376 72.5308 11.2144C73.2267 10.8833 74.0319 10.7178 74.9467 10.7178C75.8015 10.7178 76.5692 10.8636 77.2491 11.1553C77.9298 11.4469 78.4594 11.849 78.8373 12.3614C79.2231 12.8738 79.4164 13.4531 79.4164 14.0996V14.1942H77.3626V14.0996C77.3626 13.666 77.1397 13.3191 76.6938 13.059C76.2552 12.7989 75.6729 12.6688 74.9467 12.6688C73.2603 12.6688 72.4174 13.3428 72.4174 14.6908V14.8327C72.4174 15.5027 72.6252 16.0033 73.0413 16.3344C73.4568 16.6655 74.092 16.831 74.9467 16.831C75.6953 16.831 76.2856 16.7049 76.7162 16.4526C77.1476 16.2004 77.3626 15.8535 77.3626 15.4121V15.3293H79.4164V15.4121C79.4164 16.0585 79.2231 16.6379 78.8373 17.1503C78.4594 17.6627 77.9298 18.0647 77.2491 18.3564C76.5692 18.6402 75.8015 18.7821 74.9467 18.7821ZM84.8048 18.7821C83.9045 18.7821 83.1104 18.6204 82.4225 18.2973C81.7419 17.9662 81.2162 17.5011 80.8456 16.902C80.4749 16.295 80.2896 15.5934 80.2896 14.7972V14.7144C80.2896 13.9104 80.4749 13.2088 80.8456 12.6097C81.2162 12.0027 81.7419 11.5376 82.4225 11.2144C83.1104 10.8833 83.9045 10.7178 84.8048 10.7178C85.7195 10.7178 86.5176 10.8833 87.1982 11.2144C87.8788 11.5376 88.4038 12.0027 88.7745 12.6097C89.1451 13.2088 89.3305 13.9104 89.3305 14.7144V14.7972C89.3305 15.6013 89.1451 16.3029 88.7745 16.902C88.4038 17.5011 87.8788 17.9662 87.1982 18.2973C86.5176 18.6204 85.7195 18.7821 84.8048 18.7821ZM84.8048 16.831C86.4608 16.831 87.2886 16.1649 87.2886 14.8327V14.6908C87.2886 14.0286 87.0768 13.5281 86.6534 13.1891C86.2373 12.8422 85.6213 12.6688 84.8048 12.6688C84.0028 12.6688 83.3901 12.8422 82.9666 13.1891C82.5432 13.5359 82.3315 14.0365 82.3315 14.6908V14.8327C82.3315 15.487 82.5393 15.9836 82.9554 16.3225C83.3716 16.6616 83.9876 16.831 84.8048 16.831ZM94.4003 10.8715C95.8223 10.8715 96.892 11.1947 97.6109 11.8411C98.3364 12.4796 98.6998 13.4335 98.6998 14.7026V14.809C98.6998 17.3552 97.2666 18.6284 94.4003 18.6284H90.5889V10.8715H94.4003ZM94.4003 16.7601C95.1871 16.7601 95.7583 16.6063 96.1131 16.2989C96.4765 15.9915 96.6579 15.5067 96.6579 14.8445V14.6789C96.6579 14.0246 96.4726 13.5399 96.1019 13.2245C95.7312 12.9013 95.1607 12.7398 94.3891 12.7398H92.5971V16.7601H94.4003ZM106.722 10.8715V12.6807H101.968V13.8513H106.495V15.6368H101.968V16.8192H106.722V18.6284H99.9608V10.8715H106.722ZM109.247 18.7821C108.915 18.7821 108.642 18.6757 108.431 18.4628C108.219 18.242 108.113 17.9622 108.113 17.6232C108.113 17.2843 108.219 17.0123 108.431 16.8074C108.642 16.5945 108.915 16.4881 109.247 16.4881C109.587 16.4881 109.86 16.5945 110.064 16.8074C110.276 17.0123 110.381 17.2843 110.381 17.6232C110.381 17.9701 110.276 18.25 110.064 18.4628C109.86 18.6757 109.587 18.7821 109.247 18.7821ZM119.649 13.5556C119.649 14.1863 119.467 14.6987 119.104 15.0928C118.742 15.487 118.216 15.7392 117.528 15.8496L119.604 18.3091V18.6284H117.335L115.123 15.9087H113.955V18.6284H111.947V10.8715H116.722C117.63 10.8715 118.345 11.1001 118.866 11.5573C119.388 12.0145 119.649 12.6412 119.649 13.4374V13.5556ZM117.607 13.4256C117.607 12.9368 117.297 12.6925 116.677 12.6925H113.955V14.2888H116.677C116.979 14.2888 117.21 14.2257 117.369 14.0996C117.528 13.9734 117.607 13.7882 117.607 13.5438V13.4256ZM124.772 18.7821C124.009 18.7821 123.339 18.6284 122.765 18.3209C122.19 18.0056 121.747 17.5602 121.437 16.9847C121.127 16.4093 120.972 15.7432 120.972 14.9864V10.8715H122.98V15.0219C122.98 15.6131 123.132 16.0624 123.434 16.3698C123.736 16.6773 124.183 16.831 124.772 16.831C125.37 16.831 125.82 16.6773 126.123 16.3698C126.425 16.0624 126.576 15.6131 126.576 15.0219V10.8715H128.584V14.9864C128.584 15.751 128.425 16.4211 128.107 16.9966C127.797 17.5641 127.355 18.0056 126.78 18.3209C126.206 18.6284 125.536 18.7821 124.772 18.7821Z" fill="#8C8E91"/>
<path d="M30.9287 1.56406C31.4246 1.56406 31.8167 1.68858 32.1053 1.93762C32.3938 2.18197 32.538 2.51324 32.538 2.93145V3.01603C32.538 3.43424 32.3938 3.76786 32.1053 4.01691C31.8167 4.26125 31.4246 4.38342 30.9287 4.38342H28.8732V6.18782H28.197V1.56406H30.9287ZM30.9152 3.75611C31.2127 3.75611 31.4426 3.69268 31.6049 3.56581C31.7717 3.43424 31.8551 3.25098 31.8551 3.01603V2.93145C31.8551 2.6965 31.7717 2.5156 31.6049 2.38872C31.4426 2.25715 31.2127 2.19137 30.9152 2.19137H28.8732V3.75611H30.9152ZM37.3675 6.0821V6.18782H36.6778L36.1504 5.01779H33.6486L33.1212 6.18782H32.4315V6.0821L34.5276 1.56406H35.2714L37.3675 6.0821ZM35.8597 4.38342L34.8995 2.26185L33.9393 4.38342H35.8597ZM41.8199 3.8407C42.0588 3.93468 42.2414 4.0639 42.3676 4.22836C42.4938 4.39282 42.5569 4.58313 42.5569 4.79928V4.88386C42.5569 5.32557 42.3518 5.66859 41.9416 5.91293C41.5359 6.15258 40.9566 6.2724 40.2038 6.2724C39.3879 6.2724 38.7658 6.11264 38.3376 5.79311C37.9139 5.46888 37.702 4.99664 37.702 4.37638V4.31294H38.385V4.37638C38.385 4.80398 38.5314 5.11881 38.8244 5.32086C39.1219 5.51822 39.5862 5.6169 40.2173 5.6169C40.7808 5.6169 41.1978 5.55582 41.4683 5.43364C41.7388 5.31147 41.874 5.12116 41.874 4.86272V4.78518C41.874 4.56903 41.7725 4.41632 41.5697 4.32704C41.3668 4.23306 41.022 4.18607 40.5352 4.18607H39.3518V3.55876H40.4878C40.9386 3.55876 41.2632 3.50942 41.4615 3.41074C41.6644 3.31206 41.7658 3.1523 41.7658 2.93145V2.85392C41.7658 2.37462 41.2316 2.13498 40.1633 2.13498C39.5682 2.13498 39.1265 2.23835 38.838 2.44511C38.5495 2.65186 38.4052 2.96435 38.4052 3.38255V3.43894H37.7291V3.38255C37.7291 2.76699 37.9387 2.29709 38.3579 1.97287C38.7816 1.64394 39.3879 1.47948 40.1768 1.47948C40.8981 1.47948 41.457 1.59695 41.8537 1.8319C42.2504 2.06684 42.4487 2.39577 42.4487 2.81868V2.9103C42.4487 3.32851 42.2391 3.63864 41.8199 3.8407ZM46.2218 1.56406C46.7176 1.56406 47.1098 1.68858 47.3983 1.93762C47.6868 2.18197 47.8311 2.51324 47.8311 2.93145V3.01603C47.8311 3.43424 47.6868 3.76786 47.3983 4.01691C47.1098 4.26125 46.7176 4.38342 46.2218 4.38342H44.1662V6.18782H43.4901V1.56406H46.2218ZM46.2083 3.75611C46.5058 3.75611 46.7357 3.69268 46.898 3.56581C47.0647 3.43424 47.1481 3.25098 47.1481 3.01603V2.93145C47.1481 2.6965 47.0647 2.5156 46.898 2.38872C46.7357 2.25715 46.5058 2.19137 46.2083 2.19137H44.1662V3.75611H46.2083ZM52.6606 6.0821V6.18782H51.9709L51.4435 5.01779H48.9417L48.4142 6.18782H47.7245V6.0821L49.8207 1.56406H50.5644L52.6606 6.0821ZM51.1527 4.38342L50.1925 2.26185L49.2324 4.38342H51.1527ZM57.3365 1.56406V2.19137H54.0909V3.48828H56.0721C56.5814 3.48828 56.9759 3.6034 57.2553 3.83365C57.5393 4.0592 57.6813 4.37873 57.6813 4.79223V4.88386C57.6813 5.29267 57.5393 5.6122 57.2553 5.84245C56.9713 6.0727 56.5769 6.18782 56.0721 6.18782H53.4147V1.56406H57.3365ZM56.0653 5.56051C56.3538 5.56051 56.5814 5.49943 56.7482 5.37725C56.9195 5.25508 57.0052 5.09062 57.0052 4.88386V4.79223C57.0052 4.58078 56.9218 4.41632 56.755 4.29885C56.5882 4.17667 56.3583 4.11559 56.0653 4.11559H54.0909V5.56051H56.0653ZM61.07 6.2724C60.5606 6.2724 60.1143 6.17607 59.7312 5.98341C59.348 5.79076 59.0528 5.51822 58.8454 5.1658C58.638 4.81338 58.5344 4.39987 58.5344 3.92528V3.83365C58.5344 3.35905 58.638 2.94555 58.8454 2.59312C59.0528 2.23601 59.348 1.96112 59.7312 1.76846C60.1143 1.5758 60.5606 1.47948 61.07 1.47948C61.5794 1.47948 62.0234 1.5758 62.4021 1.76846C62.7853 1.96112 63.0805 2.23601 63.2878 2.59312C63.4952 2.94555 63.5989 3.35905 63.5989 3.83365V3.92528C63.5989 4.39987 63.4952 4.81338 63.2878 5.1658C63.0805 5.51822 62.7853 5.79076 62.4021 5.98341C62.0234 6.17607 61.5794 6.2724 61.07 6.2724ZM61.07 5.6169C61.6515 5.6169 62.1046 5.46888 62.4291 5.17285C62.7537 4.87681 62.916 4.46565 62.916 3.93937V3.8266C62.916 3.29562 62.7537 2.88212 62.4291 2.58608C62.1046 2.28534 61.6515 2.13498 61.07 2.13498C60.4885 2.13498 60.0332 2.28534 59.7041 2.58608C59.3796 2.88212 59.2173 3.29562 59.2173 3.8266V3.93937C59.2173 4.46565 59.3796 4.87681 59.7041 5.17285C60.0332 5.46888 60.4885 5.6169 61.07 5.6169ZM63.9144 2.19137V1.56406H68.4247V2.19137H66.5042V6.18782H65.8347V2.19137H63.9144ZM73.519 1.66978L71.4223 3.83365L73.451 6.0821V6.18782H72.6668L70.8274 4.16492H69.8064V6.18782H69.1304V1.56406H69.8064V3.53057H70.8142L72.7071 1.56406H73.519V1.66978ZM79.0076 6.0821V6.18782H78.3177L77.7901 5.01779H75.2885L74.7609 6.18782H74.0716V6.0821L76.1676 1.56406H76.9116L79.0076 6.0821ZM77.4992 4.38342L76.5396 2.26185L75.5793 4.38342H77.4992ZM84.4527 6.2724C83.9343 6.2724 83.4812 6.17842 83.0934 5.99047C82.7063 5.79781 82.4062 5.52527 82.1945 5.17285C81.9874 4.82043 81.8832 4.40927 81.8832 3.93937V3.81955C81.8832 3.34966 81.9874 2.9385 82.1945 2.58608C82.4062 2.23366 82.7063 1.96112 83.0934 1.76846C83.4812 1.5758 83.9343 1.47948 84.4527 1.47948C84.9216 1.47948 85.3431 1.56171 85.717 1.72617C86.0956 1.89064 86.3911 2.11854 86.6028 2.40987C86.8191 2.6965 86.9273 3.01838 86.9273 3.3755V3.43894H86.2447V3.3755C86.2447 3.14055 86.1682 2.9291 86.0145 2.74114C85.8615 2.55319 85.6471 2.40517 85.3721 2.29709C85.1017 2.18902 84.7957 2.13498 84.4527 2.13498C83.8486 2.13498 83.3823 2.28065 83.0532 2.57198C82.7287 2.86332 82.5664 3.27682 82.5664 3.8125V3.94643C82.5664 4.48211 82.7287 4.89561 83.0532 5.18695C83.3823 5.47358 83.8486 5.6169 84.4527 5.6169C84.7996 5.6169 85.1089 5.56521 85.3793 5.46184C85.6544 5.35376 85.8661 5.20574 86.0145 5.01779C86.1682 4.82982 86.2447 4.61838 86.2447 4.38342V4.31294H86.9273V4.38342C86.9273 4.74054 86.8191 5.06243 86.6028 5.34906C86.3911 5.6357 86.0956 5.86125 85.717 6.02571C85.3431 6.19017 84.9216 6.2724 84.4527 6.2724ZM92.1679 6.0821V6.18782H91.4781L90.9504 5.01779H88.4488L87.9212 6.18782H87.2313V6.0821L89.328 1.56406H90.0713L92.1679 6.0821ZM90.6596 4.38342L89.7 2.26185L88.7397 4.38342H90.6596ZM93.5978 1.56406V5.22923L96.5393 1.56406H97.2153V6.18782H96.5393V2.52264L93.5978 6.18782H92.9218V1.56406H93.5978ZM95.0718 1.07772C94.6029 1.07772 94.2468 0.995485 94.0034 0.831021C93.76 0.666559 93.6387 0.426913 93.6387 0.112083V0.0627441H94.2336V0.112083C94.2336 0.238954 94.3055 0.337632 94.4499 0.408116C94.5943 0.473902 94.8014 0.506795 95.0718 0.506795C95.3337 0.506795 95.5315 0.473902 95.6667 0.408116C95.8066 0.337632 95.8765 0.238954 95.8765 0.112083V0.0627441H96.5057V0.112083C96.5057 0.431612 96.3837 0.673607 96.1403 0.838068C95.9015 0.997836 95.5454 1.07772 95.0718 1.07772ZM97.921 2.19137V1.56406H102.431V2.19137H100.51V6.18782H99.8416V2.19137H97.921ZM107.052 6.0821V6.18782H106.362L105.834 5.01779H103.333L102.805 6.18782H102.115V6.0821L104.212 1.56406H104.955L107.052 6.0821ZM105.543 4.38342L104.583 2.26185L103.623 4.38342H105.543Z" fill="#8C8E91"/>
<path d="M10.1102 22C9.99424 21.9999 9.87921 21.9796 9.77023 21.94C9.56002 21.863 9.38172 21.7177 9.26389 21.5273C9.14606 21.3369 9.09551 21.1125 9.12035 20.89L9.89021 13.8H4.00132C3.81968 13.8003 3.64141 13.7511 3.48563 13.6577C3.32986 13.5642 3.20247 13.4301 3.11716 13.2697C3.03184 13.1094 2.99182 12.9288 3.00139 12.7474C3.01096 12.5659 3.06976 12.3906 3.17148 12.24L11.06 0.440095C11.1848 0.255434 11.3676 0.117751 11.5795 0.0489061C11.7915 -0.0199391 12.0203 -0.0160004 12.2298 0.0600968C12.4311 0.134859 12.603 0.27248 12.7201 0.452585C12.8371 0.63269 12.8931 0.845704 12.8796 1.06009L12.1098 8.20006H17.9987C18.1803 8.19979 18.3586 8.24901 18.5144 8.34243C18.6701 8.43586 18.7975 8.56997 18.8828 8.73035C18.9682 8.89073 19.0082 9.07133 18.9986 9.25274C18.989 9.43416 18.9302 9.60954 18.8285 9.76005L10.94 21.56C10.8483 21.6957 10.7247 21.8068 10.58 21.8835C10.4353 21.9602 10.2739 22.0002 10.1102 22Z" fill="#376BCC"/>
</svg>
