<svg width="87" height="45" viewBox="0 0 87 45" fill="none" xmlns="http://www.w3.org/2000/svg">
<path fill-rule="evenodd" clip-rule="evenodd" d="M28.2153 12.6016C24.7257 13.5839 21.8561 16.3378 20.8086 19.7096C19.5376 23.8 21.4183 28.7649 25.1046 31.0508C27.1685 32.3306 28.4295 32.6836 30.9389 32.6836C33.3697 32.6836 34.8523 32.3104 36.5013 31.2831C36.988 30.9798 37.4259 30.7318 37.4744 30.7318C37.5228 30.7318 37.5624 31.1919 37.5624 31.7542V32.7765H39.5494H41.5364V22.553V12.3296H39.6531H37.7695L37.7133 13.4345L37.657 14.5394L36.6217 13.8971C34.7988 12.7667 33.7406 12.4681 31.3173 12.4011C29.8471 12.3604 28.8407 12.4256 28.2153 12.6016ZM51.0499 12.5968C47.7506 13.3821 44.8287 15.9959 43.6984 19.1738C41.3505 25.7734 46.4728 32.7765 53.6479 32.7765C57.2564 32.7765 60.6385 30.9919 62.5639 28.0719C63.3944 26.8122 64.1882 24.6531 63.9182 24.3879C63.8195 24.2909 62.9439 24.2355 61.9725 24.265L60.2067 24.319L59.676 25.3288C58.6425 27.2951 56.9994 28.4823 54.7474 28.89C53.665 29.0858 53.3022 29.0743 52.2104 28.8098C50.0612 28.2888 48.6625 27.2059 47.6361 25.2682C47.1969 24.4394 47.1321 24.0948 47.1261 22.553C47.1199 20.9614 47.1737 20.681 47.6739 19.7109C48.3498 18.3997 49.5325 17.2945 50.9654 16.6346C51.8851 16.2111 52.2838 16.1413 53.7425 16.1478C55.2051 16.1543 55.598 16.228 56.5242 16.668C57.8523 17.2991 59.1132 18.5267 59.7021 19.7619L60.1468 20.6943H62.1015C63.2163 20.6943 64.0561 20.618 64.0561 20.5167C64.0561 20.0678 63.1056 17.8391 62.5542 16.9951C61.2554 15.0071 58.7311 13.2148 56.3839 12.6142C55.0609 12.2757 52.4349 12.2671 51.0499 12.5968ZM73.6383 12.6244C71.9307 13.0304 70.346 13.9487 68.8629 15.3911C64.6992 19.4405 64.7053 25.6815 68.8768 29.729C70.3235 31.1327 71.9095 32.0356 73.6128 32.425C74.1333 32.544 74.6868 32.68 74.8429 32.7273C75.0313 32.7842 73.3901 34.4846 69.97 37.7762C67.1336 40.506 64.8132 42.7979 64.8132 42.8696C64.8132 42.9412 66.0263 43 67.5089 43H70.2044L76.5925 36.7276L82.9803 30.4551V36.7276V43H84.9901H87L86.8746 32.0795C86.7966 25.2987 86.6702 20.8067 86.541 20.2296C85.7347 16.6302 82.6626 13.576 78.8732 12.6064C77.5378 12.2648 75.1163 12.2731 73.6383 12.6244ZM33.7993 16.6547C35.0721 17.2664 36.3167 18.457 36.9531 19.6719C37.3318 20.3945 37.4579 20.953 37.5194 22.1813C37.618 24.1455 37.1742 25.4558 35.9624 26.7798C32.7902 30.2452 27.1554 29.5089 24.9522 25.3413C24.4689 24.4267 24.412 24.1327 24.4118 22.553C24.4116 20.997 24.4744 20.6615 24.9398 19.7295C25.6378 18.3308 27.1899 16.9423 28.6175 16.4392C30.1832 15.8875 32.3942 15.9794 33.7993 16.6547ZM78.477 16.3803C82.1356 17.6858 83.9251 21.661 82.4105 25.1188C82.1278 25.7643 81.5864 26.4535 80.7791 27.1955C79.2954 28.5585 77.6097 29.1715 75.7898 29.0094C73.3101 28.7886 70.7427 26.8992 69.9961 24.7458C69.5985 23.5992 69.5462 21.6789 69.8827 20.571C70.1802 19.591 71.1639 18.1815 72.0316 17.4917C73.723 16.1471 76.4875 15.6703 78.477 16.3803ZM75.095 17.8897C74.1032 18.1364 72.8601 18.9541 72.3328 19.7067C71.6268 20.7143 71.4366 21.3133 71.4366 22.5287C71.4366 26.7179 76.7583 28.7505 79.6947 25.6829C82.4535 22.8007 80.6637 18.2371 76.6156 17.8326C76.109 17.782 75.4247 17.8077 75.095 17.8897ZM33.4791 20.4307C32.5809 20.7328 32.1292 21.2398 31.9576 22.1393C31.6729 23.6293 33.2482 25.054 34.7063 24.6249C35.0925 24.5112 35.5973 24.221 35.8278 23.98C37.4564 22.2772 35.733 19.6729 33.4791 20.4307ZM56.7901 20.3434C56.4887 20.4243 56.007 20.7119 55.7195 20.9826C53.8901 22.704 56.1429 25.6532 58.3695 24.4513C59.2171 23.9938 59.7845 22.941 59.627 22.1173C59.4035 20.9465 57.9433 20.0332 56.7901 20.3434Z" fill="#376BCC"/>
<path fill-rule="evenodd" clip-rule="evenodd" d="M0.467032 5.4458C1.48996 2.82666 3.70504 0.875008 6.40625 0.2125C7.56956 -0.07271 9.45679 -0.0705472 10.563 0.217335C13.6469 1.01994 16.1118 3.50583 16.7362 6.4434C17.0091 7.72804 16.8507 9.83568 16.3919 11.0209C15.9176 12.2465 14.7403 13.8078 13.7573 14.5152C13.3334 14.8202 12.9879 15.1073 12.9893 15.1532C12.9905 15.199 13.4673 15.4617 14.0486 15.7369C15.3793 16.3669 17.1345 18.0558 17.8622 19.4064C20.3358 23.9971 18.6475 29.5145 14.0459 31.879C11.9875 32.9369 11.5009 33 5.42733 33H0L0.0477605 19.6983C0.0953507 6.49411 0.0984208 6.38952 0.467032 5.4458ZM10.0177 3.56021C11.1076 3.87679 12.3356 4.92174 12.9345 6.04243C13.5845 7.25868 13.5876 9.03449 12.9417 10.2328C12.0019 11.9763 10.4634 12.8893 8.45314 12.897C5.66084 12.9074 3.52901 10.8514 3.52901 8.14786C3.52901 4.83184 6.69315 2.59481 10.0177 3.56021ZM15.4899 24.2415C15.7097 21.5626 14.037 19.1384 11.3652 18.2639C9.6782 17.7116 7.5085 18.0368 5.98323 19.0704C5.1423 19.6405 4.19816 20.86 3.83246 21.8487C3.53105 22.6639 3.485 24.6117 3.747 25.4666C4.20499 26.962 5.53325 28.4099 7.06808 29.0871C10.8331 30.7483 15.1601 28.2588 15.4899 24.2415Z" fill="#376BCC"/>
<path d="M62.6122 37.7807C62.8345 36.4736 63.0168 35.3807 63.0174 35.3524C63.0182 35.3242 63.2475 35.3007 63.527 35.3007C64.1527 35.3007 64.1537 35.4069 63.5533 38.0906C63.1529 39.8788 63.031 40.1661 62.6482 40.2234C62.4047 40.2595 62.2063 40.2595 62.2071 40.2234C62.2077 40.187 62.3901 39.0878 62.6122 37.7807Z" fill="#376BCC"/>
<path d="M4.99512 40.8262C4.73817 39.7683 5.33989 38.2789 6.28619 37.6306C6.72833 37.3276 7.27476 37.1607 7.82302 37.1607C8.80306 37.1607 8.93824 37.2456 8.80163 37.7763C8.72296 38.0824 8.56847 38.1394 8.05029 38.0539C6.74439 37.8386 5.47061 39.6869 6.10038 40.8834C6.30937 41.2802 6.46487 41.329 7.23715 41.2405C8.05884 41.1463 8.13182 41.1758 8.13182 41.6022C8.13182 41.9778 7.98748 42.0903 7.37417 42.1914C6.22561 42.3809 5.2348 41.8122 4.99512 40.8262Z" fill="#376BCC"/>
<path d="M13.8852 37.8519C13.819 37.6761 13.8923 37.4499 14.0483 37.3495C14.516 37.0487 15.6973 37.137 16.0947 37.5027C16.2992 37.6908 16.4665 38.1049 16.4665 38.423C16.4665 39.0055 16.3343 39.1435 14.8417 40.1204C14.4512 40.3761 14.0989 40.7578 14.0588 40.9687C13.9944 41.3093 14.0909 41.3403 14.9213 41.245C15.7286 41.1527 15.8567 41.1895 15.8567 41.5137C15.8567 42.0064 15.6214 42.1353 14.6514 42.1748C13.6744 42.2142 13.0107 41.684 13.0107 40.8635C13.0107 40.2516 13.4255 39.8262 14.7021 39.1286C15.1612 38.8778 15.4501 38.568 15.4501 38.3266C15.4501 37.9915 15.3434 37.9508 14.728 38.0523C14.1871 38.1414 13.9755 38.0913 13.8852 37.8519Z" fill="#376BCC"/>
<path d="M51.0252 41.8766C51.0252 41.6383 51.9054 38.1456 52.1518 37.4052C52.205 37.245 52.471 37.1598 52.798 37.1985C53.2844 37.2559 53.3723 37.3797 53.5032 38.194C53.5853 38.7055 53.7089 39.4422 53.7777 39.8311L53.9025 40.5383L54.8394 38.8495C55.665 37.3613 55.8442 37.1607 56.3482 37.1607C57.0044 37.1607 56.9835 37.0468 56.7145 39.1607C56.3376 42.1203 56.3376 42.1205 55.8237 42.1205C55.3688 42.1205 55.3607 42.0874 55.5363 40.9487C55.8195 39.1134 55.6607 39.0496 54.7974 40.6516C54.1605 41.8332 53.91 42.1262 53.5776 42.0779C53.2214 42.0262 53.1273 41.7875 52.9432 40.4672L52.7266 38.9172L52.4982 39.7439C52.3723 40.1985 52.19 40.8961 52.0927 41.2938C51.9666 41.8092 51.7877 42.0362 51.4704 42.0832C51.2042 42.1228 51.025 42.0394 51.0252 41.8766Z" fill="#376BCC"/>
<path d="M62.104 42.1953C61.7922 42.0736 61.6836 41.2734 61.9432 41.0094C62.2746 40.6729 62.9181 40.9936 62.9789 41.5257C63.0448 42.1029 62.6473 42.4071 62.104 42.1953Z" fill="#376BCC"/>
<path fill-rule="evenodd" clip-rule="evenodd" d="M0.557811 38.561C0.959303 36.3729 1.20203 35.4944 1.42218 35.4334C2.12697 35.2383 3.31193 35.3212 3.84819 35.6031C4.85994 36.135 4.95914 37.1112 4.0909 37.9939C3.52192 38.5721 3.51642 38.5985 3.88763 38.94C4.73959 39.724 4.18198 41.4369 2.91531 41.9264C2.15035 42.2221 0.00041057 42.1746 5.01635e-07 41.8622C-0.000409567 41.7201 0.250646 40.2345 0.557811 38.561ZM3.00903 39.2686C3.14319 39.405 3.25297 39.7715 3.25297 40.0835C3.25297 40.7896 2.5931 41.2938 1.66938 41.2938C1.11746 41.2938 1.00911 41.2256 1.09388 40.9321C1.1514 40.7334 1.25915 40.2218 1.33354 39.7956C1.45633 39.0909 1.52728 39.0206 2.11681 39.0206C2.47337 39.0206 2.87485 39.1322 3.00903 39.2686ZM2.00744 38.194C3.22552 38.194 4.12851 36.9871 3.34567 36.4051C2.81754 36.0127 2.08001 36.0571 1.96048 36.4891C1.58033 37.8612 1.58968 38.194 2.00744 38.194Z" fill="#376BCC"/>
<path fill-rule="evenodd" clip-rule="evenodd" d="M10.3356 37.4757C8.99862 38.214 8.43531 40.7375 9.40235 41.6563C10.2689 42.4798 12.6136 42.305 12.2875 41.4412C12.1949 41.1955 12.0034 41.137 11.5767 41.2238C10.66 41.4102 10.0226 41.1607 9.91198 40.5728C9.82335 40.1012 9.87722 40.0539 10.5043 40.0539C12.4199 40.0539 13.6335 38.6205 12.6041 37.5741C12.1248 37.0867 11.1193 37.0431 10.3356 37.4757ZM10.4102 39.1856C11.1725 39.2814 12.0349 38.872 11.9564 38.4517C11.84 37.8269 10.8853 37.8825 10.371 38.5442L9.92051 39.1239L10.4102 39.1856Z" fill="#376BCC"/>
<path fill-rule="evenodd" clip-rule="evenodd" d="M17.7591 35.1989C17.5818 35.6692 17.8696 35.9207 18.5856 35.9207C19.3697 35.9207 20.3289 36.6054 20.3289 37.1651C20.3289 37.5087 20.2575 37.5272 19.6975 37.3287C17.9289 36.7019 16.1045 39.3771 17.0195 41.2554C17.6886 42.6293 19.5117 42.5563 20.4187 41.1196C21.7196 39.0588 21.4828 35.9236 19.9828 35.347C18.9592 34.9535 17.8789 34.8815 17.7591 35.1989ZM19.738 40.3851C20.2238 39.2975 20.2201 38.91 19.719 38.4006C19.3006 37.9753 19.1922 37.9446 18.7492 38.1256C18.3355 38.2948 17.8489 39.4304 17.8489 40.2262C17.8489 41.6952 19.1056 41.801 19.738 40.3851Z" fill="#376BCC"/>
<path fill-rule="evenodd" clip-rule="evenodd" d="M23.1729 37.6256C22.1985 38.2997 21.7212 39.0541 21.6048 40.1032C21.4123 41.84 22.3955 42.66 23.8148 41.9463C24.4267 41.6385 24.5979 41.6143 24.5979 41.8363C24.5979 42.0016 24.8106 42.1205 25.1062 42.1205C25.5673 42.1205 25.615 42.0393 25.6218 41.2422C25.6259 40.7592 25.7536 39.7129 25.9057 38.9172C26.0576 38.1217 26.1405 37.401 26.0894 37.3157C26.0385 37.2303 25.5127 37.1607 24.9209 37.1607C24.1397 37.1607 23.6607 37.288 23.1729 37.6256ZM24.0775 40.8942C24.4916 40.429 24.9827 39.1229 24.9956 38.4523C25.0171 37.3347 23.1916 38.2336 22.7636 39.5514C22.2871 41.0196 23.1662 41.9179 24.0775 40.8942Z" fill="#376BCC"/>
<path fill-rule="evenodd" clip-rule="evenodd" d="M28.7797 41.7958C28.0473 41.051 28.6494 38.2483 29.7032 37.4982C30.3055 37.0691 31.587 37.062 32.0034 37.4853C32.4124 37.9011 32.4118 38.5782 32.002 39.0386C31.7092 39.3673 31.7113 39.4459 32.0259 39.9342C32.3151 40.3826 32.3312 40.5672 32.1262 41.0707C31.6942 42.1312 29.5637 42.5926 28.7797 41.7958ZM31.135 40.3213C31.4752 40.8602 30.5812 41.6224 29.8756 41.3947C29.3503 41.2252 29.3164 40.1259 29.8325 39.9921C30.2844 39.8751 30.9614 40.0463 31.135 40.3213ZM29.9754 39.2273C30.5543 39.2273 31.3063 38.7415 31.3063 38.3674C31.3063 37.8158 30.3931 37.871 29.9965 38.4467C29.6019 39.0192 29.5965 39.2273 29.9754 39.2273Z" fill="#376BCC"/>
<path fill-rule="evenodd" clip-rule="evenodd" d="M36.8968 37.2C37.5942 37.2826 37.5973 37.279 37.8199 36.1886C38.0119 35.2492 38.11 35.0941 38.5121 35.0941C38.9786 35.0941 38.9795 35.1003 38.7222 36.3539C38.5461 37.2115 38.5347 37.5413 38.6864 37.3872C39.0722 36.995 40.0002 37.1253 40.3409 37.62C40.7702 38.2429 40.7328 39.7616 40.2624 40.8152C39.7898 41.873 38.8114 42.4801 38.1056 42.1531C37.6656 41.9494 37.6362 41.9893 37.5049 42.9594C37.3829 43.8611 37.3096 43.9804 36.8776 43.9804C36.3444 43.9804 36.3114 43.8431 36.572 42.7034C36.7424 41.9581 36.7361 41.9469 36.2488 42.1352C34.4308 42.8377 33.9287 39.4227 35.6003 37.7234C36.0817 37.234 36.3321 37.133 36.8968 37.2ZM37.2797 38.3095C37.4155 38.6688 37.0994 40.3025 36.7747 40.9192C36.4734 41.4914 35.6968 41.3341 35.6064 40.683C35.4006 39.2 36.8434 37.1534 37.2797 38.3095ZM38.3086 41.2149C38.9769 41.4755 39.5286 40.6063 39.5343 39.2837C39.5384 38.337 39.4711 38.0874 39.1965 38.0315C38.7067 37.9323 38.2256 38.7924 38.082 40.0233C37.9795 40.9031 38.0174 41.1013 38.3086 41.2149Z" fill="#376BCC"/>
<path fill-rule="evenodd" clip-rule="evenodd" d="M42.2718 37.7192C39.654 39.9586 41.7816 43.6439 44.5548 41.6745C45.2732 41.164 45.8292 39.6748 45.6546 38.7284C45.3708 37.1907 43.5313 36.642 42.2718 37.7192ZM43.0893 41.2938C44.1994 41.2938 45.0681 39.4831 44.4314 38.4955C43.7635 37.4589 42.4576 38.1788 42.1689 39.7431C41.995 40.6844 42.3569 41.2938 43.0893 41.2938Z" fill="#376BCC"/>
<path fill-rule="evenodd" clip-rule="evenodd" d="M46.2285 40.5804L45.6153 44L46.1294 43.9387C46.5531 43.8878 46.6724 43.7282 46.8068 43.0333C46.9676 42.201 46.982 42.1892 47.851 42.1892C49.4771 42.1892 50.6184 40.8483 50.6184 38.9377C50.6184 38.2628 50.5005 37.8674 50.2119 37.5741C49.7509 37.1055 48.6124 37.0181 48.1942 37.419C47.9787 37.6256 47.9062 37.6256 47.8318 37.419C47.7805 37.277 47.5368 37.1607 47.2901 37.1607C46.8704 37.1607 46.8023 37.3805 46.2285 40.5804ZM48.179 41.3029C49.1358 41.1781 50.0051 39.04 49.4003 38.2994C48.6858 37.424 47.5797 38.5229 47.2703 40.4155C47.1209 41.3307 47.2207 41.4282 48.179 41.3029Z" fill="#376BCC"/>
<path fill-rule="evenodd" clip-rule="evenodd" d="M58.9036 37.485C58.1876 37.8799 57.5301 39.191 57.5301 40.2243C57.5301 41.7456 58.6832 42.5408 60.2507 42.1009C60.7721 41.9545 60.9859 41.778 60.9859 41.4946C60.9859 41.1401 60.8831 41.1095 60.074 41.2222C59.084 41.3602 58.5466 41.0951 58.5466 40.4689C58.5466 40.1928 58.7675 40.0824 59.4845 40.0002C61.1736 39.8065 61.9988 38.7466 61.3019 37.6653C60.9176 37.0693 59.8083 36.9858 58.9036 37.485ZM59.4946 39.1584C60.3722 39.0138 60.6796 38.7575 60.511 38.3112C60.3409 37.8606 59.6423 37.9067 59.1564 38.4006C58.5262 39.0412 58.6412 39.2992 59.4946 39.1584Z" fill="#376BCC"/>
<path fill-rule="evenodd" clip-rule="evenodd" d="M60.2134 0.235401C59.6371 0.415262 58.689 1.25189 58.3462 1.88266C57.9505 2.6109 57.9486 4.07189 58.3423 4.79611C58.7096 5.47185 59.4903 6.14432 60.2248 6.41763C61.0089 6.7094 62.2485 6.63931 62.9932 6.26125L63.5375 5.98481V6.58141C63.5375 8.01614 62.2571 8.99269 60.8576 8.62555C60.169 8.44495 59.5708 7.85125 59.3811 7.16018L59.2297 6.6088H58.612C57.9215 6.6088 57.9023 6.64547 58.1306 7.52653C58.3352 8.31625 59.0073 9.12885 59.8091 9.55563C60.398 9.86913 60.6499 9.92718 61.4104 9.92458C62.8568 9.91965 63.9837 9.22722 64.5584 7.99037C64.8032 7.46363 64.8212 7.17538 64.8238 3.75136L64.8266 0.0775207L62.7318 0.0903314C61.5796 0.0973651 60.4463 0.162678 60.2134 0.235401ZM63.5375 3.37493C63.5375 2.63301 63.2144 2.00512 62.6471 1.64478C61.7039 1.04553 60.6169 1.18646 59.8389 2.00902C58.9182 2.98243 59.2224 4.54918 60.4524 5.1689C61.7721 5.83383 63.5375 4.80729 63.5375 3.37493Z" fill="#376BCC"/>
<path fill-rule="evenodd" clip-rule="evenodd" d="M67.9143 0.116959C66.3344 0.5484 65.3423 1.79186 65.3423 3.34027C65.3423 4.82902 66.5121 6.30861 67.8882 6.56018L68.3345 6.6417L66.6145 8.32088L64.8946 10H65.8583H66.822L68.9183 7.96041L71.0146 5.92088V7.96041V10H71.6691H72.3238L72.2815 6.26339C72.2407 2.65674 72.2289 2.50628 71.9417 1.93818C71.6075 1.27726 70.809 0.515367 70.184 0.260898C69.547 0.00153148 68.5647 -0.0607667 67.9143 0.116959ZM69.2173 5.36659C71.2724 4.90928 71.5757 2.28886 69.6711 1.44607C68.5756 0.961375 67.403 1.3893 66.8134 2.48907C66.0607 3.89254 67.5939 5.7277 69.2173 5.36659Z" fill="#376BCC"/>
<path fill-rule="evenodd" clip-rule="evenodd" d="M74.6781 0.331487C73.9302 0.692213 73.3445 1.29058 72.9761 2.07056C72.2025 3.70803 73.114 5.74528 74.9211 6.41763C75.713 6.71228 76.9445 6.63957 77.7055 6.25309L78.2656 5.9686L78.211 6.70513C78.1441 7.60731 77.7697 8.1738 77.0218 8.50474C76.3345 8.80883 75.8631 8.80355 75.1853 8.4839C74.5981 8.20695 74.1603 7.64654 74.0282 7.00256C73.9508 6.62588 73.92 6.6088 73.3189 6.6088C72.7473 6.6088 72.6905 6.63516 72.6905 6.90044C72.6905 7.38791 73.0632 8.29338 73.4539 8.75534C73.6572 8.99544 74.1342 9.35758 74.5139 9.5599C75.851 10.2721 77.7302 9.95006 78.6881 8.84437C79.4954 7.91278 79.5171 7.77981 79.5201 3.75136L79.5229 0.0775207L77.3636 0.0776459C75.4566 0.0776459 75.1428 0.107414 74.6781 0.331487ZM78.2338 3.36702C78.2338 2.62937 77.7523 1.81434 77.1527 1.53713C76.1565 1.07655 75.2653 1.2372 74.5353 2.00902C73.6145 2.98243 73.9187 4.54918 75.1487 5.1689C76.4727 5.83585 78.2338 4.80729 78.2338 3.36702Z" fill="#376BCC"/>
<path fill-rule="evenodd" clip-rule="evenodd" d="M82.8103 0.062825C81.1724 0.482208 80.1759 1.72704 80.1704 3.36024C80.1681 4.03196 80.2374 4.32397 80.5276 4.86519C80.9482 5.64958 81.7573 6.30258 82.5718 6.51472L83.1385 6.66243L81.4292 8.33131L79.72 10H80.6015H81.483L83.5647 8.03728L85.6464 6.07448L85.6818 8.03728L85.7174 10H86.3586H87V6.25661V2.51331L86.6677 1.86358C86.292 1.12906 85.7704 0.64976 84.9695 0.302975C84.3347 0.0281589 83.3664 -0.0794811 82.8103 0.062825ZM85.5222 4.2137C85.9624 3.38423 85.5888 2.09342 84.7648 1.59717C84.0873 1.18934 83.3047 1.14074 82.6478 1.46592C81.7139 1.92838 81.3003 2.80546 81.5078 3.88374C81.696 4.8613 83.0343 5.62332 84.0722 5.34411C84.6346 5.19276 85.2621 4.70355 85.5222 4.2137Z" fill="#376BCC"/>
<circle cx="57.5" cy="22.5" r="2.5" fill="#376BCC"/>
<circle cx="34.5" cy="22.5" r="2.5" fill="#376BCC"/>
</svg>
