<svg width="20" height="21" viewBox="0 0 20 21" fill="none" xmlns="http://www.w3.org/2000/svg">
<path d="M17 3.83301H3.66667C2.75 3.83301 2 4.58301 2 5.49967V15.4997C2 16.4163 2.75 17.1663 3.66667 17.1663H17C17.9167 17.1663 18.6667 16.4163 18.6667 15.4997V5.49967C18.6667 4.58301 17.9167 3.83301 17 3.83301ZM16.6667 7.37467L11.2167 10.783C10.675 11.1247 9.99167 11.1247 9.45 10.783L4 7.37467C3.91644 7.32777 3.84327 7.26439 3.78491 7.18839C3.72655 7.11238 3.68422 7.02532 3.66048 6.93248C3.63674 6.83964 3.63209 6.74295 3.6468 6.64826C3.66151 6.55357 3.69528 6.46285 3.74607 6.38159C3.79686 6.30033 3.8636 6.23022 3.94227 6.1755C4.02094 6.12079 4.10989 6.0826 4.20375 6.06326C4.2976 6.04391 4.3944 6.04381 4.4883 6.06296C4.58219 6.08212 4.67122 6.12012 4.75 6.17467L10.3333 9.66634L15.9167 6.17467C15.9954 6.12012 16.0845 6.08212 16.1784 6.06296C16.2723 6.04381 16.3691 6.04391 16.4629 6.06326C16.5568 6.0826 16.6457 6.12079 16.7244 6.1755C16.8031 6.23022 16.8698 6.30033 16.9206 6.38159C16.9714 6.46285 17.0052 6.55357 17.0199 6.64826C17.0346 6.74295 17.0299 6.83964 17.0062 6.93248C16.9824 7.02532 16.9401 7.11238 16.8818 7.18839C16.8234 7.26439 16.7502 7.32777 16.6667 7.37467Z" fill="white"/>
</svg>
