<svg width="21" height="21" viewBox="0 0 21 21" fill="none" xmlns="http://www.w3.org/2000/svg">
<path d="M3.16724 6.33329C3.16724 5.89127 3.34283 5.46734 3.65539 5.15478C3.96795 4.84222 4.39188 4.66663 4.8339 4.66663H16.5006C16.9426 4.66663 17.3665 4.84222 17.6791 5.15478C17.9916 5.46734 18.1672 5.89127 18.1672 6.33329V14.6666C18.1672 15.1087 17.9916 15.5326 17.6791 15.8451C17.3665 16.1577 16.9426 16.3333 16.5006 16.3333H4.8339C4.39188 16.3333 3.96795 16.1577 3.65539 15.8451C3.34283 15.5326 3.16724 15.1087 3.16724 14.6666V6.33329Z" stroke="#6F787A" stroke-width="1.5" stroke-linecap="round" stroke-linejoin="round"/>
<path d="M3.16724 6.33337L10.6672 11.3334L18.1672 6.33337" stroke="#6F787A" stroke-width="1.5" stroke-linecap="round" stroke-linejoin="round"/>
</svg>
