<svg width="20" height="20" viewBox="0 0 20 20" fill="none" xmlns="http://www.w3.org/2000/svg">
<path d="M9.83327 9.58366C9.28074 9.58366 8.75083 9.36417 8.36013 8.97346C7.96943 8.58276 7.74994 8.05286 7.74994 7.50033C7.74994 6.94779 7.96943 6.41789 8.36013 6.02719C8.75083 5.63649 9.28074 5.41699 9.83327 5.41699C10.3858 5.41699 10.9157 5.63649 11.3064 6.02719C11.6971 6.41789 11.9166 6.94779 11.9166 7.50033C11.9166 7.77391 11.8627 8.04482 11.758 8.29758C11.6533 8.55034 11.4999 8.78001 11.3064 8.97346C11.113 9.16692 10.8833 9.32038 10.6305 9.42507C10.3778 9.52977 10.1069 9.58366 9.83327 9.58366ZM9.83327 1.66699C8.28618 1.66699 6.80244 2.28157 5.70848 3.37554C4.61452 4.4695 3.99994 5.95323 3.99994 7.50033C3.99994 11.8753 9.83327 18.3337 9.83327 18.3337C9.83327 18.3337 15.6666 11.8753 15.6666 7.50033C15.6666 5.95323 15.052 4.4695 13.9581 3.37554C12.8641 2.28157 11.3804 1.66699 9.83327 1.66699Z" fill="white"/>
</svg>
