<svg width="17" height="18" viewBox="0 0 17 18" fill="none" xmlns="http://www.w3.org/2000/svg">
<g clip-path="url(#clip0_59_22608)">
<path d="M6.13867 8.21365C6.13867 8.83986 6.38743 9.44041 6.83022 9.88321C7.27302 10.326 7.87358 10.5748 8.49978 10.5748C9.12599 10.5748 9.72655 10.326 10.1693 9.88321C10.6121 9.44041 10.8609 8.83986 10.8609 8.21365C10.8609 7.58744 10.6121 6.98689 10.1693 6.54409C9.72655 6.1013 9.12599 5.85254 8.49978 5.85254C7.87358 5.85254 7.27302 6.1013 6.83022 6.54409C6.38743 6.98689 6.13867 7.58744 6.13867 8.21365Z" stroke="#535457" stroke-width="1.5" stroke-linecap="round" stroke-linejoin="round"/>
<path d="M12.9523 12.6653L9.6129 16.0047C9.31775 16.2996 8.91762 16.4652 8.50043 16.4652C8.08323 16.4652 7.6831 16.2996 7.38795 16.0047L4.04777 12.6653C3.16725 11.7848 2.56761 10.6629 2.3247 9.44152C2.08178 8.22016 2.20648 6.9542 2.68305 5.80373C3.15961 4.65325 3.96662 3.66992 5.00203 2.97809C6.03745 2.28626 7.25476 1.91699 8.50003 1.91699C9.74531 1.91699 10.9626 2.28626 11.998 2.97809C13.0334 3.66992 13.8405 4.65325 14.317 5.80373C14.7936 6.9542 14.9183 8.22016 14.6754 9.44152C14.4325 10.6629 13.8328 11.7848 12.9523 12.6653Z" stroke="#535457" stroke-width="1.5" stroke-linecap="round" stroke-linejoin="round"/>
</g>
<defs>
<clipPath id="clip0_59_22608">
<rect width="17" height="17" fill="white" transform="translate(0 0.5)"/>
</clipPath>
</defs>
</svg>
