<svg width="21" height="21" viewBox="0 0 21 21" fill="none" xmlns="http://www.w3.org/2000/svg">
<g clip-path="url(#clip0_27_44165)">
<path d="M8.1665 9.66663C8.1665 10.3297 8.4299 10.9656 8.89874 11.4344C9.36758 11.9032 10.0035 12.1666 10.6665 12.1666C11.3295 12.1666 11.9654 11.9032 12.4343 11.4344C12.9031 10.9656 13.1665 10.3297 13.1665 9.66663C13.1665 9.00358 12.9031 8.3677 12.4343 7.89886C11.9654 7.43002 11.3295 7.16663 10.6665 7.16663C10.0035 7.16663 9.36758 7.43002 8.89874 7.89886C8.4299 8.3677 8.1665 9.00358 8.1665 9.66663Z" stroke="#6F787A" stroke-width="1.5" stroke-linecap="round" stroke-linejoin="round"/>
<path d="M15.3813 14.3808L11.8455 17.9167C11.533 18.2289 11.1093 18.4042 10.6676 18.4042C10.2258 18.4042 9.80217 18.2289 9.48966 17.9167L5.95299 14.3808C5.02068 13.4485 4.38577 12.2606 4.12856 10.9674C3.87136 9.67419 4.0034 8.33376 4.50799 7.11561C5.01259 5.89745 5.86707 4.85628 6.96339 4.12376C8.05971 3.39123 9.34863 3.00024 10.6672 3.00024C11.9857 3.00024 13.2746 3.39123 14.3709 4.12376C15.4672 4.85628 16.3217 5.89745 16.8263 7.11561C17.3309 8.33376 17.463 9.67419 17.2058 10.9674C16.9485 12.2606 16.3136 13.4485 15.3813 14.3808Z" stroke="#6F787A" stroke-width="1.5" stroke-linecap="round" stroke-linejoin="round"/>
</g>
<defs>
<clipPath id="clip0_27_44165">
<rect width="20" height="20" fill="white" transform="translate(0.666504 0.5)"/>
</clipPath>
</defs>
</svg>
