<svg width="19" height="21" viewBox="0 0 19 21" fill="none" xmlns="http://www.w3.org/2000/svg">
<path opacity="0.9" d="M9.02002 19.4835C8.75425 19.4863 8.49058 19.436 8.24451 19.3356C7.99843 19.2351 7.7749 19.0865 7.58702 18.8985L3.34302 14.6555C2.35238 13.6644 1.63945 12.4304 1.2756 11.0772C0.911745 9.72393 0.909739 8.29884 1.26978 6.94457C1.62982 5.59029 2.33927 4.35434 3.32712 3.36044C4.31498 2.36654 5.54657 1.64955 6.89862 1.28125C8.25067 0.912951 9.67575 0.906255 11.0312 1.26184C12.3867 1.61742 13.6249 2.3228 14.6221 3.30738C15.6192 4.29195 16.3403 5.52118 16.713 6.87201C17.0858 8.22285 17.0971 9.64789 16.746 11.0045M13 19.9985L18 14.9985M18 14.9985V19.4985M18 14.9985H13.5M6.00002 8.99851C6.00002 9.79416 6.31609 10.5572 6.8787 11.1198C7.44131 11.6824 8.20437 11.9985 9.00002 11.9985C9.79567 11.9985 10.5587 11.6824 11.1213 11.1198C11.684 10.5572 12 9.79416 12 8.99851C12 8.20286 11.684 7.4398 11.1213 6.87719C10.5587 6.31458 9.79567 5.99851 9.00002 5.99851C8.20437 5.99851 7.44131 6.31458 6.8787 6.87719C6.31609 7.4398 6.00002 8.20286 6.00002 8.99851Z" stroke="#376BCC" stroke-width="1.6" stroke-linecap="round" stroke-linejoin="round"/>
</svg>
