<svg width="20" height="20" viewBox="0 0 20 20" fill="none" xmlns="http://www.w3.org/2000/svg">
<g clip-path="url(#clip0_59_22713)">
<path d="M5 11.6665V6.6665C5 6.00346 5.26339 5.36758 5.73223 4.89874C6.20107 4.4299 6.83696 4.1665 7.5 4.1665C8.16304 4.1665 8.79893 4.4299 9.26777 4.89874C9.73661 5.36758 10 6.00346 10 6.6665V13.3332C10 13.9962 10.2634 14.6321 10.7322 15.1009C11.2011 15.5698 11.837 15.8332 12.5 15.8332C13.163 15.8332 13.7989 15.5698 14.2678 15.1009C14.7366 14.6321 15 13.9962 15 13.3332V8.33317" stroke="#7E7F85" stroke-width="1.5" stroke-linecap="round" stroke-linejoin="round"/>
<path d="M13.3334 4.16667C13.3334 3.72464 13.509 3.30072 13.8215 2.98816C14.1341 2.67559 14.558 2.5 15 2.5C15.4421 2.5 15.866 2.67559 16.1786 2.98816C16.4911 3.30072 16.6667 3.72464 16.6667 4.16667V6.66667C16.6667 7.10869 16.4911 7.53262 16.1786 7.84518C15.866 8.15774 15.4421 8.33333 15 8.33333C14.558 8.33333 14.1341 8.15774 13.8215 7.84518C13.509 7.53262 13.3334 7.10869 13.3334 6.66667V4.16667Z" stroke="#7E7F85" stroke-width="1.5" stroke-linecap="round" stroke-linejoin="round"/>
<path d="M3.33337 13.3332C3.33337 12.8911 3.50897 12.4672 3.82153 12.1547C4.13409 11.8421 4.55801 11.6665 5.00004 11.6665C5.44207 11.6665 5.86599 11.8421 6.17855 12.1547C6.49111 12.4672 6.66671 12.8911 6.66671 13.3332V15.8332C6.66671 16.2752 6.49111 16.6991 6.17855 17.0117C5.86599 17.3242 5.44207 17.4998 5.00004 17.4998C4.55801 17.4998 4.13409 17.3242 3.82153 17.0117C3.50897 16.6991 3.33337 16.2752 3.33337 15.8332V13.3332Z" stroke="#7E7F85" stroke-width="1.5" stroke-linecap="round" stroke-linejoin="round"/>
</g>
<defs>
<clipPath id="clip0_59_22713">
<rect width="20" height="20" fill="white"/>
</clipPath>
</defs>
</svg>
