<svg width="20" height="20" viewBox="0 0 20 20" fill="none" xmlns="http://www.w3.org/2000/svg">
<g clip-path="url(#clip0_59_22808)">
<path d="M8.33319 3.3335L9.99986 4.16683L11.6665 3.3335" stroke="#7E7F85" stroke-width="1.5" stroke-linecap="round" stroke-linejoin="round"/>
<path d="M9.99988 1.6665V7.08317L12.4999 8.5165" stroke="#7E7F85" stroke-width="1.5" stroke-linecap="round" stroke-linejoin="round"/>
<path d="M14.9399 5.22314L15.0515 7.08314L16.6065 8.10981" stroke="#7E7F85" stroke-width="1.5" stroke-linecap="round" stroke-linejoin="round"/>
<path d="M17.2165 5.8335L12.5257 8.54183L12.534 11.4235" stroke="#7E7F85" stroke-width="1.5" stroke-linecap="round" stroke-linejoin="round"/>
<path d="M16.6065 11.8901L15.0515 12.9168L14.9399 14.7768" stroke="#7E7F85" stroke-width="1.5" stroke-linecap="round" stroke-linejoin="round"/>
<path d="M17.2166 14.1668L12.5257 11.4585L10.0341 12.9068" stroke="#7E7F85" stroke-width="1.5" stroke-linecap="round" stroke-linejoin="round"/>
<path d="M11.6665 16.6668L9.99986 15.8335L8.33319 16.6668" stroke="#7E7F85" stroke-width="1.5" stroke-linecap="round" stroke-linejoin="round"/>
<path d="M9.99988 18.3334V12.9167L7.49988 11.4834" stroke="#7E7F85" stroke-width="1.5" stroke-linecap="round" stroke-linejoin="round"/>
<path d="M5.05986 14.7768L4.94819 12.9168L3.39319 11.8901" stroke="#7E7F85" stroke-width="1.5" stroke-linecap="round" stroke-linejoin="round"/>
<path d="M2.7832 14.1667L7.47404 11.4583L7.4657 8.57666" stroke="#7E7F85" stroke-width="1.5" stroke-linecap="round" stroke-linejoin="round"/>
<path d="M3.39319 8.10981L4.94819 7.08314L5.05986 5.22314" stroke="#7E7F85" stroke-width="1.5" stroke-linecap="round" stroke-linejoin="round"/>
<path d="M2.7832 5.8335L7.47404 8.54183L9.9657 7.0935" stroke="#7E7F85" stroke-width="1.5" stroke-linecap="round" stroke-linejoin="round"/>
</g>
<defs>
<clipPath id="clip0_59_22808">
<rect width="20" height="20" fill="white"/>
</clipPath>
</defs>
</svg>
