<svg width="20" height="20" viewBox="0 0 20 20" fill="none" xmlns="http://www.w3.org/2000/svg">
<g clip-path="url(#clip0_59_22738)">
<mask id="mask0_59_22738" style="mask-type:luminance" maskUnits="userSpaceOnUse" x="-1" y="0" width="21" height="20">
<path d="M-0.00012207 1.90735e-06H19.9999V20H-0.00012207V1.90735e-06Z" fill="white"/>
</mask>
<g mask="url(#mask0_59_22738)">
<path d="M12.4757 13.4298C13.0312 14.3641 13.7524 15.4687 14.4535 16.4428C15.2765 17.5862 16.8256 17.9275 18.0458 17.223C19.266 16.5186 19.745 15.0064 19.1662 13.7219C18.615 12.4983 17.9348 11.1714 17.3603 10.1764C14.9333 5.97262 11.8299 3.2441 10.4286 4.05312C10.2993 4.12777 10.189 4.23012 10.0973 4.35773" stroke="#7E7F85" stroke-width="1.5" stroke-miterlimit="10"/>
<path d="M9.54968 4.20459L12.8889 2.85764C13.3341 2.69154 13.6512 2.26244 13.6512 1.75928C13.6512 1.11205 13.1266 0.587403 12.4794 0.587403C12.0682 0.587403 11.7065 0.799122 11.4974 1.11951L9.54968 4.20459Z" stroke="#7E7F85" stroke-width="1.5" stroke-miterlimit="10"/>
<path d="M9.54968 4.20459L6.2105 2.85764C5.76527 2.69154 5.44812 2.26244 5.44812 1.75928C5.44812 1.11205 5.97277 0.587403 6.62 0.587403C7.03113 0.587403 7.39285 0.799122 7.60199 1.11951L9.54968 4.20459Z" stroke="#7E7F85" stroke-width="1.5" stroke-miterlimit="10"/>
<path d="M16.5195 8.81648C17.2571 10.5951 16.9458 12.4453 15.702 13.1634C14.7625 13.7058 13.5295 13.4645 12.4775 12.6552" stroke="#7E7F85" stroke-width="1.5" stroke-miterlimit="10"/>
<path d="M9.54968 19.4155C10.9586 19.4155 12.1295 18.3454 12.2706 16.9436C12.405 15.6084 12.4794 14.1191 12.4794 12.9702C12.4794 8.11611 11.1677 4.20459 9.54968 4.20459C7.93164 4.20459 6.62 8.11611 6.62 12.9702C6.62 14.1191 6.69437 15.6084 6.82875 16.9436C6.96984 18.3454 8.14078 19.4155 9.54968 19.4155Z" stroke="#7E7F85" stroke-width="1.5" stroke-miterlimit="10"/>
<path d="M12.4311 11.3722C12.1806 13.2814 10.9858 14.728 9.54974 14.728C8.11361 14.728 6.91884 13.2814 6.66833 11.3722" stroke="#7E7F85" stroke-width="1.5" stroke-miterlimit="10"/>
<path d="M-0.00012207 10.0781H0.865425C2.6348 10.0781 4.27625 9.12676 4.27625 7.35293C4.27625 4.94043 6.66246 4.79406 8.96375 4.21875" stroke="#7E7F85" stroke-width="1.5" stroke-miterlimit="10"/>
</g>
</g>
<defs>
<clipPath id="clip0_59_22738">
<rect width="20" height="20" fill="white"/>
</clipPath>
</defs>
</svg>
