<svg width="20" height="20" viewBox="0 0 20 20" fill="none" xmlns="http://www.w3.org/2000/svg">
<g clip-path="url(#clip0_59_22686)">
<path d="M7.5 12.5L12.5 7.5" stroke="#ED9C62" stroke-width="1.5" stroke-linecap="round" stroke-linejoin="round"/>
<path d="M7.91667 8.33333C8.14679 8.33333 8.33333 8.14679 8.33333 7.91667C8.33333 7.68655 8.14679 7.5 7.91667 7.5C7.68655 7.5 7.5 7.68655 7.5 7.91667C7.5 8.14679 7.68655 8.33333 7.91667 8.33333Z" fill="#ED9C62" stroke="#ED9C62" stroke-width="1.5" stroke-linecap="round" stroke-linejoin="round"/>
<path d="M12.0833 12.4998C12.3134 12.4998 12.5 12.3133 12.5 12.0832C12.5 11.8531 12.3134 11.6665 12.0833 11.6665C11.8532 11.6665 11.6666 11.8531 11.6666 12.0832C11.6666 12.3133 11.8532 12.4998 12.0833 12.4998Z" fill="#ED9C62" stroke="#ED9C62" stroke-width="1.5" stroke-linecap="round" stroke-linejoin="round"/>
<path d="M4.16668 5.9999C4.16668 5.51367 4.35984 5.04735 4.70366 4.70353C5.04747 4.35972 5.51379 4.16656 6.00002 4.16656H6.83335C7.31743 4.16629 7.78176 3.97456 8.12502 3.63323L8.70835 3.0499C8.87872 2.87856 9.08128 2.7426 9.30439 2.64982C9.52749 2.55704 9.76673 2.50928 10.0084 2.50928C10.25 2.50928 10.4892 2.55704 10.7123 2.64982C10.9354 2.7426 11.138 2.87856 11.3084 3.0499L11.8917 3.63323C12.2349 3.97456 12.6993 4.16629 13.1834 4.16656H14.0167C14.5029 4.16656 14.9692 4.35972 15.313 4.70353C15.6569 5.04735 15.85 5.51367 15.85 5.9999V6.83323C15.8503 7.31731 16.042 7.78164 16.3834 8.1249L16.9667 8.70823C17.138 8.8786 17.274 9.08116 17.3668 9.30426C17.4595 9.52736 17.5073 9.76661 17.5073 10.0082C17.5073 10.2499 17.4595 10.4891 17.3668 10.7122C17.274 10.9353 17.138 11.1379 16.9667 11.3082L16.3834 11.8916C16.042 12.2348 15.8503 12.6991 15.85 13.1832V14.0166C15.85 14.5028 15.6569 14.9691 15.313 15.3129C14.9692 15.6567 14.5029 15.8499 14.0167 15.8499H13.1834C12.6993 15.8502 12.2349 16.0419 11.8917 16.3832L11.3084 16.9666C11.138 17.1379 10.9354 17.2739 10.7123 17.3666C10.4892 17.4594 10.25 17.5072 10.0084 17.5072C9.76673 17.5072 9.52749 17.4594 9.30439 17.3666C9.08128 17.2739 8.87872 17.1379 8.70835 16.9666L8.12502 16.3832C7.78176 16.0419 7.31743 15.8502 6.83335 15.8499H6.00002C5.51379 15.8499 5.04747 15.6567 4.70366 15.3129C4.35984 14.9691 4.16668 14.5028 4.16668 14.0166V13.1832C4.16641 12.6991 3.97469 12.2348 3.63335 11.8916L3.05002 11.3082C2.87868 11.1379 2.74272 10.9353 2.64994 10.7122C2.55716 10.4891 2.5094 10.2499 2.5094 10.0082C2.5094 9.76661 2.55716 9.52736 2.64994 9.30426C2.74272 9.08116 2.87868 8.8786 3.05002 8.70823L3.63335 8.1249C3.97469 7.78164 4.16641 7.31731 4.16668 6.83323V5.9999Z" stroke="#ED9C62" stroke-width="1.5" stroke-linecap="round" stroke-linejoin="round"/>
</g>
<defs>
<clipPath id="clip0_59_22686">
<rect width="20" height="20" fill="white"/>
</clipPath>
</defs>
</svg>
