<svg width="20" height="20" viewBox="0 0 20 20" fill="none" xmlns="http://www.w3.org/2000/svg">
<mask id="mask0_59_22720" style="mask-type:luminance" maskUnits="userSpaceOnUse" x="-1" y="0" width="21" height="20">
<path d="M-0.00012207 1.90735e-06H19.9999V20H-0.00012207V1.90735e-06Z" fill="white"/>
</mask>
<g mask="url(#mask0_59_22720)">
<path d="M14.6874 19.4141H6.48425V15.8984H14.6874V19.4141Z" stroke="#7E7F85" stroke-width="1.5" stroke-miterlimit="10"/>
<path d="M5.89832 12.3438H8.24207C9.21289 12.3438 9.99988 11.5568 9.99988 10.5859C9.99988 9.61512 9.21289 8.82813 8.24207 8.82813H6.02199C4.33566 8.82813 2.96863 10.1952 2.96863 11.8815C2.96863 12.9024 3.47886 13.8558 4.32832 14.4221L6.48425 15.8984" stroke="#7E7F85" stroke-width="1.5" stroke-miterlimit="10"/>
<path d="M9.8999 10H11.1718C13.1135 10 14.6874 8.42602 14.6874 6.48438V5.89844" stroke="#7E7F85" stroke-width="1.5" stroke-miterlimit="10"/>
<path d="M6.80164 8.82813C5.33195 8.82813 4.1405 7.63672 4.1405 6.16699C4.1405 3.10625 6.62175 0.585939 9.6825 0.585939H11.4891C14.5499 0.585939 17.0311 3.10625 17.0311 6.16699V8.11848C17.0311 10.8736 16.2156 13.6061 14.6874 15.8984" stroke="#7E7F85" stroke-width="1.5" stroke-miterlimit="10"/>
<path d="M12.3436 19.4141H11.7577C10.7869 19.4141 9.99988 18.6271 9.99988 17.6562C9.99988 16.6854 10.7869 15.8984 11.7577 15.8984H12.3436" stroke="#7E7F85" stroke-width="1.5" stroke-miterlimit="10"/>
</g>
</svg>
