<svg width="81" height="22" viewBox="0 0 81 22" fill="none" xmlns="http://www.w3.org/2000/svg">
<path fill-rule="evenodd" clip-rule="evenodd" d="M20.3113 21.4898V9.09143H19.7637L15.8356 21.4898H11.1708H11.1573L7.24265 9.09143H6.69878V21.4898H0V0.621215H6.70867C7.54464 0.617508 8.35972 0.882809 9.03365 1.37795C9.70758 1.87308 10.2047 2.5718 10.4514 3.37095L13.2086 13.0159H13.7892L16.5512 3.37095C16.7992 2.5694 17.2988 1.86907 17.9764 1.37379C18.654 0.878488 19.4729 0.614599 20.3113 0.621215H27.0199V21.4898H20.3113Z" fill="#52B461"/>
<path fill-rule="evenodd" clip-rule="evenodd" d="M45.9711 21.4897V9.20058H45.4421L40.867 19.4961C40.5981 20.0909 40.1636 20.5956 39.6148 20.9491C39.0649 21.3028 38.4266 21.4904 37.7735 21.4897H31.9106V0.621098H38.6622V12.9103H39.2159L43.8487 2.5987C43.8609 2.5717 43.8721 2.54592 43.8843 2.52014V2.51277C44.1642 1.94417 44.5988 1.4655 45.1377 1.13113C45.6753 0.796763 46.2977 0.620055 46.9311 0.621098H52.794V21.4897H45.9711Z" fill="#52B461"/>
<path fill-rule="evenodd" clip-rule="evenodd" d="M72.589 15.362H64.546V21.49H57.7183V10.4419H80.4049C79.7285 11.938 78.6262 13.2021 77.2365 14.077C75.8469 14.9517 74.2302 15.3985 72.589 15.362Z" fill="#52B461"/>
<path fill-rule="evenodd" clip-rule="evenodd" d="M80.8355 7.98651H67.8589C62.2232 7.98651 57.5376 4.58367 56.5507 0.621094H73.1976C77.5076 0.621094 81 3.60898 81 6.80191C81 7.20247 80.9447 7.60106 80.8355 7.98651Z" fill="url(#paint0_linear_30_74029)"/>
<defs>
<linearGradient id="paint0_linear_30_74029" x1="21693.5" y1="707.698" x2="21206.8" y2="707.698" gradientUnits="userSpaceOnUse">
<stop stop-color="#198ECA"/>
<stop offset="1" stop-color="#1DB5E4"/>
</linearGradient>
</defs>
</svg>
