<svg width="83" height="47" viewBox="0 0 83 47" fill="none" xmlns="http://www.w3.org/2000/svg">
<path d="M23.0556 46.1111C35.7896 46.1111 46.1111 35.7889 46.1111 23.0556C46.1111 10.3223 35.7896 0 23.0556 0C10.3215 0 0 10.3223 0 23.0556C0 35.7889 10.3215 46.1111 23.0556 46.1111Z" fill="#EC0020"/>
<path d="M59.9445 46.1111C72.6785 46.1111 83 35.7889 83 23.0556C83 10.3223 72.6785 0 59.9445 0C47.2104 0 36.8889 10.3223 36.8889 23.0556C36.8889 35.7889 47.2104 46.1111 59.9445 46.1111Z" fill="#FE9A0C"/>
<path fill-rule="evenodd" clip-rule="evenodd" d="M15.7903 29.4375H13.7282L15.6151 18.9389H15.58L11.7251 29.4375H9.22221L9.17611 18.9389H9.14105L7.61018 29.4375H5.53333L7.79278 16.543H11.0206L11.1589 26.5878H11.1939L14.8515 16.543H18.0424L15.7958 29.4375H15.7903ZM31.3261 22.2442C30.4149 22.0632 29.4871 21.9957 28.5594 22.0431C27.4417 22.1778 27.1982 22.5153 27.1281 22.9063C26.8717 24.3505 31.9605 22.9653 31.3427 26.3112C31.1822 27.2426 30.6878 28.084 29.9538 28.6783C29.2178 29.2726 28.2919 29.5792 27.3476 29.5408C26.2298 29.6232 25.1084 29.4718 24.0534 29.0963L24.3559 27.3293C25.3924 27.5514 26.453 27.6467 27.5117 27.6133C27.8566 27.646 28.2034 27.5759 28.5077 27.4117C28.812 27.2476 29.061 26.9967 29.2234 26.6911C29.5037 25.1676 24.4278 26.3222 25.042 22.9137C25.208 22.0771 25.6839 21.3343 26.3755 20.8356C27.069 20.3366 27.923 20.119 28.7696 20.2263C29.7324 20.2374 30.6897 20.3828 31.6119 20.6579L31.3316 22.2479L31.3261 22.2442ZM32.4917 21.8181L33.248 18.4114H35.3101L34.8674 20.1175H36.1511L35.8375 21.8163H34.5465L33.639 26.7391C33.5449 27.2795 33.5228 27.4769 34.3601 27.4769C34.5059 27.4761 34.6497 27.4625 34.7918 27.4363L34.5003 29.2697C34.1738 29.2844 33.8013 29.5131 33.4748 29.5131H33.2185C32.9344 29.5732 32.6374 29.5526 32.3645 29.4534C32.0896 29.3541 31.8499 29.1806 31.6691 28.9519C31.4884 28.7233 31.3759 28.4489 31.3427 28.1595C31.3113 27.8703 31.3593 27.5776 31.4847 27.3145L32.4862 21.8107L32.4917 21.8181ZM37.4607 25.7468C37.3758 25.976 37.35 26.223 37.3869 26.4646C37.4219 26.7064 37.5179 26.9355 37.6636 27.131C37.8111 27.3263 38.0029 27.482 38.2261 27.5836C38.4474 27.6853 38.6927 27.7297 38.9362 27.7129C40.2199 27.8009 41.4945 27.4326 42.5347 26.6727L42.2083 28.3733C41.1532 29.1547 39.8474 29.524 38.5396 29.4117C36.3392 29.4117 34.8508 28.1851 35.5461 24.4612C35.7564 23.3693 36.7229 19.8611 40.1462 19.8611C41.6955 19.8611 43.6764 21.1873 42.9128 25.3299L42.8427 25.7468H37.4607ZM41.0038 23.9779C41.1569 22.5024 40.4228 21.8329 39.7588 21.8329C39.2461 21.9323 38.7794 22.1951 38.429 22.5817C38.0767 22.9683 37.8609 23.4582 37.8111 23.9779H41.013H41.0038ZM44.2076 20.2798H46.1757L45.8843 21.6705H45.9266C46.1406 21.1753 46.4818 20.747 46.9189 20.4311C47.3561 20.1151 47.8707 19.9233 48.4074 19.8759C48.5476 19.8759 48.8501 19.9441 48.9792 19.9571L48.2212 22.3179C47.9002 22.2687 47.5719 22.2855 47.2565 22.3672C46.9411 22.4489 46.646 22.5939 46.3896 22.7931C46.1332 22.9923 45.9193 23.2418 45.7607 23.5264C45.6039 23.811 45.5061 24.1246 45.4729 24.4483L44.6116 29.5279H42.5495L44.2095 20.2798H44.2076ZM56.6576 19.2967C55.894 18.8094 54.97 18.6442 54.0846 18.8375C53.037 19.0219 51.318 19.6472 50.6724 23.1129C50.3459 24.8799 50.5212 26.9973 52.2199 27.4012C52.8065 27.5468 53.4169 27.5632 54.0108 27.449C54.6048 27.335 55.1655 27.0934 55.6561 26.7409L55.1028 28.9672C54.8575 29.0612 54.6361 29.6828 52.0871 29.5205C49.2688 29.3361 47.6494 27.3072 48.4296 23.0742C49.2098 18.7987 51.7496 16.5854 54.4849 16.6186C54.9663 16.6186 55.444 16.7206 55.883 16.918C56.322 17.1155 56.7148 17.4038 57.0358 17.764L56.6668 19.3023L56.6576 19.2967ZM75.2459 29.4412H73.2245L73.4328 28.0486H73.4089C73.1359 28.4695 72.7615 28.815 72.3206 29.0529C71.878 29.2909 71.3837 29.4135 70.882 29.4098C68.5524 29.4098 68.0157 27.036 68.4695 24.5423C69.0523 21.4068 70.8672 19.8593 72.5936 19.8593C73.04 19.8322 73.4808 19.958 73.8442 20.2158C74.2094 20.4739 74.475 20.8485 74.5967 21.2777H74.6318L75.423 16.5743H77.4851L75.2533 29.4375L75.2459 29.4412ZM71.7526 27.4547C72.3815 27.3605 72.957 27.0478 73.3794 26.5716C73.7999 26.0955 74.0415 25.4861 74.0581 24.8504C74.3256 23.3933 74.2334 21.9232 72.8242 21.9232C72.1805 22.0525 71.6031 22.4026 71.19 22.913C70.7787 23.4231 70.5574 24.0615 70.5647 24.7176C70.3655 25.7818 70.4357 27.4547 71.7526 27.4547ZM62.807 27.2518C62.807 27.2518 62.6097 28.2239 62.5636 28.7089L62.4584 29.526H60.6306C60.5882 29.0524 60.5882 28.5758 60.6306 28.1021C60.2875 28.5029 59.8633 28.8268 59.3874 29.0522C58.9097 29.2776 58.3914 29.3995 57.8639 29.4098C57.5411 29.4275 57.2202 29.3641 56.9288 29.225C56.6355 29.0859 56.3847 28.8757 56.1947 28.614C56.0066 28.352 55.8867 28.0468 55.8461 27.7262C55.8055 27.4058 55.8461 27.0803 55.9641 26.7797C56.0453 26.052 56.3681 25.3723 56.879 24.8474C57.3881 24.3227 58.0594 23.9824 58.7843 23.8802L60.6933 23.5556C61.0308 23.5021 61.4495 23.7585 61.5546 23.2457C61.5915 23.0832 61.5878 22.9141 61.5436 22.7534C61.4993 22.5928 61.4144 22.4458 61.3001 22.3255C61.1839 22.2052 61.04 22.1154 60.8814 22.0641C60.7228 22.0131 60.555 22.002 60.3908 22.0321C59.3081 21.9911 58.2291 22.194 57.235 22.626L57.6997 20.859C58.7197 20.3639 59.8559 20.1579 60.9847 20.2632C62.0914 20.3057 64.0354 20.6561 63.6628 22.8455L62.8125 27.2426L62.807 27.2518ZM61.1894 24.7563C60.7375 25.0348 60.2266 25.2017 59.6973 25.2432C59.3063 25.2418 58.9263 25.3788 58.6257 25.6304C58.325 25.8818 58.124 26.2315 58.0558 26.6173C58.0041 26.7394 57.9838 26.8728 57.9967 27.0049C58.0096 27.1371 58.0557 27.2636 58.1313 27.373C58.207 27.4822 58.3103 27.5706 58.4283 27.6296C58.5482 27.6888 58.6791 27.7168 58.8119 27.7111C59.3228 27.7002 59.8153 27.5169 60.2082 27.1911C60.6011 26.8654 60.874 26.4161 60.9792 25.9165L61.1894 24.7563ZM64.7179 20.278H66.6859L66.4 21.8384H66.4351C66.649 21.3433 66.9921 20.9151 67.4274 20.5991C67.8645 20.2832 68.3791 20.0913 68.9158 20.0437C69.056 20.0437 69.3585 20.112 69.4876 20.1249L68.7295 22.4839C68.5838 22.4601 68.4344 22.4509 68.2869 22.4563C68.0047 22.4332 67.7206 22.4664 67.4513 22.554C67.1821 22.6416 66.933 22.782 66.7191 22.9668C66.5033 23.1518 66.3281 23.3774 66.2008 23.6308C66.0754 23.8842 65.9998 24.1602 65.9813 24.4427L65.1199 29.5223H63.0578L64.7179 20.2743V20.278ZM23.5867 27.2518C23.5867 27.2518 23.3894 28.2239 23.3414 28.7089L23.2381 29.5279H21.3956C21.355 29.0535 21.355 28.5765 21.3956 28.1021C21.0617 28.5215 20.6412 28.8655 20.1653 29.1108C19.6876 29.3563 19.1638 29.4978 18.6289 29.526C18.3006 29.526 17.9778 29.4464 17.6864 29.294C17.3949 29.1415 17.146 28.9207 16.9597 28.6507C16.7734 28.3804 16.6553 28.0691 16.6147 27.7434C16.5742 27.4175 16.6148 27.0868 16.731 26.7797C16.8121 26.0524 17.1349 25.3729 17.644 24.848C18.1549 24.3232 18.8244 23.9827 19.5493 23.8802L21.4601 23.5556C21.663 23.5474 21.8548 23.4731 22.0116 23.3442C22.1665 23.2153 22.2753 23.0388 22.3214 22.8418C22.4967 21.831 21.6815 21.9878 21.1576 21.973C20.0731 21.9328 18.9941 22.1357 17.9999 22.5669L18.4666 20.8C19.4865 20.3053 20.6227 20.1 21.7515 20.2061C22.8582 20.2485 24.8022 20.5989 24.4297 22.7883L23.5794 27.2445L23.5867 27.2518ZM21.9673 24.7563C21.5173 25.0352 21.0064 25.2023 20.477 25.2432C20.086 25.2418 19.706 25.3788 19.4054 25.6304C19.1047 25.8818 18.9037 26.2315 18.8355 26.6173C18.7838 26.7394 18.7635 26.8728 18.7764 27.0049C18.7893 27.1371 18.8354 27.2636 18.9111 27.373C18.9867 27.4822 19.09 27.5706 19.208 27.6296C19.3279 27.6888 19.4589 27.7168 19.5917 27.7111C20.1026 27.7002 20.5951 27.5169 20.9879 27.1911C21.3808 26.8654 21.6538 26.4161 21.7589 25.9165L21.9673 24.7563Z" fill="white"/>
<path fill-rule="evenodd" clip-rule="evenodd" d="M15.7903 29.4375H13.7282L15.6151 18.9389H15.58L11.7251 29.4375H9.22221L9.17611 18.9389H9.14105L7.61018 29.4375H5.53333L7.79278 16.543H11.0206L11.1589 26.5878H11.1939L14.8515 16.543H18.0424L15.7958 29.4375H15.7903ZM31.3261 22.2442C30.4149 22.0632 29.4871 21.9957 28.5594 22.0431C27.4417 22.1778 27.1982 22.5153 27.1281 22.9063C26.8717 24.3505 31.9605 22.9653 31.3427 26.3112C31.1822 27.2426 30.6878 28.084 29.9538 28.6783C29.2178 29.2726 28.2919 29.5792 27.3476 29.5408C26.2298 29.6232 25.1084 29.4718 24.0534 29.0963L24.3559 27.3293C25.3924 27.5514 26.453 27.6467 27.5117 27.6133C27.8566 27.646 28.2034 27.5759 28.5077 27.4117C28.812 27.2476 29.061 26.9967 29.2234 26.6911C29.5037 25.1676 24.4278 26.3222 25.042 22.9137C25.208 22.0771 25.6839 21.3343 26.3755 20.8356C27.069 20.3366 27.923 20.119 28.7696 20.2263C29.7324 20.2374 30.6897 20.3828 31.6119 20.6579L31.3316 22.2479L31.3261 22.2442ZM32.4917 21.8181L33.248 18.4114H35.3101L34.8674 20.1175H36.1511L35.8375 21.8163H34.5465L33.639 26.7391C33.5449 27.2795 33.5228 27.4769 34.3601 27.4769C34.5059 27.4761 34.6497 27.4625 34.7918 27.4363L34.5003 29.2697C34.1738 29.2844 33.8013 29.5131 33.4748 29.5131H33.2185C32.9344 29.5732 32.6374 29.5526 32.3645 29.4534C32.0896 29.3541 31.8499 29.1806 31.6691 28.9519C31.4884 28.7233 31.3759 28.4489 31.3427 28.1595C31.3113 27.8703 31.3593 27.5776 31.4847 27.3145L32.4862 21.8107L32.4917 21.8181ZM37.4607 25.7468C37.3758 25.976 37.35 26.223 37.3869 26.4646C37.4219 26.7064 37.5179 26.9355 37.6636 27.131C37.8111 27.3263 38.0029 27.482 38.2261 27.5836C38.4474 27.6853 38.6927 27.7297 38.9362 27.7129C40.2199 27.8009 41.4945 27.4326 42.5347 26.6727L42.2083 28.3733C41.1532 29.1547 39.8474 29.524 38.5396 29.4117C36.3392 29.4117 34.8508 28.1851 35.5461 24.4612C35.7564 23.3693 36.7229 19.8611 40.1462 19.8611C41.6955 19.8611 43.6764 21.1873 42.9128 25.3299L42.8427 25.7468H37.4607ZM41.0038 23.9779C41.1569 22.5024 40.4228 21.8329 39.7588 21.8329C39.2461 21.9323 38.7794 22.1951 38.429 22.5817C38.0767 22.9683 37.8609 23.4582 37.8111 23.9779H41.013H41.0038ZM44.2076 20.2798H46.1757L45.8843 21.6705H45.9266C46.1406 21.1753 46.4818 20.747 46.9189 20.4311C47.3561 20.1151 47.8707 19.9233 48.4074 19.8759C48.5476 19.8759 48.8501 19.9441 48.9792 19.9571L48.2212 22.3179C47.9002 22.2687 47.5719 22.2855 47.2565 22.3672C46.9411 22.4489 46.646 22.5939 46.3896 22.7931C46.1332 22.9923 45.9193 23.2418 45.7607 23.5264C45.6039 23.811 45.5061 24.1246 45.4729 24.4483L44.6116 29.5279H42.5495L44.2095 20.2798H44.2076ZM56.6576 19.2967C55.894 18.8094 54.97 18.6442 54.0846 18.8375C53.037 19.0219 51.318 19.6472 50.6724 23.1129C50.3459 24.8799 50.5212 26.9973 52.2199 27.4012C52.8065 27.5468 53.4169 27.5632 54.0108 27.449C54.6048 27.335 55.1655 27.0934 55.6561 26.7409L55.1028 28.9672C54.8575 29.0612 54.6361 29.6828 52.0871 29.5205C49.2688 29.3361 47.6494 27.3072 48.4296 23.0742C49.2098 18.7987 51.7496 16.5854 54.4849 16.6186C54.9663 16.6186 55.444 16.7206 55.883 16.918C56.322 17.1155 56.7148 17.4038 57.0358 17.764L56.6668 19.3023L56.6576 19.2967ZM75.2459 29.4412H73.2245L73.4328 28.0486H73.4089C73.1359 28.4695 72.7615 28.815 72.3206 29.0529C71.878 29.2909 71.3837 29.4135 70.882 29.4098C68.5524 29.4098 68.0157 27.036 68.4695 24.5423C69.0523 21.4068 70.8672 19.8593 72.5936 19.8593C73.04 19.8322 73.4808 19.958 73.8442 20.2158C74.2094 20.4739 74.475 20.8485 74.5967 21.2777H74.6318L75.423 16.5743H77.4851L75.2533 29.4375L75.2459 29.4412ZM71.7526 27.4547C72.3815 27.3605 72.957 27.0478 73.3794 26.5716C73.7999 26.0955 74.0415 25.4861 74.0581 24.8504C74.3256 23.3933 74.2334 21.9232 72.8242 21.9232C72.1805 22.0525 71.6031 22.4026 71.19 22.913C70.7787 23.4231 70.5574 24.0615 70.5647 24.7176C70.3655 25.7818 70.4357 27.4547 71.7526 27.4547ZM62.807 27.2518C62.807 27.2518 62.6097 28.2239 62.5636 28.7089L62.4584 29.526H60.6306C60.5882 29.0524 60.5882 28.5758 60.6306 28.1021C60.2875 28.5029 59.8633 28.8268 59.3874 29.0522C58.9097 29.2776 58.3914 29.3995 57.8639 29.4098C57.5411 29.4275 57.2202 29.3641 56.9288 29.225C56.6355 29.0859 56.3847 28.8757 56.1947 28.614C56.0066 28.352 55.8867 28.0468 55.8461 27.7262C55.8055 27.4058 55.8461 27.0803 55.9641 26.7797C56.0453 26.052 56.3681 25.3723 56.879 24.8474C57.3881 24.3227 58.0594 23.9824 58.7843 23.8802L60.6933 23.5556C61.0308 23.5021 61.4495 23.7585 61.5546 23.2457C61.5915 23.0832 61.5878 22.9141 61.5436 22.7534C61.4993 22.5928 61.4144 22.4458 61.3001 22.3255C61.1839 22.2052 61.04 22.1154 60.8814 22.0641C60.7228 22.0131 60.555 22.002 60.3908 22.0321C59.3081 21.9911 58.2291 22.194 57.235 22.626L57.6997 20.859C58.7197 20.3639 59.8559 20.1579 60.9847 20.2632C62.0914 20.3057 64.0354 20.6561 63.6628 22.8455L62.8125 27.2426L62.807 27.2518ZM61.1894 24.7563C60.7375 25.0348 60.2266 25.2017 59.6973 25.2432C59.3063 25.2418 58.9263 25.3788 58.6257 25.6304C58.325 25.8818 58.124 26.2315 58.0558 26.6173C58.0041 26.7394 57.9838 26.8728 57.9967 27.0049C58.0096 27.1371 58.0557 27.2636 58.1313 27.373C58.207 27.4822 58.3103 27.5706 58.4283 27.6296C58.5482 27.6888 58.6791 27.7168 58.8119 27.7111C59.3228 27.7002 59.8153 27.5169 60.2082 27.1911C60.6011 26.8654 60.874 26.4161 60.9792 25.9165L61.1894 24.7563ZM64.7179 20.278H66.6859L66.4 21.8384H66.4351C66.649 21.3433 66.9921 20.9151 67.4274 20.5991C67.8645 20.2832 68.3791 20.0913 68.9158 20.0437C69.056 20.0437 69.3585 20.112 69.4876 20.1249L68.7295 22.4839C68.5838 22.4601 68.4344 22.4509 68.2869 22.4563C68.0047 22.4332 67.7206 22.4664 67.4513 22.554C67.1821 22.6416 66.933 22.782 66.7191 22.9668C66.5033 23.1518 66.3281 23.3774 66.2008 23.6308C66.0754 23.8842 65.9998 24.1602 65.9813 24.4427L65.1199 29.5223H63.0578L64.7179 20.2743V20.278ZM23.5867 27.2518C23.5867 27.2518 23.3894 28.2239 23.3414 28.7089L23.2381 29.5279H21.3956C21.355 29.0535 21.355 28.5765 21.3956 28.1021C21.0617 28.5215 20.6412 28.8655 20.1653 29.1108C19.6876 29.3563 19.1638 29.4978 18.6289 29.526C18.3006 29.526 17.9778 29.4464 17.6864 29.294C17.3949 29.1415 17.146 28.9207 16.9597 28.6507C16.7734 28.3804 16.6553 28.0691 16.6147 27.7434C16.5742 27.4175 16.6148 27.0868 16.731 26.7797C16.8121 26.0524 17.1349 25.3729 17.644 24.848C18.1549 24.3232 18.8244 23.9827 19.5493 23.8802L21.4601 23.5556C21.663 23.5474 21.8548 23.4731 22.0116 23.3442C22.1665 23.2153 22.2753 23.0388 22.3214 22.8418C22.4967 21.831 21.6815 21.9878 21.1576 21.973C20.0731 21.9328 18.9941 22.1357 17.9999 22.5669L18.4666 20.8C19.4865 20.3053 20.6227 20.1 21.7515 20.2061C22.8582 20.2485 24.8022 20.5989 24.4297 22.7883L23.5794 27.2445L23.5867 27.2518ZM21.9673 24.7563C21.5173 25.0352 21.0064 25.2023 20.477 25.2432C20.086 25.2418 19.706 25.3788 19.4054 25.6304C19.1047 25.8818 18.9037 26.2315 18.8355 26.6173C18.7838 26.7394 18.7635 26.8728 18.7764 27.0049C18.7893 27.1371 18.8354 27.2636 18.9111 27.373C18.9867 27.4822 19.09 27.5706 19.208 27.6296C19.3279 27.6888 19.4589 27.7168 19.5917 27.7111C20.1026 27.7002 20.5951 27.5169 20.9879 27.1911C21.3808 26.8654 21.6538 26.4161 21.7589 25.9165L21.9673 24.7563Z" fill="white"/>
</svg>
