<svg width="74" height="26" viewBox="0 0 74 26" fill="none" xmlns="http://www.w3.org/2000/svg">
<path fill-rule="evenodd" clip-rule="evenodd" d="M68.366 24.8218C68.366 24.8218 67.8274 21.5351 67.647 20.7113H59.86C59.6451 21.356 58.5693 24.8218 58.5693 24.8218H52.2162L61.2251 3.33966C61.4488 2.70116 61.8835 2.15804 62.458 1.79992C63.031 1.4418 63.7101 1.2901 64.3823 1.36982H69.0837L74 24.8218H68.366ZM65.2433 9.71064L64.8121 7.70494C64.5256 8.60037 63.9856 9.99716 64.0228 9.96134C64.0228 9.96134 62.0847 15.1518 61.6191 16.5113H66.6428C66.3948 15.3267 65.2433 9.71064 65.2433 9.71064ZM52.1804 6.77651C50.7617 6.13622 49.2151 5.82989 47.6595 5.88113C45.2544 5.88113 44.1772 6.88395 44.1413 7.8854C44.1413 8.99571 45.4348 9.71064 47.5851 10.7851C51.0674 12.4381 52.6818 14.4713 52.646 17.1546C52.6102 21.9869 48.4832 25.1359 42.0944 25.1359C39.7861 25.1434 37.4968 24.7193 35.3446 23.8851L36.1711 18.6231L36.9976 19.017C38.7597 19.8831 40.7045 20.3126 42.6674 20.2692C44.4265 20.2692 46.2916 19.5529 46.3288 17.9784C46.3288 16.9411 45.5395 16.1876 43.1702 15.0443C40.8739 13.934 37.8228 12.073 37.8586 8.70782C37.8944 4.16202 42.093 0.97586 48.0865 0.97586C49.9482 0.964744 51.7964 1.29146 53.5414 1.94012L52.7149 7.02308L52.1804 6.77651ZM25.4817 24.8218L29.285 1.36982H35.346L31.5441 24.8218H25.4817ZM10.8803 24.8218L5.47219 4.47746C5.28761 4.37002 5.09338 4.27222 4.90466 4.1689H8.52473L9.86228 5.11525L12.3156 8.86072L13.357 11.7369L13.824 14.1131L14.47 17.3351L20.4263 1.36982H26.851L17.3049 24.8218H10.8816H10.8803Z" fill="#1470B0"/>
<path fill-rule="evenodd" clip-rule="evenodd" d="M8.12725 7.21053C7.40089 6.63942 6.61916 6.14242 5.79376 5.72696L5.44801 4.4266C3.7322 3.44281 1.9026 2.67215 0 2.1317V1.40576H9.3174C9.87488 1.40711 10.4151 1.59915 10.8484 1.94996C11.2816 2.30078 11.5819 2.78925 11.6991 3.33425L13.7158 13.6022C12.2245 11.1732 10.3354 9.01264 8.12725 7.21053Z" fill="#FFB927"/>
</svg>
