<svg width="20" height="20" viewBox="0 0 20 20" fill="none" xmlns="http://www.w3.org/2000/svg">
<path d="M12.8396 13.425L14.2396 12.025C14.4281 11.8388 14.6667 11.7113 14.9263 11.6581C15.1859 11.6048 15.4554 11.6281 15.7021 11.725L17.4083 12.4063C17.6576 12.5074 17.8713 12.6801 18.0226 12.9026C18.1738 13.125 18.2559 13.3873 18.2583 13.6563V16.7813C18.2569 16.9643 18.2184 17.1451 18.1452 17.3128C18.0721 17.4805 17.9657 17.6317 17.8326 17.7573C17.6995 17.8828 17.5423 17.9801 17.3706 18.0433C17.1988 18.1065 17.0161 18.1343 16.8333 18.125C4.87707 17.3813 2.46457 7.25628 2.00832 3.38128C1.98714 3.19099 2.0065 2.99837 2.0651 2.81609C2.12371 2.63382 2.22025 2.46602 2.34837 2.32374C2.47648 2.18145 2.63327 2.0679 2.80842 1.99057C2.98357 1.91323 3.17311 1.87385 3.36457 1.87503H6.38332C6.6527 1.87582 6.91569 1.95719 7.13845 2.10867C7.3612 2.26015 7.53355 2.4748 7.63332 2.72503L8.31457 4.43128C8.41473 4.67694 8.44028 4.94668 8.38804 5.20678C8.3358 5.46689 8.20807 5.70584 8.02082 5.89378L6.62082 7.29378C6.62082 7.29378 7.42707 12.75 12.8396 13.425Z" fill="white"/>
</svg>
