<svg width="21" height="25" viewBox="0 0 21 25" fill="none" xmlns="http://www.w3.org/2000/svg">
<path d="M12.875 20.3684H20M16.4375 16.7368V24M1 22.7895V20.3684C1 19.0842 1.50044 17.8526 2.39124 16.9445C3.28204 16.0365 4.49022 15.5263 5.75 15.5263H10.5M3.375 5.84211C3.375 7.12631 3.87544 8.35792 4.76624 9.26599C5.65704 10.1741 6.86522 10.6842 8.125 10.6842C9.38478 10.6842 10.593 10.1741 11.4838 9.26599C12.3746 8.35792 12.875 7.12631 12.875 5.84211C12.875 4.5579 12.3746 3.32629 11.4838 2.41822C10.593 1.51015 9.38478 1 8.125 1C6.86522 1 5.65704 1.51015 4.76624 2.41822C3.87544 3.32629 3.375 4.5579 3.375 5.84211Z" stroke="#376BCC" stroke-width="2" stroke-linecap="round" stroke-linejoin="round"/>
</svg>
